<?xml version="1.0" standalone="no"?>
<!DOCTYPE svg PUBLIC "-//W3C//DTD SVG 1.1//EN" "http://www.w3.org/Graphics/SVG/1.1/DTD/svg11.dtd" >
<svg xmlns="http://www.w3.org/2000/svg">
<metadata>Generated by IcoMoon</metadata>
<defs>
<font id="icomoon" horiz-adv-x="1024">
<font-face units-per-em="1024" ascent="960" descent="-64" />
<missing-glyph horiz-adv-x="1024" />
<glyph unicode="&#x20;" horiz-adv-x="512" d="" />
<glyph unicode="&#xe900;" glyph-name="searxng-wordmark" d="M389.413 164.188c-214.773 0-389.497 174.724-389.497 389.497s174.724 389.497 389.497 389.497c214.773 0 389.497-174.724 389.497-389.497s-174.724-389.497-389.497-389.497zM389.413 832.065c-153.521 0-278.38-124.859-278.38-278.38s124.859-278.38 278.38-278.38 278.38 124.859 278.38 278.38c0 153.521-124.859 278.38-278.38 278.38zM589.659 447.28l-49.080 25.914c35.337 67.141 23.166 148.025-30.233 202.209-53.399 53.791-134.282 66.748-201.816 31.804l-25.521 49.472c89.129 45.939 196.319 29.055 266.994-42.012s86.773-178.65 39.656-267.387zM554.321 243.893l145.276 151.166 321.178-307.436-145.276-151.558-321.178 307.828z" />
<glyph unicode="&#xe901;" glyph-name="cobalt" d="M51.215 159.627c0 32.785-0.402 63.839 0.402 94.893 0.13 5.129 4.465 12.66 8.928 14.793 75.035 35.986 150.533 71.033 225.698 106.755 41.316 19.59 82.3 39.984 125.481 61.038-18.058 9.865-34.786 19.191-51.646 28.185-54.309 28.921-108.685 57.641-162.928 86.63-45.116 24.125-90.161 48.445-134.944 73.171-4.597 2.531-10.33 8.33-10.459 12.795-0.933 32.055-0.535 64.105-0.535 98.754 24.324-12.66 46.578-23.722 68.372-35.653 41.517-22.725 82.633-46.113 124.081-68.968 76.166-42.050 152.399-84.032 228.7-125.943 19.056-10.459 38.051-21.323 57.843-30.323 10.662-4.797 12.66-10.995 14.726-21.988 7.527-40.381-10.928-59.442-46.446-75.901-99.358-46.046-196.78-96.426-295.070-144.739-49.844-24.458-99.954-48.247-152.2-73.37zM477.697 159.359c0 33.254-0.464 63.771 0.464 94.291 0.202 5.597 4.797 13.726 9.593 15.993 75.035 35.986 150.533 71.105 225.698 106.755 41.316 19.59 82.3 39.984 124.878 60.705-18.26 9.927-35.32 19.326-52.442 28.455-69.17 36.917-138.337 73.703-207.509 110.688-29.788 15.926-59.576 31.784-88.894 48.511-5.2 3-11.128 10.127-11.262 15.592-1.068 31.053-0.535 62.106-0.535 96.156 24.255-12.597 46.849-23.923 69.039-36.051 39.583-21.591 78.963-43.782 118.417-65.573 78.097-43.181 156.134-86.36 234.364-129.28 19.525-10.731 39.515-20.725 59.442-30.655 8.062-4 10.793-9.196 12.395-18.722 6.732-40.45-8.595-61.571-46.98-78.899-99.291-44.846-195.914-95.624-293.669-143.872-46.912-23.124-94.027-45.712-141.141-68.571-3.397-1.665-6.798-3.197-11.86-5.533z" />
<glyph unicode="&#xe902;" glyph-name="icons8-minecraft-grass-cube" d="M511.208 895.875c-5.073-0.134-9.815-1.428-14.009-3.626l0.176 0.084-369.375-189.833c-12.73-4.42-21.705-16.313-21.705-30.301 0-1.717 0.135-3.403 0.396-5.047l-0.024 0.182v-464.667c0.002-12.331 6.978-23.032 17.199-28.374l0.176-0.084 373.333-191.792c4.25-2.229 9.285-3.537 14.625-3.537s10.375 1.308 14.802 3.621l-0.177-0.084 373.333 191.792c10.397 5.426 17.373 16.127 17.375 28.458v0 463.708c0.356 1.791 0.56 3.851 0.56 5.958 0 14.412-9.526 26.598-22.625 30.607l-0.227 0.060h-0.042l-368.375 189.333c-4.257 2.238-9.301 3.551-14.652 3.551-0.269 0-0.537-0.003-0.805-0.010l0.040 0.001zM853.333 526.625v-304.417l-341.333-175.333-341.333 175.333v277.042l42.875-20-0.042-20.292c0-4.011 2.229-7.665 5.792-9.5l42.167-21.667c3.307-1.707 7.238-1.566 10.417 0.375 3.157 1.941 5.125 5.392 5.125 9.125v57.542l42.75-21.208v-27.833c0-4.011 2.25-7.665 5.792-9.5l37.125-19.042 0.292-34.208c0.021-4.053 2.352-7.729 6-9.5l63.667-30.875c1.472-0.725 3.088-1.083 4.667-1.083 1.963 0 3.939 0.537 5.667 1.625 3.115 1.941 4.979 5.331 5 9l0.25 50.083 63.792-33.708v-48.792c0-3.712 1.905-7.142 5.083-9.083 1.707-1.045 3.642-1.583 5.583-1.583 1.664 0 3.297 0.399 4.833 1.167l63.75 32.458c3.563 1.813 5.77 5.469 5.792 9.458l0.333 48.042 42.417 20.583 0.292-68.625c0-3.712 1.926-7.122 5.083-9.042 3.157-1.941 7.11-2.081 10.417-0.417l42.833 22c3.563 1.813 5.792 5.489 5.792 9.5v112.417l42.75 21.25v-70.625c0-3.712 1.968-7.142 5.125-9.083 3.2-1.941 7.11-2.082 10.417-0.375l42.167 21.625c3.563 1.835 5.792 5.511 5.792 9.5l-0.042 47.625 42.917 20.042zM800.917 405.208c-1.755 0.123-3.524-0.201-5.167-0.958l-43.167-19.792c-3.819-1.749-6.271-5.589-6.25-9.792l0.333-43.708c0.021-3.712 1.946-7.122 5.125-9.042 1.707-1.024 3.622-1.542 5.542-1.542 1.664 0 3.339 0.399 4.875 1.167l42.833 22c3.563 1.813 5.792 5.489 5.792 9.5v41.5c0 3.627-1.866 7.037-4.917 9-1.536 0.971-3.245 1.544-5 1.667zM287.125 362.208c-1.757-0.123-3.464-0.685-5-1.667-3.051-1.963-4.917-5.352-4.917-9v-41.542c0-4.011 2.25-7.624 5.792-9.458l42.833-22c1.536-0.789 3.19-1.167 4.875-1.167 1.92 0 3.856 0.476 5.542 1.5 3.179 1.92 5.104 5.33 5.125 9.042l0.333 43.75c0.043 4.203-2.39 8.042-6.208 9.792l-43.167 19.792c-1.653 0.747-3.451 1.081-5.208 0.958zM694.292 319.583c-1.757 0.123-3.524-0.201-5.167-0.958l-43.167-19.792c-3.819-1.749-6.271-5.61-6.25-9.792l0.333-43.75c0.021-3.691 1.946-7.122 5.125-9.042 1.685-1.024 3.622-1.5 5.542-1.5 1.664 0 3.339 0.399 4.875 1.167l42.833 22c3.563 1.835 5.792 5.448 5.792 9.458v41.542c0 3.627-1.866 6.996-4.917 8.958-1.525 0.992-3.243 1.586-5 1.708z" />
<glyph unicode="&#xe903;" glyph-name="xbox" d="M175.019 62.592c89.984-78.848 208-126.592 336.981-126.592 129.109 0 246.997 47.744 337.152 126.592 80.085 81.579-184.149 371.584-337.152 487.125-152.832-115.541-417.237-405.547-336.981-487.125zM651.179 677.248c106.667-126.336 319.317-440.021 259.243-550.912 70.997 87.851 113.579 199.595 113.579 321.493 0 142.507-58.24 271.445-152.32 364.203 0 0-1.152 0.939-3.499 1.792-2.688 0.939-6.485 1.92-11.989 1.92-25.259 0-84.693-18.517-205.013-138.496zM155.904 813.824c-2.432-0.853-3.499-1.749-3.669-1.792-93.995-92.757-152.235-221.696-152.235-364.203 0-121.771 42.581-233.515 113.536-321.408-59.776 111.147 152.704 424.576 259.413 550.827-120.32 120.021-179.883 138.453-205.056 138.453-5.589 0-9.515-0.896-11.989-1.963zM512 808.491c0 0-125.653 73.515-223.787 77.013-38.528 1.408-62.037-12.587-64.896-14.464 91.52 61.397 188.8 88.96 288 88.96h0.683c99.584 0 196.48-27.563 288.683-88.96-2.901 1.963-26.24 15.872-64.853 14.464-98.133-3.499-223.829-76.757-223.829-76.757z" />
<glyph unicode="&#xe904;" glyph-name="nintendoswitch" d="M604.843-64h156.757c144.043 0 262.4 118.357 262.4 262.4v499.2c0 144-118.357 262.4-262.4 262.4h-160c-3.157 0-6.4-3.157-6.4-6.4v-1011.2c-0.043-3.243 3.2-6.4 9.643-6.4zM800 499.157c57.643 0 102.357-48 102.357-102.315 0-57.685-48-102.4-102.357-102.4-57.6 0-102.4 44.757-102.4 102.4-3.2 57.557 44.8 102.315 102.4 102.315zM486.4 960h-224c-144 0-262.4-118.4-262.4-262.4v-499.2c0-144.043 118.4-262.4 262.4-262.4h224c3.157 0 6.4 3.157 6.4 6.357v1011.243c0.043 3.243-3.2 6.4-6.4 6.4zM412.843 19.157h-150.443c-99.243 0-179.243 80-179.243 179.243v499.2c0 99.243 80 179.243 179.243 179.243h147.2zM160 652.843c0-54.4 41.6-96 96-96s96 41.6 96 96c0 54.315-41.6 96-96 96s-96-41.685-96-96z" />
<glyph unicode="&#xe905;" glyph-name="playstation" d="M383.36 849.237v-748.715l167.040-53.803v627.925c0 29.44 12.971 49.109 33.877 42.283 27.136-7.723 32.427-34.731 32.427-64.213v-250.709c104.149-50.901 186.112 0.085 186.112 134.528 0 138.112-48.043 199.467-189.355 248.619-55.765 19.115-159.061 50.603-230.016 64.085zM582.016 156.245l268.629 97.067c30.507 11.008 35.243 26.667 10.496 34.901-25.003 8.192-69.845 5.931-100.565-5.248l-179.413-63.957v101.76l10.24 3.627c0 0 51.243 17.92 124.288 26.24 72.363 7.68 161.493-1.237 231.979-28.203 78.848-25.643 87.083-62.805 67.243-88.405s-69.205-44.203-69.205-44.203l-364.544-132.565v98.005zM77.141 166.4c-81.067 23.253-94.464 71.168-57.685 99.029 34.176 24.96 92.117 44.843 92.117 44.843l239.616 85.888v-98.688l-171.733-62.805c-30.080-11.563-35.2-26.965-10.197-35.243 25.003-8.32 69.845-6.4 99.968 5.12l82.688 30.123v-88.491c-5.163-1.237-10.923-1.877-16.683-3.115-82.688-14.123-170.453-8.363-257.579 20.437z" />
<glyph unicode="&#xe906;" glyph-name="epicgames" d="M150.955 960c-58.539 0-80.128-21.589-80.128-80.128v-706.773c0-6.613 0.299-12.757 0.811-18.389 1.451-12.885 1.579-25.301 13.525-39.339 1.109-1.621 13.227-10.496 13.227-10.496 6.443-3.243 10.965-5.461 18.347-8.533l355.584-148.992c18.389-8.405 26.155-11.776 39.509-11.307h0.171c13.525-0.469 21.291 2.901 39.68 11.307l355.541 148.992c7.424 3.072 11.776 5.291 18.389 8.533 0 0 12.117 9.045 13.227 10.496 11.947 14.037 12.075 26.453 13.525 39.339 0.512 5.632 0.853 11.776 0.853 18.347v706.859c-0.043 58.496-21.675 80.085-80.213 80.085zM720.811 827.307h29.013c48.384 0 71.936-23.552 71.936-72.405v-80.171h-58.539v76.928c0 15.659-7.253 22.912-22.4 22.912h-9.984c-15.659 0-22.912-7.253-22.912-22.912v-248.021c0-15.616 7.253-22.869 22.912-22.869h11.093c15.019 0 22.272 7.253 22.272 22.869v88.747h58.709v-91.477c0-48.853-24.064-72.875-72.576-72.875h-29.525c-48.683 0-72.533 24.192-72.533 72.875v253.483c0 48.725 23.851 72.917 72.533 72.917zM200.789 824.064h132.864v-54.485h-73.216v-111.104h70.485v-54.357h-70.485v-118.357h74.197v-54.357h-133.845zM363.648 824.064h93.696c48.512 0 72.533-24.192 72.533-73.045v-104.32c0-48.853-24.021-72.917-72.533-72.917h-33.877v-142.379h-59.819zM556.843 824.064h59.648v-392.661h-59.648zM423.296 771.157v-144.64h24.704c14.976 0 22.229 7.253 22.229 23.040v98.56c0 15.787-7.253 23.040-22.229 23.040zM258.816 337.92h8.875l1.963-0.299h3.2l1.621-0.512h1.621l1.621-0.469 1.579-0.341 1.451-0.299 1.451-0.341 1.451-0.299 1.621-0.512 1.28-0.299 1.28-0.512 1.621-0.469 1.28-0.64 1.664-0.64 1.451-0.64 1.28-0.853 1.621-0.597 1.109-0.853 1.621-0.768 1.28-0.853 1.451-0.768 1.28-0.981 1.28-0.811 1.28-0.939 1.323-0.981 1.28-1.109 1.28-0.981-0.939-1.28-1.152-1.152-0.939-1.28-1.152-1.28-0.939-1.152-0.981-1.109-1.152-1.28-0.939-1.28-0.981-1.152-1.109-1.28-0.981-1.28-1.152-1.28-0.939-1.152-0.981-1.28-1.109-1.28-0.981-1.323-1.109-1.109-0.981-1.28-1.28 0.939-1.28 1.109-1.28 0.853-1.493 0.939-1.109 0.811-1.451 0.811-1.28 0.811-1.493 0.811-2.56 1.28-1.28 0.469-1.451 0.512-1.621 0.427-1.28 0.341-3.243 0.683-1.621 0.128h-1.749l-1.963 0.341h-3.2l-1.621-0.171h-1.621l-1.621-0.469-1.451-0.341-1.451-0.469-1.579-0.469-1.28-0.64-1.621-0.683-2.432-1.621-1.28-0.768-1.152-0.981-1.109-0.981-1.152-0.939-0.939-1.152-1.28-1.109-1.621-2.432-0.981-1.28-0.64-1.451-0.853-1.28-0.768-1.451-0.469-1.451-0.683-1.451-0.427-1.621-0.213-1.621-0.469-1.451-0.341-1.792v-1.579l-0.299-1.621v-3.84l0.171-1.664 0.128-1.451 0.171-1.579 0.341-1.621 0.469-1.28 0.171-1.621 0.469-1.28 0.512-1.28 0.64-1.664 0.811-1.579 0.64-1.28 0.811-1.28 0.939-1.323 0.981-1.28 0.811-1.152 1.28-1.109 0.981-1.152 1.109-0.939 2.56-1.963 1.323-0.811 1.28-0.768 1.451-0.683 1.621-0.64 1.28-0.64 1.621-0.469 1.621-0.512 1.621-0.299 1.579-0.341 1.621-0.171 1.963-0.128h5.291l1.963 0.299h1.579l1.621 0.512 1.621 0.299 1.621 0.512 1.451 0.299 1.451 0.64 1.28 0.64 1.621 0.683 0.981 0.64 1.28 0.811v14.805h-23.552v23.893h53.205v-53.248l-1.109-0.939-1.28-0.981-1.152-0.811-1.28-0.981-1.28-0.768-1.28-0.981-1.28-0.811-1.323-0.811-1.621-0.811-1.451-0.811-1.28-0.811-1.621-0.64-1.28-0.811-4.864-1.92-1.451-0.64-1.451-0.469-1.451-0.512-1.579-0.469-1.451-0.469-1.621-0.512-1.451-0.299-3.243-0.683-1.621-0.299-1.579-0.171-3.243-0.341-1.92-0.128-1.621-0.171-1.792-0.171h-8.363l-1.792 0.341h-1.621l-1.579 0.299h-1.621l-1.621 0.512-1.621 0.299-1.621 0.341-1.579 0.299-1.28 0.512-1.621 0.299-1.621 0.512-1.451 0.64-1.451 0.469-1.621 0.64-1.451 0.64-1.621 0.64-1.28 0.683-1.621 0.768-1.109 0.853-1.621 0.768-1.152 0.853-1.28 0.768-2.56 1.963-1.451 0.939-0.981 0.981-1.28 0.981-1.152 1.109-1.109 0.981-1.152 1.109-0.939 1.152-1.152 1.109-0.939 1.28-0.981 1.152-0.811 1.28-0.981 1.28-0.811 1.28-0.768 1.28-0.853 1.493-0.768 1.28-1.28 2.901-0.683 1.451-0.64 1.451-0.469 1.28-0.64 1.451-0.341 1.451-0.469 1.451-0.341 1.621-0.469 1.451-0.341 1.621-0.128 1.451-0.341 1.621-0.171 1.451-0.128 1.621-0.171 1.579-0.171 1.621v8.875l0.341 1.621v1.749l0.427 1.621v1.621l0.512 1.621 0.512 1.579 0.299 1.621 0.469 1.451 0.512 1.621 0.469 1.451 0.64 1.621 0.64 1.451 0.683 1.451 1.28 2.901 0.811 1.451 0.811 1.28 0.768 1.28 0.853 1.28 0.768 1.28 0.981 1.323 0.981 1.28 0.939 1.28 1.152 1.152 0.939 1.109 0.981 1.152 1.28 1.109 0.981 1.152 1.28 0.981 1.152 1.109 1.28 0.981 1.28 0.939 1.28 0.853 1.28 0.939 1.28 0.811 1.323 0.811 1.451 0.811 1.621 0.811 1.28 0.768 1.621 0.683 1.451 0.64 1.621 0.811 1.28 0.427 1.621 0.512 1.451 0.64 1.451 0.341 1.451 0.469 1.621 0.341 1.451 0.469 1.579 0.341h1.621l1.621 0.469h1.621l1.621 0.341h1.579zM770.347 337.621h8.832l1.963-0.341h3.2l1.621-0.469h1.92l1.621-0.512 1.451-0.299 1.621-0.341 1.621-0.299 1.451-0.341 1.621-0.469 1.579-0.512 1.28-0.299 1.621-0.64 1.621-0.512 1.28-0.64 3.243-1.28 1.451-0.853 1.152-0.597 1.579-0.853 1.451-0.768 1.28-0.811 1.493-0.981 1.28-0.768 2.56-1.963 1.28-0.939-0.939-1.28-0.811-1.323-0.981-1.28-0.939-1.28-0.981-1.451-0.811-1.28-0.981-1.28-0.939-1.323-0.853-1.28-0.939-1.28-0.981-1.28-0.939-1.323-0.853-1.451-0.939-1.28-1.109-1.28-0.853-1.28-0.939-1.323-1.28 0.981-1.451 0.811-1.28 0.768-1.28 0.981-1.493 0.64-1.28 0.853-1.621 0.597-1.109 0.64-1.621 0.683-1.28 0.64-1.28 0.469-1.451 0.64-1.621 0.469-1.621 0.512-1.621 0.469-1.749 0.341-1.621 0.299-1.621 0.341-1.621 0.171-1.579 0.171-1.451 0.128h-3.584l-1.749-0.299-1.621-0.341-1.621-0.299-1.28-0.683-1.109-0.64-1.451-1.28-0.981-1.451-0.64-1.451v-4.011l0.811-1.792 0.64-0.981 1.109-1.109 1.621-0.853 1.28-0.768 3.243-1.28 2.091-0.64 1.28-0.341 1.28-0.469 1.621-0.341 1.28-0.469 1.621-0.341 1.792-0.469 1.749-0.469 1.792-0.512 1.792-0.299 1.579-0.512 1.792-0.469 1.621-0.341 1.579-0.469 1.621-0.469 1.621-0.512 1.621-0.469 1.451-0.469 1.621-0.512 1.579-0.64 1.621-0.811 1.621-0.64 3.243-1.621 1.28-0.811 1.28-0.768 1.451-0.981 1.152-0.853 1.451-1.109 3.541-3.541 0.811-1.28 1.109-1.621 0.811-1.109 0.64-1.621 0.811-1.109 0.469-1.621 0.512-1.28 0.299-1.621 0.341-1.621 0.299-1.621 0.171-1.621 0.171-1.579v-4.053l-0.171-1.749-0.171-1.621-0.128-1.792-0.341-1.621-0.469-1.579-0.341-1.621-0.469-1.621-0.64-1.451-0.64-1.28-0.683-1.451-0.768-1.28-0.981-1.28-0.853-1.28-0.768-1.323-1.109-1.152-0.981-1.109-1.152-0.981-1.28-1.109-1.109-0.981-1.28-0.981-1.28-0.768-1.323-0.981-2.901-1.451-1.621-0.853-1.621-0.597-1.579-0.64-1.621-0.512-1.621-0.469-1.28-0.469-3.243-0.683-1.28-0.299-1.621-0.341h-1.621l-1.579-0.299h-1.621l-1.621-0.341h-11.947l-1.579 0.171-1.621 0.171-1.792 0.128-1.621 0.341-1.579 0.171-1.621 0.299-1.621 0.341-1.792 0.469-1.579 0.341-1.621 0.469-1.621 0.341-1.621 0.469-1.579 0.512-1.621 0.64-1.451 0.469-1.621 0.469-1.621 0.683-1.28 0.64-1.621 0.64-1.28 0.811-1.621 0.64-1.451 0.811-1.109 0.811-1.621 0.811-1.152 0.768-1.451 0.853-1.28 0.939-1.28 0.981-1.28 0.939-1.28 0.981-1.152 0.981-1.28 1.109 0.939 1.28 1.152 1.152 0.981 1.28 1.109 1.28 0.981 1.152 0.939 1.28 1.152 1.28 0.981 1.152 1.109 1.28 0.981 1.109 1.109 1.28 0.981 1.28 0.939 1.152 1.152 1.28 0.981 1.28 1.109 1.152 1.152 1.28 1.109-0.939 1.621-0.981 1.109-0.981 1.621-0.939 1.28-0.853 1.451-0.939 1.28-0.811 1.493-0.64 1.28-0.811 1.451-0.64 1.621-0.64 1.28-0.64 1.621-0.469 1.28-0.683 1.621-0.427 1.579-0.512 1.621-0.512 1.621-0.299 1.621-0.341 1.621-0.299h1.749l1.621-0.512h8.875l1.621 0.341 1.579 0.341 1.28 0.299 1.28 0.469 1.152 0.683 1.451 0.939 0.853 1.152 0.768 1.28 0.469 1.621v3.712l-0.64 1.579-0.939 1.28-0.981 0.981-1.451 0.981-1.152 0.64-1.579 0.64-1.621 0.64-1.92 0.853-1.152 0.299-1.28 0.341-1.621 0.427-1.28 0.341-1.621 0.512-1.621 0.299-1.749 0.512-1.621 0.299-1.792 0.512-1.579 0.299-1.621 0.512-1.621 0.299-1.621 0.512-1.621 0.427-1.579 0.341-1.451 0.512-1.451 0.469-1.451 0.512-1.621 0.64-1.792 0.64-1.621 0.64-1.579 0.64-3.243 1.621-1.109 0.811-1.621 0.811-1.152 0.939-1.451 0.853-0.939 0.939-1.152 1.109-1.28 1.152-0.981 1.109-0.939 1.152-0.853 1.109-0.768 1.28-0.853 1.451-0.597 1.152-0.512 1.28-0.469 1.451-0.469 1.28-0.341 1.621-0.299 1.451v1.621l-0.341 1.621v6.912l0.341 3.243 0.299 1.28 0.341 1.621 0.469 1.28 0.341 1.621 0.64 1.28 0.64 1.621 1.451 2.901 0.811 1.28 1.109 1.28 0.853 1.28 1.28 1.28 1.109 1.152 0.981 1.28 1.451 1.152 0.939 0.811 1.451 0.981 1.28 0.939 1.28 0.853 1.621 0.768 1.28 0.64 1.664 0.811 1.28 0.64 1.621 0.512 1.579 0.64 1.621 0.469 1.152 0.341 1.579 0.299 1.28 0.341 1.621 0.299 1.621 0.341 3.243 0.341 1.621 0.128zM376.235 336.469h30.165l1.92-4.352 0.469-1.621 1.28-2.901 0.683-1.451 0.64-1.451 0.469-1.451 0.811-1.579 0.64-1.451 0.64-1.493 0.341-1.451 0.64-1.451 0.811-1.451 0.64-1.579 0.64-1.451 0.469-1.451 0.64-1.451 0.853-1.451 0.427-1.451 0.683-1.621 0.469-1.621 0.64-1.28 0.853-1.621 0.597-1.28 0.64-1.621 0.512-1.621 0.469-1.28 1.451-2.901 0.64-1.621 0.469-1.28 0.683-1.621 0.811-1.621 0.64-1.451 0.939-2.901 0.64-1.451 0.853-1.451 0.597-1.579 0.683-1.493 0.427-1.451 0.683-1.451 1.28-2.901 0.64-1.579 0.512-1.451 0.64-1.451 0.811-1.451 1.28-2.901 0.341-1.621 0.64-1.451 0.811-1.451 0.64-1.451 0.469-1.451 0.64-1.451 0.64-1.621 0.853-1.621 0.427-1.28 0.683-1.621 0.469-1.28 0.64-1.621 1.451-2.901 0.469-1.621 0.683-1.28 0.469-1.621 0.811-1.28 0.64-1.621 0.469-1.621 0.64-1.28 0.683-1.621 0.768-1.28 0.683-1.621 0.427-1.579 0.512-1.28 0.64-1.621 0.853-1.28h-33.408l-0.853 1.408-0.427 1.451-0.683 1.451-0.64 1.621-0.469 1.451-1.28 2.901-0.512 1.451-1.28 2.901-0.469 1.451-0.64 1.621-0.64 1.451-0.512 1.451-0.64 1.451h-46.293l-0.64-1.621-0.469-1.28-0.64-1.621-0.811-1.579-0.341-1.28-0.64-1.664-0.64-1.28-0.469-1.621-0.64-1.28-0.64-1.621-0.512-1.28-0.64-1.621-0.64-1.579-0.64-1.28-0.469-1.621h-33.067l0.64 1.579 1.28 2.901 0.512 1.621 0.427 1.451 0.853 1.451 1.28 2.901 0.469 1.451 0.64 1.621 0.853 1.451 0.597 1.451 0.512 1.451 0.469 1.451 0.64 1.451 0.853 1.621 0.597 1.451 0.64 1.451 0.512 1.451 1.28 2.901 1.28 3.243 0.512 1.28 0.64 1.621 0.811 1.28 0.64 1.621 0.469 1.579 0.469 1.28 0.64 1.621 0.853 1.28 0.597 1.621 0.683 1.28 0.427 1.621 0.683 1.621 0.811 1.28 0.469 1.621 0.64 1.28 0.512 1.621 0.64 1.621 0.811 1.28 0.64 1.621 0.469 1.28 0.64 1.621 0.512 1.28 0.811 1.621 0.64 1.621 0.64 1.451 0.469 1.451 0.64 1.451 0.853 1.451 0.597 1.451 0.341 1.621 1.28 2.901 0.811 1.451 0.64 1.451 0.469 1.451 0.683 1.621 0.64 1.579 0.64 1.28 0.64 1.621 0.469 1.28 1.28 3.243 0.853 1.28 0.597 1.621 0.512 1.28 0.469 1.621 0.64 1.28 0.853 1.621 0.597 1.621 0.512 1.28 0.64 1.621 1.451 2.901 0.469 1.621 0.469 1.28 0.683 1.621zM469.76 335.659h33.067l0.939-1.28 0.853-1.451 0.939-1.28 0.811-1.451 0.811-1.28 0.811-1.451 0.768-1.28 0.981-1.493 1.621-2.56 0.811-1.451 0.811-1.28 1.109-1.451 0.64-1.28 0.853-1.493 0.939-1.28 0.981-1.28 0.64-1.451 0.939-1.28 0.853-1.451 0.597-1.28 1.152-1.493 0.811-1.28 0.811-1.451 0.811-1.28 0.768-1.28 0.981-1.451 0.811-1.28 0.811-1.493 0.811-1.28 0.811-1.451 0.939-1.28 0.853-1.451 0.768-1.28 0.981 1.28 0.64 1.621 0.981 1.109 0.939 1.621 0.853 1.109 0.597 1.621 1.152 1.152 0.811 1.579 0.64 1.152 0.981 1.28 0.939 1.621 0.853 1.109 0.768 1.621 0.811 1.152 0.981 1.579 0.768 1.152 0.853 1.621 0.768 1.109 0.853 1.28 0.939 1.621 0.811 1.152 0.811 1.579 0.939 1.152 0.853 1.621 0.768 1.109 0.981 1.28 0.811 1.621 0.939 1.152 0.853 1.579 0.768 1.152 0.853 1.621 0.939 1.109 0.811 1.621 0.811 1.109h33.365v-118.997h-31.317v69.973l-0.768-1.109-0.981-1.621-0.811-1.109-0.981-1.28-0.811-1.621-0.939-1.152-0.853-1.28-0.939-1.621-0.811-1.109-0.811-1.28-1.109-1.28-0.811-1.664-0.981-1.109-0.811-1.28-0.768-1.621-0.981-1.109-0.811-1.28-0.981-1.621-0.811-1.152-0.939-1.28-0.853-1.621-0.768-1.109-0.981-1.28-0.811-1.621-0.939-1.152-0.981-1.28-0.811-1.28-0.811-1.621-0.981-1.152-0.939-1.28-0.64-1.621-1.152-1.109-0.811-1.28-0.939-1.621-0.853-1.152h-0.597l-0.981 1.451-0.811 1.28-0.981 1.493-0.811 1.28-0.939 1.451-0.853 1.28-0.939 1.451-0.811 1.28-0.939 1.451-0.853 1.28-1.109 1.493-0.64 1.28-0.981 1.451-0.939 1.28-0.853 1.451-0.939 1.28-0.811 1.621-0.939 1.28-0.853 1.451-0.939 1.28-0.811 1.493-0.981 1.28-0.768 1.451-0.981 1.28-0.811 1.451-0.981 1.28-0.811 1.451-0.939 1.28-0.853 1.493-0.939 1.28-0.811 1.451-1.109 1.28-0.64 1.451-0.981 1.28v-70.144h-30.933v117.76zM617.813 335.659h93.824v-26.88h-62.72v-19.072h56.405v-25.301h-56.363v-20.48h63.531v-26.923h-94.507zM390.912 299.221l-0.64-1.621-0.512-1.28-0.64-1.621-0.64-1.579-0.469-1.451-0.64-1.451-0.683-1.621-0.64-1.621-0.469-1.28-0.64-1.621-0.64-1.28-0.512-1.621-0.64-1.621-0.64-1.28-0.469-1.621-0.64-1.28-0.64-1.621-0.683-1.621-0.427-1.28-0.683-1.621-0.64-1.621-0.469-1.28-0.683-1.621h27.435l-0.64 1.621-0.512 1.451-0.64 1.621-0.64 1.451-0.469 1.451-0.64 1.451-0.64 1.621-0.512 1.451-1.28 2.901-0.469 1.451-0.64 1.621-0.512 1.451-1.28 2.901-0.469 1.451-0.64 1.579-0.64 1.621-0.512 1.28-1.28 3.243-0.469 1.451zM341.845 76.373h341.888l-174.507-57.6z" />
<glyph unicode="&#xe907;" glyph-name="myanimelist" d="M352.981 650.795v-359.381l-89.728 0.128v222.549l-86.613-102.571-84.864 104.875-0.853-225.493h-90.88l-0.043 359.893h93.995l79.573-108.587 85.973 108.629 93.44-0.043zM721.109 562.517l1.067-270.293h-100.907l-0.341 122.496h-119.467c2.987-21.291 8.96-54.016 17.792-75.904 6.613-16.256 12.715-32.043 24.875-48.128l-72.747-48c-14.891 27.136-26.539 57.045-37.461 88.832-10.199 27.036-17.818 58.505-21.469 91.173l-0.163 1.797c-3.627 32-4.139 62.763 4.565 94.379 9.034 31.787 26.309 58.799 49.379 79.477l0.157 0.139c13.355 12.501 31.957 21.333 46.933 29.312s31.701 11.264 47.232 15.317c14.662 3.672 32.017 6.444 49.781 7.747l1.035 0.061c16.981 1.451 47.232 2.816 101.973 1.195l23.253-74.624h-117.504c-25.301-0.341-37.461-0.043-57.216-8.917-31.269-15.034-52.836-45.771-54.52-81.707l-0.008-0.213 113.621-1.408 1.621 77.227h98.517zM891.435 652.075v-282.752l132.565-1.365-18.347-75.733h-205.099v361.131l90.88-1.28z" />
<glyph unicode="&#xe908;" glyph-name="icons8-osu" d="M512 898.56c-248.832 0-450.56-201.728-450.56-450.56s201.728-450.56 450.56-450.56c248.832 0 450.56 201.728 450.56 450.56s-201.728 450.56-450.56 450.56zM778.24 591.36h40.96v-163.84h-40.96v163.84zM287.72 532c9.728 0 19.379-1.439 28.8-4.88 25.518-9.318 40.956-28.504 47.96-55.64 2.867-11.121 4.038-22.469 4.12-34.88-0.205-16.63-2.502-33.748-10.080-49.6-11.571-24.228-30.61-37.725-55.8-41.76-5.734-0.942-11.446-1.44-17.16-1.44-9.4 0-18.745 1.348-27.92 4.44-24.125 8.131-39.232 25.857-47.24 50.72-5.202 16.179-6.43 32.823-5.16 49.76 1.249 16.568 5.123 32.386 13.52 46.64 12.063 20.5 29.834 31.9 52.28 35.32 5.571 0.84 11.13 1.32 16.68 1.32zM476.44 531.84c0.983 0 1.956 0.020 2.96 0 15.688-0.287 30.853-3.594 45.64-8.96 0.983-0.348 1.944-0.521 1.76-2.2-1.311-11.612-4.145-22.753-9.040-33.28-0.102-0.205-0.24-0.4-0.24-0.4-7.455 2.253-14.549 4.78-21.84 6.48-4.977 1.147-10.002 1.84-15.040 1.84-4.239 0-8.461-0.475-12.68-1.56-4.854-1.27-9.216-3.472-11.080-8.92-2.478-7.209-0.076-14.51 6.6-17.48 7.291-3.256 14.944-5.556 22.44-8.28 6.574-2.396 13.33-4.413 19.72-7.28 16.978-7.619 25.411-21.67 26.64-40.88 1.044-16.138-2.615-30.654-13.080-42.84-9.073-10.527-20.62-16.672-33.4-20.44-9.38-2.765-18.935-3.72-28.52-3.72-4.649 0-9.271 0.212-13.92 0.56-12.329 0.901-24.208 4.036-35.8 8.48-1.29 0.492-1.743 1.085-1.6 2.56 1.229 11.878 4.232 23.225 8.84 34.12 0.143 0.369 0.313 0.706 0.6 1.32 0.86-0.328 1.701-0.592 2.52-0.92 12.083-4.813 24.438-8 37.32-8 1.27 0 2.53 0.038 3.8 0.12 6.554 0.328 12.962 1.381 18.84 4.76 7.864 4.526 10.808 11.221 8.76 19.72-0.799 3.277-2.333 6.106-5.2 7.56-4.69 2.376-9.464 4.68-14.4 6.4-8.888 3.133-17.992 5.666-26.88 8.84-6.574 2.355-12.455 6.189-17.8 10.92-7.475 6.615-11.011 15.328-12.24 25.24-1.393 11.203-0.823 22.254 3.56 32.76 5.857 14.070 16.469 22.656 29.72 27.96 10.65 4.28 21.776 5.52 33.040 5.52zM595.36 529.76c7.516 0 15.062-0.667 22.64-2.080v-3.24c0.020-32.604-0.106-65.196 0.16-97.8 0.061-6.574 1.086-13.27 2.52-19.68 2.888-12.923 10.838-20.12 22.88-21.84 3.215-0.451 6.445-0.68 9.64-0.68 5.427 0 10.814 0.613 16.2 1.76 1.946 0.41 2.56 1.208 2.56 3.44-0.061 44.954-0.040 89.886-0.040 134.84v3.2c7.475 1.413 14.866 2.080 22.28 2.080 7.475 0 14.963-0.687 22.52-2.080v-2.6c0-55.849-0.021-111.711 0.040-167.56 0-1.987-0.521-2.707-2.2-3.28-19.579-6.554-39.484-10.32-59.8-10.32-3.932 0-7.867 0.113-11.84 0.4-10.547 0.778-21.125 1.826-31.16 5.84-18.985 7.578-29.695 23.138-35.040 43.72-3.154 12.124-3.9 24.586-3.92 37.12-0.061 31.478 0 62.962 0 94.44 0 0.696 0.039 1.4 0.080 2.24 7.516 1.393 15.005 2.080 22.48 2.080zM286.16 493.32c-1.188 0-2.372-0.058-3.56-0.16-10.26-0.799-18.311-5.748-22.96-15.64-2.13-4.547-3.834-9.445-4.96-14.36-3.092-13.537-3.030-27.298-1.76-41.040 0.758-8.315 2.516-16.403 6.12-23.96 3.4-7.107 8.37-12.402 15.64-14.88 3.973-1.352 7.966-2.040 11.96-2.040 4.157 0 8.303 0.745 12.44 2.24 9.359 3.379 14.426 11.021 17.6 20.36 3.686 10.854 4.476 22.18 4.64 35-0.123 2.601-0.232 6.587-0.56 10.56-0.758 9.462-2.344 18.718-6.44 27.32-4.116 8.643-10.628 14.161-19.68 15.84-2.785 0.492-5.654 0.76-8.48 0.76zM778.24 386.56h40.96v-40.96h-40.96v40.96z" />
<glyph unicode="&#xe909;" glyph-name="discord-mark-black" horiz-adv-x="1351" d="M1144.508 874.242c-80.544 37.917-174.112 67.733-272.061 84.795l-6.681 0.963c-11.133-19.3-23.083-43.14-33.786-67.648l-1.92-4.933c-46.486 7.375-100.087 11.588-154.673 11.588s-108.188-4.213-160.498-12.333l5.824 0.744c-12.637 29.456-24.586 53.296-37.696 76.39l1.99-3.809c-104.745-18.184-198.371-48.064-285.877-88.87l6.923 2.899c-176.405-260.995-224.226-515.507-200.315-766.406v0c97.662-72.865 211.284-131.398 333.905-169.493l7.959-2.13c25.701 34.191 50.014 72.842 71.052 113.463l2.167 4.601c-44.644 16.821-82.635 35.341-118.609 56.883l3.308-1.836c9.67 7.014 19.128 14.24 28.267 21.254 100.096-48.191 217.639-76.35 341.758-76.35s241.663 28.158 346.59 78.435l-4.831-2.085c9.245-7.545 18.703-14.771 28.267-21.254-32.722-19.734-70.783-38.289-110.51-53.473l-5.004-1.68c23.16-45.166 47.474-83.784 74.733-120.063l-1.514 2.105c130.668 40.060 244.38 98.573 345.035 173.626l-2.958-2.109c28.055 290.962-47.927 543.137-200.847 766.725zM451.108 261.924c-66.63 0-121.677 60.467-121.677 134.854s53.134 135.386 121.465 135.386 122.952-60.998 121.783-135.386-53.665-134.854-121.571-134.854zM899.985 261.924c-66.736 0-121.571 60.467-121.571 134.854s53.134 135.386 121.571 135.386 122.633-60.998 121.465-135.386-53.559-134.854-121.465-134.854z" />
<glyph unicode="&#xe90a;" glyph-name="Fandom_heart-logo" d="M874.722 425.531c-6.42 12.84-12.84 22.469-22.469 32.099l-497.539 497.539c-3.21 3.21-6.42 6.42-9.63 6.42s-6.42 0-9.63 0c-3.21 0-6.42-3.21-9.63-6.42s-3.21-6.42-3.21-9.63v-417.291l-147.657 147.657c-3.21 3.21-6.42 3.21-9.63 6.42s-6.42 0-9.63 0c-3.21-3.21-6.42-6.42-9.63-9.63s-3.21-6.42-3.21-9.63v-430.13c0-12.84 3.21-25.679 6.42-38.519 6.42-12.84 12.84-22.469 22.469-32.099l195.806-195.806c19.26-19.26 44.939-28.889 73.828-28.889h144.447c25.679 0 54.569 9.63 73.828 28.889l195.806 195.806c9.63 9.63 16.050 19.26 22.469 32.099s6.42 25.679 6.42 38.519v154.076c-3.21 12.84-6.42 28.889-9.63 38.519zM701.386 277.874c0-9.63-3.21-16.050-9.63-22.469l-157.286-157.286c-3.21-3.21-6.42-6.42-9.63-6.42-3.21-3.21-6.42-3.21-12.84-3.21-3.21 0-9.63 0-12.84 3.21s-6.42 3.21-9.63 6.42l-157.286 157.286c-6.42 6.42-9.63 12.84-9.63 22.469v60.989c0 3.21 0 9.63 3.21 12.84s3.21 6.42 6.42 9.63l57.779 57.779c3.21 3.21 6.42 6.42 9.63 6.42 3.21 3.21 6.42 3.21 12.84 3.21 3.21 0 9.63 0 12.84-3.21s6.42-3.21 9.63-6.42l80.248-80.248 80.248 80.248c3.21 3.21 6.42 6.42 9.63 6.42 3.21 3.21 6.42 3.21 12.84 3.21 3.21 0 9.63 0 12.84-3.21s6.42-3.21 9.63-6.42l57.779-57.779c3.21-3.21 6.42-6.42 6.42-9.63 3.21-3.21 3.21-6.42 3.21-12.84l-6.42-60.989z" />
<glyph unicode="&#xe90b;" glyph-name="Invidious-logo" d="M1009.159 518.096c-2.994 15.466-10.228 43.655-14.22 56.626-10.228 32.928-27.439 71.094-45.4 100.78-20.704 33.926-42.657 61.616-75.833 94.543-30.185 30.185-50.638 46.398-86.061 68.85-19.207 11.973-48.642 27.439-69.098 36.17-57.872 24.445-117.742 38.166-182.35 41.408-115.747 5.737-238.228-31.183-330.275-100.281-45.152-33.675-87.806-78.579-117.742-124.227-39.164-59.369-63.86-124.478-73.090-192.826-9.478-70.096-3.992-140.941 15.717-204.801 45.651-147.925 164.639-267.663 316.805-319.049 45.899-15.466 93.295-24.197 142.687-26.193v0c47.647-1.996 94.293 1.996 135.952 11.226 71.094 15.717 138.946 46.649 195.82 89.554 98.034 73.589 163.391 176.362 186.841 293.357 6.236 30.684 7.234 45.4 7.234 91.798-0.248 43.903-0.998 53.384-6.986 83.067zM469.343 716.91c9.478 4.99 23.698 4.99 33.176 0 6.986-3.741 12.971-11.474 14.967-19.458 0.499-1.497 0.747-3.741 0.747-5.988 0-1.497 0.248-2.994 0-4.491 0-2.244-0.248-4.24-0.499-5.737-2.495-10.476-12.723-20.704-23.45-22.951v0c-15.965-3.493-29.934 2.495-36.669 14.967-8.731 16.213-3.242 35.922 11.725 43.655zM723.785 144.417c-0.499-0.248-5.988-0.499-14.22-0.499-3.741 0-7.981-0.248-12.472-0.248-0.998 0-1.996 0-2.994 0l-28.437-0.248-11.226 23.199c-13.47 27.439-65.106 131.96-108.014 218.52-16.963 34.425-39.415 79.574-49.64 100.529s-19.207 38.665-19.957 39.415c-0.998 1.246-1.246 0.998-2.495-2.495-1.996-5.238-9.977-31.93-22.201-74.336-5.988-20.456-12.224-42.158-14.22-48.143-1.745-5.988-6.735-22.452-10.727-36.92-4.24-14.468-10.727-36.92-14.719-49.891-3.992-13.222-11.474-39.164-16.963-57.624s-11.474-39.663-13.721-46.897c-9.23-30.932-10.727-42.158-5.489-46.15 1.497-0.998 3.242-1.246 13.47-1.996l11.725-0.747 0.499-5.988c0.248-3.242 0.499-7.234 0.499-8.48v0-2.495l-21.454 0.248c-43.404 0.248-54.382 0.499-57.373 0.998h-0.747v0.248c0 0 0 0-0.248 0-0.499 0.998-0.747 4.99-0.499 8.48 0 1.497 0 2.743 0.499 3.741 0.248 0.747 0.248 1.246 0.499 1.497 1.246 1.745 4.739 2.743 10.228 2.743 2.495 0 6.236 0.248 8.48 0.747 5.737 0.998 6.986 2.495 12.224 16.712 3.242 8.48 7.733 23.45 18.46 60.367 4.739 16.712 11.474 39.911 14.967 51.137 3.242 11.474 10.228 34.924 15.218 52.135 14.468 49.392 19.207 65.605 35.671 121.983 8.48 29.187 19.706 67.353 24.944 85.063 13.222 45.4 20.456 67.353 23.45 70.595 1.745 1.996 3.741 1.745 5.988-0.747 1.996-2.495 7.485-13.721 19.207-39.415 16.712-36.421 47.895-100.281 169.379-345.492 18.959-38.166 36.669-74.088 39.164-79.574 2.994-6.487 4.24-8.731 4.24-9.729 0-0.248 0-0.248 0-0.248s0 0-0.248-0.248c-0.248 0.499-0.499 0.248-0.747 0.248z" />
<glyph unicode="&#xe90c;" glyph-name="breezewiki" d="M324.364 793.925c-81.763 0-146.755-46.124-190.782-98.536-44.027-50.316-79.668-111.115-119.501-188.686-44.027-85.957 20.966-190.782 117.404-190.782h301.896c23.062-41.93 48.219-81.763 77.572-115.308 44.027-50.316 106.923-98.536 188.686-98.536s146.755 46.124 190.782 98.536c44.027 50.316 79.668 111.115 119.501 188.686 44.027 85.957-20.966 190.782-117.404 190.782h-301.896c-23.062 41.93-48.219 81.763-77.572 115.308-44.027 48.219-106.923 96.439-188.686 98.536zM324.364 699.581c46.124 0 83.859-27.254 119.501-67.088 25.158-29.351 52.413-71.281 79.668-121.598 8.386-14.676 23.062-25.158 39.834-25.158h329.151c31.447 0 48.219-29.351 35.64-56.606-37.737-73.378-69.185-127.887-104.826-167.722s-75.476-67.088-119.501-67.088c-46.124 0-83.859 27.254-119.501 67.088-25.158 29.351-52.413 71.281-79.668 121.598-8.386 14.676-23.062 25.158-39.834 25.158h-331.248c-31.447 0-48.219 29.351-35.64 56.606 37.737 73.378 69.185 127.887 104.826 167.722 35.64 41.93 75.476 67.088 121.598 67.088z" />
<glyph unicode="&#xe90d;" glyph-name="nitter" d="M678.4 380.16c0 3.2-0.64 7.040-0.64 10.24 0 161.92 0 323.2 0 485.12 0 5.12 2.56 9.6 4.48 14.72 0.64 0.64 1.28 1.28 1.92 1.92 4.48 1.28 8.32 4.48 12.8 4.48 54.4 0 108.8 0 163.2 0 4.48 0 8.32-2.56 12.8-4.48 0.64-0.64 1.28-1.28 1.92-1.92 0.64-1.28 1.92-3.2 2.56-4.48 0.64-0.64 1.28-1.28 1.92-1.92 0-3.2 0.64-7.040 0.64-10.24 0-284.8 0-568.96 0-853.76 0-5.12-2.56-10.24-4.48-14.72-0.64-0.64-1.28-1.28-1.92-1.92-5.12-0.64-9.6-3.2-14.080-3.2-43.52 0-86.4 0-129.92 0-8.32 0-13.44 3.2-17.92 10.24-47.36 67.84-95.36 135.040-143.36 202.88-30.72 42.88-62.080 86.4-93.44 130.56-39.040 55.68-78.72 111.36-118.4 167.040-0.64 0.64-0.64 2.56-0.64 3.2 0 2.56 1.28 5.12 0.64 7.040-1.28 2.56-3.2 5.76-5.76 6.4s-7.68-1.28-7.68-3.2c-0.64-2.56 1.92-5.76 2.56-8.32 0-3.84 0.64-7.040 0.64-10.24 0-161.92 0-323.2 0-485.12 0-5.12-2.56-9.6-4.48-14.72-0.64-0.64-1.28-1.28-1.92-1.92-4.48-1.28-8.32-4.48-12.8-4.48-54.4 0-108.8 0-163.2 0-4.48 0-8.32 2.56-12.8 4.48-0.64 0.64-1.28 1.28-1.92 1.92-1.28 4.48-4.48 8.32-4.48 12.8 0 286.080 0 572.8 0 858.88 0 4.48 2.56 8.32 4.48 12.8 0.64 0.64 1.28 1.28 1.92 1.92 4.48 1.28 8.96 3.84 13.44 3.84 43.52 0 86.4 0 129.92 0 8.32 0 13.44-3.2 17.92-10.24 47.36-67.84 95.36-135.040 143.36-202.88 31.36-43.52 62.080-87.68 93.44-131.84 39.68-56.32 80-112 119.68-167.68 0.64-0.64 0.64-1.92 0.64-3.2 0.64-3.84 1.28-7.040 1.92-10.88 3.2 0.64 7.040 0.64 8.32 2.56s-0.64 5.76-1.28 8.32zM313.6 583.040c0.64 0.64 1.28 1.28 1.92 1.92 12.16 8.96 30.080 5.76 39.040-6.4 19.84-28.16 40.32-55.68 60.16-83.84 46.72-65.92 93.44-131.2 139.52-197.12 42.88-61.44 85.12-123.52 128.64-184.96 13.44-19.2 29.44-36.48 40.96-56.32 10.24-16.64 22.4-21.12 40.96-19.84 21.76 1.92 44.16 0.64 66.56 0.64 3.2 0 5.76 0 8.96 0.64 0 274.56 0 548.48 0 821.76-42.24 0-83.84 0-126.080 0 0-5.12 0-8.96 0-12.8 0-172.8 0-345.6 0-517.76 0-3.84-0.64-8.96-2.56-12.16-8.32-12.8-32-12.8-40.96-0.64-11.52 16-22.4 32-33.92 48-46.080 64-92.8 129.92-139.52 195.84-37.12 51.84-74.24 104.32-111.36 156.16-32 45.44-64 90.88-96 136.96-3.2 4.48-6.4 7.040-12.8 7.040-13.44-0.64-26.88 0-39.68 0-17.92 0-35.84 0-54.4 0 0-275.2 0-549.12 0-822.4 42.24 0 84.48 0 126.080 0 0 5.12 0 8.96 0 12.8 0 172.8 0 345.6 0 517.76 0.64 5.12 3.2 10.24 4.48 14.72zM345.6 515.84c-0.64 2.56-3.2 5.76-2.56 8.32 0 1.28 5.12 3.84 7.040 3.2 2.56-0.64 4.48-3.84 5.76-6.4 0.64-1.92 0-4.48-0.64-7.040-2.56 0.64-6.4 1.28-9.6 1.92zM678.4 380.16c0.64-3.2 2.56-6.4 1.92-8.32-1.28-1.92-5.12-1.92-8.32-2.56-0.64 3.84-1.28 7.040-1.92 10.88 2.56 0.64 5.12 0 8.32 0zM151.68 892.16c-0.64-0.64-1.28-1.28-1.92-1.92 0.64 0.64 1.28 1.28 1.92 1.92zM684.16 892.16c-0.64-0.64-1.28-1.28-1.92-1.92 0.64 0.64 1.28 1.28 1.92 1.92zM874.24 890.24c-0.64 0.64-1.28 1.28-1.92 1.92 0.64-0.64 1.28-1.28 1.92-1.92zM878.080 884.48c-0.64 0.64-1.28 1.28-1.92 1.92 1.28-1.28 1.28-1.28 1.92-1.92zM149.76 5.76c0.64-0.64 1.28-1.28 1.92-1.92-0.64 0.64-1.28 1.28-1.92 1.92zM339.84 3.84c0.64 0.64 1.28 1.28 1.92 1.92-0.64-0.64-1.28-1.28-1.92-1.92zM872.32 3.84c0.64 0.64 1.28 1.28 1.92 1.92-0.64-0.64-1.28-1.28-1.92-1.92zM313.6 583.040c0.64 0.64 1.28 1.28 1.92 1.92-0.64-0.64-1.28-1.28-1.92-1.92z" />
<glyph unicode="&#xe90e;" glyph-name="pipedsvg" d="M292.437 811.302c0 0 6.931 5.196 19.247 12.070 6.921 2.977 15.55 6.040 25.391 8.789 10.354 2.162 21.864 3.783 33.745 4.655 12.146 0.066 24.443-0.702 36.001-2.228 11.501-2.342 22.101-5.3 31.033-8.448 17.209-8.078 28.056-14.839 28.056-14.839s0-11.103 0-30.549c0-9.719 0-21.523 0-35.063s0-28.814 0-45.483c0-16.659 0-34.712 0-53.807 0-9.548 0-19.361 0-29.383s0-20.262 0-30.682c0-10.411 0-21.001 0-31.725 0-10.714 0-21.57 0-32.503s0-21.959 0-33.024c0-11.065 0-22.177 0-33.289 0-11.103 0-22.215 0-33.28s0-22.092 0-33.024c0-10.942 0-21.788 0-32.512 0-10.714 0-21.305 0-31.716 0-10.42 0-20.66 0-30.682 0-10.031 0-19.835 0-29.383 0-19.096 0-37.148 0-53.807 0-16.668 0-31.943 0-45.483s0-25.344 0-35.063c0-19.447 0-30.559 0-30.559s-10.847 0-27.108 0c-8.135 0-17.617 0-27.781 0s-21.011 0-31.848 0c-10.847 0-21.684 0-31.848 0s-19.655 0-27.781 0c-16.27 0-27.108 0-27.108 0s0 11.112 0 30.559c0 9.719 0 21.523 0 35.063s0 28.814 0 45.483c0 16.659 0 34.712 0 53.807 0 9.548 0 19.352 0 29.383 0 10.022 0 20.262 0 30.682 0 10.411 0 21.001 0 31.716 0 10.724 0 21.57 0 32.512 0 10.932 0 21.959 0 33.024s0 22.177 0 33.28c0 11.112 0 22.225 0 33.289s0 22.092 0 33.024c0 10.932 0 21.788 0 32.503 0 10.724 0 21.314 0 31.725 0 10.42 0 20.66 0 30.682s0 19.835 0 29.383c0 19.096 0 37.148 0 53.807 0 16.668 0 31.943 0 45.483s0 25.344 0 35.063c0 19.447 0 30.549 0 30.549zM379.259 61.156c-48.242 0-87.23 15.682-87.23 35.081s38.988 35.081 87.23 35.081c48.242 0 87.23-15.682 87.23-35.081s-38.988-35.081-87.23-35.081zM521.586 682.686c0 0 0 9.14-0.152 21.096-0.133 5.376-0.313 11.283-0.521 17.323-0.209 5.907-0.408 12.25-0.569 18.821-0.085 7.016-0.076 14.668 0.038 22.594 0.247 8.818 0.616 18.005 1.062 26.719 1.308 20.091 2.541 35.717 2.541 35.717s13.833 1.147 37.205 1.365c5.632-0.36 11.785-0.929 18.375-1.754s13.615-1.906 21.001-3.281c7.121-1.839 14.526-4.077 22.158-6.722 7.623-2.645 15.474-5.708 23.467-9.188 7.557-4.096 15.18-8.685 22.812-13.758 7.623-5.073 15.246-10.629 22.812-16.668 7.111-6.514 14.099-13.511 20.907-20.983 6.466-7.756 12.724-15.957 18.707-24.576 5.613-8.884 10.923-18.148 15.891-27.762 4.551-9.823 8.742-19.949 12.525-30.331 3.337-10.534 6.258-21.276 8.723-32.161 2.001-10.97 3.537-22.044 4.599-33.147 0.569-11.112 0.654-22.206 0.256-33.223-0.901-10.951-2.285-21.779-4.153-32.408-2.361-10.505-5.196-20.774-8.476-30.748-3.774-9.775-7.983-19.228-12.591-28.312-5.082-8.827-10.534-17.266-16.318-25.259-6.229-7.708-12.762-14.971-19.532-21.751-7.386-6.334-14.952-12.184-22.642-17.55-7.68-5.367-15.474-10.249-23.305-14.649-8.486-3.802-16.915-7.177-25.183-10.136-8.287-2.958-16.412-5.499-24.311-7.642-8.334-1.678-16.327-3.053-23.865-4.153-7.547-1.109-14.649-1.944-21.201-2.541-13.796-0.389-24.841-0.436-32.436-0.389s-11.738 0.19-11.738 0.19c0 0 0.303 9.131 0.692 21.931 0.161 6.106 0.332 13.094 0.474 20.489 0.104 7.424 0.161 15.483 0.161 23.817-0.076 8.732-0.228 18.005-0.455 27.288-0.322 9.975-0.721 20.006-1.138 29.222-1.109 20.357-2.057 35.537-2.057 35.537s6.58-0.379 17.626-0.465c5.291 0.209 11.52 0.702 18.375 1.555 6.552 1.157 13.587 2.797 20.812 4.987 6.76 2.569 13.549 5.765 20.129 9.567 3.063 2.048 6.040 4.257 8.913 6.609 2.693 2.446 5.281 5.044 7.718 7.765 2.247 2.807 4.343 5.736 6.258 8.78 1.726 3.11 3.262 6.324 4.608 9.624 1.138 3.337 2.067 6.76 2.788 10.221 0.512 3.499 0.806 7.026 0.882 10.572-0.133 3.556-0.493 7.111-1.062 10.648-0.787 3.518-1.783 7.007-2.977 10.43-1.413 3.394-3.015 6.722-4.807 9.965-1.991 3.186-4.153 6.277-6.476 9.244-2.522 2.911-5.177 5.689-7.955 8.344-2.958 2.569-6.021 4.997-9.169 7.282-6.77 4.305-13.767 8.021-20.717 11.112-7.452 2.759-14.696 4.968-21.466 6.647-7.083 1.413-13.511 2.408-18.982 3.072-11.435 0.844-18.261 1.024-18.261 1.024zM527.521 681.244c-21.305 0-38.533 32.322-38.533 72.296 0 39.983 17.228 72.306 38.533 72.306s38.533-32.322 38.533-72.306c0-39.974-17.228-72.296-38.533-72.296zM528.972 376.889c-21.305 0-38.533 35.603-38.533 79.644s17.228 79.644 38.533 79.644c21.314 0 38.533-35.603 38.533-79.644s-17.218-79.644-38.533-79.644z" />
<glyph unicode="&#xe90f;" glyph-name="beatbump-filled" d="M867.8 311.4c0-53.6 0-107 0-160.4 0-8 0-16 0-24 0-2.4-0.6-4.4-2.6-5.8-1-0.6-1.8-1.6-2.4-2.4-18.2-20-40.6-34-65-45.2-17.4-8-35.6-13.4-54.2-17-10.2-2-20.4-3-30.6-4-8-0.8-16.2-1.4-24.2-1.4-13.8-0.2-27.2 2-40.4 5.6-24.8 6.6-47 18.4-66.6 34.8-17.6 14.8-31.8 32.4-43.8 51.8-1 1.8-0.8 2.8 0.4 4.2 3.4 3.4 6.8 7 10.2 10.6 1.6 1.6 2.2 3.2 2.2 5.6 0 64.2 0 128.4 0 192.4 0 4.4 0.2 8.6 0 13 0 1.2-0.6 2.6-1.4 3.6-11.2 12.2-23 23.6-36.4 33.4-0.8 0.6-1.4 2-1.4 3.2-0.2 5.2-0.2 10.4-0.2 15.8 0 114 0 228.2 0 342.2 0 0.8 0 1.6 0 2.2 0 4 0 4 4 4 42.6 0 85.4 0 128 0 0 0 0.2 0 0.6-0.2 0-129.4 0-258.8 0-388.4 5.8 1.4 11.4 2.8 17 4 8.2 2 16.4 4 24.6 5.6 4.2 0.8 8.8 0.4 13.2 0.2 15.2-0.6 30.2-3.2 45-7 14-3.6 27.6-8.2 40.6-14.2 20.4-9.2 39.4-20.8 56.2-35.4 9-8 17.6-16.4 26.4-24.8 0.6-0.2 0.8-1.2 0.8-2zM812 240.4c-0.6 6.2-1 10.6-1.4 15.2-1.6 13.8-8 24.8-19 33.4-7.2 5.6-15.6 9.2-24.6 11.2-20.4 4.8-38.2-0.4-52.8-15.2-9.6-9.6-14-21.8-16-34.8-0.8-4.6-1-9.4-0.4-14 0.4-4.4 2.2-8.8 3.4-13.2 4-13.2 11.8-23.4 24.6-29.2 11.4-5.2 23.2-7 35.8-5.2 8.4 1.2 16.4 2.8 24 6.6 11.6 5.8 20.2 14.4 23.6 27.2 1.6 6.4 2 13 2.8 18zM526.2 364c4.6-4.6 6.6-9 6.6-15.8-0.2-59.2 0-118.4-0.2-177.4 0-1.4-0.6-3.2-1.6-4.2-9.4-9.2-18.6-18.6-29.6-26.2-13-9-26.6-16.8-41-23-18.8-8.4-38.6-14.2-58.8-17.6-11.4-1.8-22.8-2.6-34.2-3.2-9.6-0.4-19.2-0.4-28.6 0.2-14.8 1-29 4.8-42.8 10-15.4 5.8-29.2 14-42.4 23.6-13.4 10-25 21.8-35.4 34.8-12.8 16.4-22.8 34.6-30.2 54.4-8.8 23.2-11.8 47.4-11.8 72 0 171.8 0 343.6 0 515.4 0 3.4 0 7 0 10.6 44.4 0 88.6 0 132.8 0 0-129.4 0-258.8 0-388.2 9.2 2.4 18.2 4.8 27.2 7 5.6 1.4 11 2.6 16.6 3.4 3.4 0.4 6.8 0 10.2-0.2 13.8-0.2 27.2-2.2 40.4-5.8 30-8 58.4-19.8 84.2-37.6 14-9 26.4-20.2 38.6-32.2zM477.6 285c-0.6 6.2-1 10.6-1.4 15.2-1.6 13.8-8 24.8-18.8 33.4-7.4 5.6-15.6 9.2-24.6 11.2-20.4 4.8-38.2-0.4-52.8-15.2-9.6-9.6-14-21.8-16-34.8-0.8-4.6-1-9.4-0.4-14 0.4-4.4 2.2-8.8 3.4-13.2 4-13.2 11.8-23.4 24.6-29.2 11.4-5.2 23.2-7 35.8-5.2 8.4 1.2 16.4 2.8 24 6.6 11.6 5.8 20.2 14.4 23.6 27.2 1.4 6.4 1.8 13 2.6 18zM886 119c0-2.4-1-4.2-2.6-5.6-9.2-8.6-18.4-17.2-27.6-25.6-9.6-8.8-20.4-16-31.4-22.6-7.8-4.8-16.2-9-24.4-13-16-7.6-32.2-14-49.4-18.4-8.2-2-16.4-3.8-24.6-5.6-9-2-18-2.8-27.2-2.4-5 0.2-10.2-0.4-15.2-0.4-5.4 0-10.8 0.2-16.2 0.8-11.6 1.6-23 3.8-34.4 7.4-12.2 4-24.2 8.2-35.6 14.2-12.6 6.8-24.2 15-35 24.4-6.2 5.4-12.2 11-18 17-10.6 10.8-18.8 23.6-26.6 36.4-1.6 2.8-1.8 2.8-4.2 1-15-10.6-30-21.2-46.8-28.8-9-4.2-18-8-27.2-11.6-7.2-2.8-14.6-5-21.8-7.4-1.4-0.4-2.8-0.4-4.2-0.8-0.4 0-1 0-1.2-0.2-2-2.6-4.8-1.6-7.4-2-3.6-0.6-7.2-1.4-10.6-2.2-11.8-2.6-23.8-4-35.8-3.8-1.2 0-2.6-0.4-3.8-0.6-0.2 0-0.6-0.2-0.6-0.2-4.2 1.8-8.8 0.4-13 1-4.4 0.6-9 1.2-13.4 1.8-1.2 0.2-2.4 0-3.4 0.2-9.8 0.8-18.8 3.8-28.2 6.4-2.2 0.6-4 2.2-6 3.2-0.8 0.4-1.6 0.2-2.4 0.4-1 0.4-2.2 0.8-3.2 1.4-0.2 0.2-0.4 0.6-0.8 0.6-6.8 0.4-12.2 4.8-17.8 7.6-6.8 3.4-13.4 7.2-20 11-0.4 0.2-0.8 0.6-1.2 0.8-4 3.2-7.8 6.8-12 9.6-10.2 7-18 16.4-26.6 25.2-3.8 3.8-6.6 8.6-9.8 13-0.4 0.4-0.6 1-1 1.4-4.4 5-8.2 10.4-10.8 16.6-0.2 0.6-1 1.2-1.4 1.8-0.8 1-1.8 2-2 3.2-0.8 4.6-3.8 8.2-5.6 12.4-1.2 2.8-3.4 5.2-3 8.6 0 0.8-1.4 1.8-1.6 2.8-0.2 3.6-2.6 6.2-3.6 9.4-1.4 4-1.8 8.2-2.8 12.4-0.2 1-0.8 2-1.2 3.2-0.2 0.4-0.4 1-0.4 1.4-0.4 6-3.2 11.8-2.4 18.2 0 0.6-0.6 1.4-1 2.2-0.2 0.6-0.6 1.2-0.8 1.8-0.2 1.4-0.2 3-0.2 4.4 0 200.8 0 401.4 0 602.2 0 1 0 2 0 3.4 3.8 0 7.4 0 10.8 0 49.2 0 98.4 0 147.4 0 1.8 0 3.6 0 5.4-0.2 0.4 0 0.8 0 1 0 2.4-3.2 6-1.2 9.2-2 0-131.2 0-262.4 0-393.8 12.6 2.8 30.8 5.2 52.6 3 29.8-3.2 52.2-13.6 65.2-21 8.6-3.4 17.8-7.6 27.4-12.8 6-3.2 11.8-6.6 17-9.8 0 130.4 0 260.4 0 390.6 58.2 0 116 0 174 0 0-131.2 0-262.2 0-393.8 3.8 0.4 7.4 1 10.8 1.4 9.8 1.2 19.6 0.4 29.4-0.6 17.6-1.6 35-5.6 52-10.4 19-5.4 36.8-13.8 54-23.2 23.8-12.8 45.2-28.6 63.6-48.6 2.2-2.4 4.6-4.4 6.6-6.8 0.8-1 1.6-2.6 1.6-4-0.6-69-0.6-137.4-0.6-205.6zM867.8 151c0 53.4 0 107 0 160.4 0 0.8-0.2 1.8-0.8 2.2-8.8 8.4-17.2 16.8-26.4 24.8-17 14.6-36 26.2-56.2 35.4-13 6-26.6 10.6-40.6 14.2-14.8 3.8-29.8 6.4-45 7-4.4 0.2-9 0.6-13.2-0.2-8.2-1.4-16.4-3.6-24.6-5.6-5.6-1.2-11.2-2.6-17-4 0 129.6 0 259 0 388.4-0.4 0.2-0.6 0.2-0.6 0.2-42.6 0-85.4 0-128 0-4 0-4 0-4-4 0-0.8 0-1.6 0-2.2 0-114 0-228.2 0-342.2 0-5.2 0-10.4 0.2-15.8 0-1 0.6-2.6 1.4-3.2 13.4-9.8 25.2-21.2 36.4-33.4 0.8-0.8 1.4-2.4 1.4-3.6 0.2-4.4 0-8.6 0-13 0-64.2 0-128.4 0-192.4 0-2.2-0.6-4-2.2-5.6-3.4-3.4-6.8-7-10.2-10.6-1.4-1.4-1.6-2.4-0.4-4.2 12-19.6 26.2-37 43.8-51.8 19.8-16.4 41.8-28.2 66.6-34.8 13.2-3.6 26.6-5.8 40.4-5.6 8 0 16.2 0.6 24.2 1.4 10.2 1 20.6 2 30.6 4 18.6 3.6 36.8 8.8 54.2 17 24.4 11.2 46.8 25.2 65 45.2 0.8 0.8 1.6 1.8 2.4 2.4 2.2 1.4 2.6 3.4 2.6 5.8 0 7.8 0 15.8 0 23.8zM532.8 348.2c0 6.6-2 11-6.6 15.8-12 12-24.6 23.2-38.6 32.8-25.8 17.6-54 29.6-84.2 37.6-13.2 3.4-26.8 5.6-40.4 5.8-3.4 0-6.8 0.6-10.2 0.2-5.6-0.8-11.2-2.2-16.6-3.4-9-2.2-18-4.6-27.2-7 0 129.4 0 258.6 0 388.2-44.2 0-88.4 0-132.8 0 0-3.6 0-7.2 0-10.6 0-171.8 0-343.6 0-515.4 0-24.6 3-48.8 11.8-72 7.4-19.6 17.2-37.8 30.2-54.4 10.2-13 22-24.8 35.4-34.8 13-9.8 27-18 42.4-23.6 13.8-5.2 28-9 42.8-10 9.6-0.6 19.2-0.6 28.6-0.2 11.4 0.6 23 1.4 34.2 3.2 20.4 3.2 40 9.2 58.8 17.6 14.4 6.4 28.2 14 41 23 10.8 7.6 20 17 29.6 26.2 1 1 1.6 2.8 1.6 4.2 0 58.6-0.2 117.8 0.2 176.8zM810.4 255.6c0.6-4.6 0.8-9.2 1.4-15.2-0.8-5-1.2-11.6-2.8-18-3.4-12.8-12-21.6-23.6-27.2-7.6-3.8-15.6-5.4-24-6.6-12.4-1.8-24.4 0-35.8 5.2-12.8 5.8-20.6 16-24.6 29.2-1.4 4.4-3 8.8-3.4 13.2-0.6 4.6-0.2 9.4 0.4 14 2 13 6.4 25.2 16 34.8 14.8 14.6 32.4 20 52.8 15.2 9-2.2 17.2-5.6 24.6-11.2 11-8.4 17.4-19.6 19-33.4zM793.4 222.4c2.6 5.4 5.2 10.8 4.6 17.2-0.2 1.2 0 2.4 0 3.6 0 3 0 6 0 9 0 0.6-0.2 1.2-0.4 1.8-0.4 1.4-1 2.8-1.6 4.2-0.2 0.6-0.2 1.2-0.6 1.8-1.2 2-2.2 4-3.6 6-7.2 11.2-17 18.6-30.2 20.2-5.8 0.8-11.8 0.4-17.6-0.6-9.6-1.8-17-8-23.2-15.4-4.6-5.6-7.6-12.2-8.6-19.2-1-6.6-1.2-13.4 1.2-20.2 5.2-14.6 14.4-24.6 29.6-28.8 1.6-0.4 3.2-1.8 4.8-1.8 6.2 0.4 12.6-1.4 18.8 1.4 4 1.8 8.4 2.4 12 5.2 6 4.2 11.4 8.8 14.8 15.6zM476 300.2c0.6-4.6 0.8-9.2 1.4-15.2-0.8-5-1.2-11.6-2.8-18-3.4-12.8-12-21.6-23.6-27.2-7.6-3.8-15.6-5.4-24-6.6-12.4-1.8-24.4 0-35.8 5.2-12.8 5.8-20.6 16-24.6 29.2-1.4 4.4-3 8.8-3.4 13.2-0.6 4.6-0.2 9.4 0.4 14 2 13 6.4 25.2 16 34.8 14.8 14.6 32.4 20 52.8 15.2 9-2.2 17.2-5.6 24.6-11.2 11-8.6 17.4-19.6 19-33.4zM459 267c2.6 5.4 5.2 10.8 4.6 17.2-0.2 1.2 0 2.4 0 3.6 0 3 0 6 0 9 0 0.6-0.2 1.2-0.4 1.8-0.4 1.4-1 2.8-1.6 4.2-0.2 0.6-0.2 1.2-0.6 1.8-1.2 2-2.2 4-3.6 6-7.2 11.2-17 18.6-30.2 20.2-5.8 0.6-11.8 0.4-17.6-0.8-9.6-1.8-17-8-23.2-15.4-4.6-5.6-7.6-12.2-8.6-19.2-1-6.6-1.2-13.4 1.2-20.2 5.2-14.6 14.4-24.6 29.6-28.8 1.6-0.4 3.2-1.8 4.6-1.8 6.2 0.4 12.6-1.4 18.8 1.4 4 1.8 8.4 2.4 12 5.2 6.2 4.4 11.6 9 15 15.8z" />
<glyph unicode="&#xe910;" glyph-name="youtubemusic" d="M512 960c-282.624 0-512-229.376-512-512s229.376-512 512-512 512 229.376 512 512-229.376 512-512 512zM512 144.896c-167.424 0-303.104 135.68-303.104 303.104s135.68 303.104 303.104 303.104 303.104-135.68 303.104-303.104-135.68-303.104-303.104-303.104zM512 713.728c-146.432 0-265.728-119.296-265.728-265.728s119.296-265.728 265.728-265.728 265.728 119.296 265.728 265.728-119.296 265.728-265.728 265.728zM413.184 296.96v302.080l261.632-151.040-261.632-151.040z" />
<glyph unicode="&#xe911;" d="M1024 192c0-62.834-50.944-113.778-113.778-113.778h-227.556v739.556h227.556c62.834 0 113.778-50.944 113.778-113.778v-512z" />
<glyph unicode="&#xe912;" glyph-name="play" d="M981.188 799.892c-143.632 20.65-302.332 32.108-469.186 32.108-166.86 0-325.556-11.458-469.194-32.108-27.53-107.726-42.808-226.75-42.808-351.892 0-125.14 15.278-244.166 42.808-351.89 143.638-20.652 302.336-32.11 469.194-32.11 166.854 0 325.552 11.458 469.186 32.11 27.532 107.724 42.812 226.75 42.812 351.89 0 125.142-15.28 244.166-42.812 351.892zM384.002 256v384l320-192-320-192z" />
<glyph unicode="&#xe913;" d="M113.778 817.778c-62.834 0-113.778-50.944-113.778-113.778v-512c0-62.834 50.944-113.778 113.778-113.778h227.556v739.556h-227.556z" />
<glyph unicode="&#xe914;" d="M341.333 817.778h341.333v-739.556h-341.333z" />
<glyph unicode="&#xe915;" d="M113.778 817.778c-62.834 0-113.778-50.944-113.778-113.778v-512c0-62.834 50.944-113.778 113.778-113.778h170.667v739.556h-170.667zM910.222 817.778h-170.667v-739.556h170.667c62.834 0 113.778 50.944 113.778 113.778v512c0 62.834-50.944 113.778-113.778 113.778z" />
<glyph unicode="&#xe916;" d="M284.444 817.778h455.111v-739.556h-455.111z" />
<glyph unicode="&#xe917;" d="M529.493 331.008c34.076-3.954 64.626-7.509 98.674-11.406l-8.676 28.501c-1.394 5.006 0.597 10.468 4.523 13.54l98.958 80.612-20.48 9.643c-9.017 3.214-6.542 8.306-3.271 20.537l15.104 55.068-57.486-12.146c-5.604-0.853-9.33 2.702-10.183 6.116l-7.424 25.913-45.454-51.029c-6.457-8.192-19.541-8.192-15.474 10.695l19.428 103.367-26.084-13.511c-7.31-4.096-14.62-4.779-18.688 2.532l-35.982 67.3-35.982-67.3c-4.096-7.31-11.406-6.628-18.716-2.532l-26.055 13.511 19.428-103.367c4.096-18.887-9.017-18.887-15.474-10.695l-45.454 51.001-7.396-25.913c-0.853-3.413-4.608-6.969-10.212-6.116l-57.486 12.146 15.104-55.068c3.214-12.231 5.717-17.323-3.3-20.537l-20.48-9.643 98.958-80.612c3.925-3.044 5.916-8.533 4.494-13.54l-8.676-28.501 98.702 11.406c3.015 0 5.006-1.678 4.978-5.148l-6.087-105.358h27.193l-6.059 105.358c0.057 3.499 2.020 5.177 5.035 5.177z" />
<glyph unicode="&#xe918;" d="M1008.213 760.889c-19.712 33.877-55.979 56.889-97.991 56.889h-398.222v-56.889h496.213zM0 248.889h1024v-56.889h-1024zM512 476.444h512v-56.889h-512zM512 590.222h512v-56.889h-512zM0 362.667h1024v-56.889h-1024zM113.778 78.222h796.444c42.012 0 78.279 23.012 97.991 56.889h-992.427c19.712-33.877 55.979-56.889 97.991-56.889zM512 704h512v-56.889h-512z" />
<glyph unicode="&#xe919;" d="M1.934 172.686c0.484-2.645 1.024-5.291 1.678-7.879 0.74-2.873 1.65-5.632 2.617-8.42 2.532-7.367 5.604-14.478 9.472-21.134l0.085-0.142 992.484 0.114c3.84 6.628 6.912 13.739 9.444 21.077 0.967 2.816 1.906 5.632 2.645 8.562 0.654 2.56 1.195 5.177 1.678 7.822 1.166 6.258 1.963 12.686 1.963 19.314h-1024c0-6.628 0.796-13.028 1.934-19.314zM0 305.778h1024v-56.889h-1024zM0 419.556v-56.889h1024v56.889h-512zM512 533.333h512v-56.889h-512zM512 647.111h512v-56.889h-512zM0 704c0 6.628 0.853 12.999 1.934 19.314-1.138-6.286-1.934-12.686-1.934-19.314zM15.787 760.889v0zM3.641 731.193c0.711 2.901 1.707 5.66 2.617 8.448-0.967-2.788-1.877-5.575-2.617-8.448zM512 704h512c0 6.628-0.796 13.056-1.963 19.342-0.484 2.617-0.996 5.234-1.678 7.794-0.768 2.93-1.678 5.774-2.674 8.59-2.532 7.339-5.604 14.421-9.444 21.049 0.028 0.028 0 0.085-0.028 0.114h-496.213v-56.889z" />
<glyph unicode="&#xe91a;" d="M512 817.778h-398.222c-62.834 0-113.778-50.944-113.778-113.778v-284.444h512v398.222z" />
<glyph unicode="&#xe91b;" d="M56.917 740.238l17.579-12.772-6.713-20.622 17.55 12.743 17.579-12.743-6.713 20.622 17.579 12.772h-21.732l-6.713 20.651-6.684-20.651zM113.806 683.349l17.579-12.772-6.713-20.622 17.55 12.743 17.579-12.743-6.713 20.622 17.579 12.772h-21.732l-6.713 20.651-6.684-20.651zM227.584 683.349l17.579-12.772-6.713-20.622 17.55 12.743 17.579-12.743-6.713 20.622 17.579 12.772h-21.732l-6.713 20.651-6.684-20.651zM341.362 683.349l17.579-12.772-6.713-20.622 17.55 12.743 17.579-12.743-6.713 20.622 17.579 12.772h-21.732l-6.713 20.651-6.684-20.651zM113.806 569.572l17.579-12.772-6.713-20.622 17.55 12.743 17.579-12.743-6.713 20.622 17.579 12.772h-21.732l-6.713 20.651-6.684-20.651zM227.584 569.572l17.579-12.772-6.713-20.622 17.55 12.743 17.579-12.743-6.713 20.622 17.579 12.772h-21.732l-6.713 20.651-6.684-20.651zM341.362 569.572l17.579-12.772-6.713-20.622 17.55 12.743 17.579-12.743-6.713 20.622 17.579 12.772h-21.732l-6.713 20.651-6.684-20.651zM170.695 740.238l17.579-12.772-6.713-20.622 17.55 12.743 17.579-12.743-6.713 20.622 17.579 12.772h-21.732l-6.713 20.651-6.684-20.651zM284.473 740.238l17.579-12.772-6.713-20.622 17.55 12.743 17.579-12.743-6.713 20.622 17.579 12.772h-21.732l-6.713 20.651-6.684-20.651zM398.251 740.238l17.579-12.772-6.713-20.622 17.55 12.743 17.579-12.743-6.713 20.622 17.579 12.772h-21.732l-6.713 20.651-6.684-20.651zM56.917 626.46l17.579-12.772-6.713-20.622 17.55 12.743 17.579-12.743-6.713 20.622 17.579 12.772h-21.732l-6.713 20.651-6.684-20.651zM181.561 593.067l17.55 12.743 17.579-12.743-6.713 20.622 17.579 12.772h-21.732l-6.713 20.651-6.684-20.651h-21.732l17.579-12.772zM284.473 626.46l17.579-12.772-6.713-20.622 17.55 12.743 17.579-12.743-6.713 20.622 17.579 12.772h-21.732l-6.713 20.651-6.684-20.651zM398.251 626.46l17.579-12.772-6.713-20.622 17.55 12.743 17.579-12.743-6.713 20.622 17.579 12.772h-21.732l-6.713 20.651-6.684-20.651zM56.917 512.683l17.579-12.772-6.713-20.622 17.55 12.743 17.579-12.743-6.713 20.622 17.579 12.772h-21.732l-6.713 20.651-6.684-20.651zM181.561 479.289l17.55 12.743 17.579-12.743-6.713 20.622 17.579 12.772h-21.732l-6.713 20.651-6.684-20.651h-21.732l17.579-12.772zM284.473 512.683l17.579-12.772-6.713-20.622 17.55 12.743 17.579-12.743-6.713 20.622 17.579 12.772h-21.732l-6.713 20.651-6.684-20.651zM398.251 512.683l17.579-12.772-6.713-20.622 17.55 12.743 17.579-12.743-6.713 20.622 17.579 12.772h-21.732l-6.713 20.651-6.684-20.651z" />
<glyph unicode="&#xe91c;" glyph-name="hyperpipesvg" d="M326.208 121.792c2.722 100.526 84.862 180.979 185.792 180.979s183.070-80.453 185.787-180.728l0.005-0.251c-0.073-102.581-83.211-185.719-185.785-185.792h-0.007c-102.581 0.073-185.719 83.211-185.792 185.785v0.007zM140.416 216.448c-36.843-16.326-62.080-52.575-62.080-94.717 0-57.049 46.247-103.296 103.296-103.296s103.296 46.247 103.296 103.296c0 0.021 0 0.043 0 0.064v-0.003c0 42.304-25.536 78.72-61.952 94.656v311.68l198.208-132.16v275.84l91.648 139.52 89.984-133.76v-281.6l198.208 132.16v-311.68c-36.843-16.326-62.080-52.575-62.080-94.717 0-57.049 46.247-103.296 103.296-103.296s103.296 46.247 103.296 103.296c0 0.021 0 0.043 0 0.064v-0.003c0 42.304-25.472 78.72-61.952 94.656v465.28l-198.144-132.16v153.6l-174.272 256.832-172.608-263.424v-147.008l-198.144 132.16v-465.28z" />
<glyph unicode="&#xe91d;" glyph-name="teddit" d="M513.979 64.090c-84.488 0-168.974 0-253.462 0-16.32 0-33.604 3.84-48.964 8.64-16.32 5.76-22.080 20.16-24 34.564-1.92 10.56-1.92 22.080-3.84 32.644-1.92 17.28-9.6 26.882-27.844 31.684-8.64 1.92-17.28 3.84-25.922 6.72-19.2 4.8-34.564 24-35.524 48.964-0.96 37.444 0 74.886 1.92 112.33 0.96 19.2 13.44 28.804 31.684 33.604 14.4 3.84 28.804 7.68 43.204 11.52 10.56 1.92 17.28 7.68 16.32 21.12-10.56 108.49 84.488 191.058 170.894 211.218 33.604 7.68 67.206 13.44 100.808 19.2 13.44 1.92 18.24 9.6 18.24 21.12 0 21.12 1.92 40.324-16.32 58.564-25.922 26.882-19.2 74.886 10.56 99.848 28.804 24 72.966 21.12 98.888-8.64 24.96-27.844 23.040-72.006-3.84-97.928-4.8-3.84-6.72-11.52-8.64-17.28-0.96-8.64-0.96-17.28-0.96-25.922 1.92-27.844 2.88-27.844 31.684-32.644 63.364-9.6 123.85-26.882 177.614-63.364 45.124-29.764 66.246-74.886 76.806-125.77 2.88-15.36 4.8-31.684 5.76-47.044 0-9.6 3.84-15.36 12.48-18.24 6.72-2.88 14.4-4.8 21.12-6.72 25.922-6.72 43.204-26.882 45.124-52.804 0.96-27.844 2.88-55.684 1.92-83.528-0.96-48.004-13.44-52.804-52.804-64.324-16.32-4.8-24.96-11.52-25.922-28.804-0.96-15.36-3.84-31.684-8.64-47.044-4.8-16.32-19.2-24-35.524-26.882-23.040-2.88-46.084-4.8-68.166-4.8-74.886 0-149.774 0-224.658 0 0 0 0 0 0 0zM581.185 315.632c0-61.444 44.164-107.53 105.608-108.49 64.324 0 113.29 47.044 113.29 108.49 0 58.564-48.004 104.648-107.53 104.648-63.364 0.96-111.37-45.124-111.37-104.648zM338.285 420.28c-61.444 0-108.49-45.124-108.49-105.608 0-61.444 46.084-107.53 106.57-107.53 62.404 0 109.45 45.124 109.45 106.57 0 60.484-46.084 106.57-107.53 106.57z" />
<glyph unicode="&#xe91e;" glyph-name="libreddit" d="M413.712 832.313c0-200.414 0-400.826 0-601.24 121.324 0 241.878 0 363.97 0 0-56.054 0-111.34 0-167.396-176.61 0-353.22 0-531.364 0 0 255.7 0 512.168 0 768.636 55.286 0 110.572 0 167.396 0zM641.77 665.685c0-125.93 0-249.556 0-373.952-56.054 0-111.34 0-167.396 0 0 179.68 0 359.362 0 540.578 100.59 0 201.182 0 302.54 0 0-55.286 0-109.806 0-166.628-43.768 0-89.072 0-135.144 0z" />
<glyph unicode="&#xe91f;" glyph-name="safetwitch" d="M0 30v838c0.8 2.2 2 4.2 2.4 6.4 7 41.2 38.8 74.4 79.2 82.6 4.8 1 9.6 2 14.4 3 277.4 0 554.6 0 832 0 2.8-0.8 5.6-2 8.6-2.4 39.4-5.2 73.2-35.6 82.8-74.4 1.8-7 3-14 4.6-21.2v-832c-0.8-2.2-2-4.2-2.4-6.4-6.4-41.6-35.6-73.4-76.6-83.6-5.8-1.4-11.4-2.8-17.2-4h-831.8c-2.2 0.8-4.2 1.8-6.4 2.2-43.4 6-75.6 35.2-86 77.6-1.2 4.6-2.4 9.4-3.6 14.2zM144.8 342.8c-18.4-21.2-36.4-41.6-53.8-62.4-1.2-1.6-0.4-6.4 1-8.4 27-37.8 61-66.8 104.8-83 48.8-18.2 99-20 149.4-10.6 46.4 8.6 86.8 29.4 112.6 70.6 38.4 60.8 41.8 148.2-40.8 199.2-32.2 19.8-67.2 31.8-103.6 40.4-27.4 6.6-55.4 12-80.2 26.2-23.8 13.6-36.2 34-35.4 61.4s15.6 46.2 39.6 57.8c47.6 23 121.2 18 167.2-42.8 5.2-6.8 10.2-13.8 16-21.8 17.8 17.6 34.8 34.8 52.4 51.6 5.4 5 4.8 8.8 1.2 14.4-15.2 23.4-34.2 43-58.4 56.4-62.6 35-128.4 39.2-195.6 16.8-43.4-14.4-76.8-41.6-95.4-84-25-57.4-12.6-147.4 71.2-188.8 31.6-15.6 65.6-23.2 99.8-30.6 27.8-6 54.6-14.8 77.4-32.6 31.2-24.2 40.6-79-6.8-106.4-31.8-18.4-66-20.6-101.4-15-39.4 6.4-69 28.2-94 57.8-9.2 11-17.6 22-27.2 33.8v0zM936.4 714.6c-4.6 0-8.4 0-12.4 0-63.6 0-127.2 0-190.8 0-57.2 0-114.6-0.2-172 0.2-7.8 0-10.4-2.2-10.2-10.2 0.4-20.4 0.2-40.6 0.2-61 0-3.2 0.4-6.4 0.8-10.4h147.6c0-5.2 0-9.6 0-13.8 0-142.2 0-284.6-0.2-426.8 0-9.6 2.8-12.8 12.4-12.4 19.2 0.6 38.6 0.2 58 0.2 9.8 0 14.6 5 14.6 15 0 141.2 0 282.6 0 423.8 0 4.6 0.4 9 0.6 14.4 5 0 9 0 12.8 0 43.4 0 86.6 0.2 130-0.2 7.4 0 10 2.4 10 9.6-0.2 20.6 0 41.4-0.2 62-0.2 2.8-0.8 5.6-1.2 9.6v0z" />
<glyph unicode="&#xe920;" glyph-name="simplytranslate" d="M512.882 788.879c-0.006 0-0.014 0-0.021 0-3.112 0-5.759-1.991-6.736-4.769l-0.015-0.051-60.045-177.831c-0.244-0.689-0.384-1.483-0.384-2.311 0-3.126 2.009-5.782 4.806-6.749l0.051-0.015c0.689-0.244 1.483-0.384 2.309-0.384 3.126 0 5.782 2.009 6.749 4.806l0.015 0.051 53.097 157.426 51.144-157.339c0.967-2.874 3.637-4.908 6.782-4.908 0.789 0 1.547 0.128 2.256 0.364l-0.051-0.015c2.895 0.954 4.948 3.634 4.948 6.794 0 0.784-0.126 1.538-0.36 2.244l0.014-0.051-57.787 177.831c-0.966 2.871-3.632 4.902-6.773 4.906v0zM472.853 671.092c-0.008 0-0.016 0-0.025 0-3.943 0-7.138-3.196-7.138-7.138 0-0.009 0-0.018 0-0.027v0.001c0.010-3.935 3.203-7.121 7.138-7.121 0.009 0 0.018 0 0.027 0h77.8c3.929 0.010 7.109 3.192 7.121 7.119v0.001c0 0.008 0 0.016 0 0.025 0 3.936-3.185 7.128-7.119 7.138h-0.001zM424.107 287.59c-0.008 0-0.016 0-0.025 0-3.936 0-7.128-3.185-7.138-7.119v-0.001c0-0.008 0-0.016 0-0.025 0-3.943 3.196-7.138 7.138-7.138 0.009 0 0.018 0 0.027 0h175.572c0.008 0 0.016 0 0.025 0 3.943 0 7.138 3.196 7.138 7.138 0 0.009 0 0.018 0 0.027v-0.001c-0.010 3.935-3.203 7.121-7.138 7.121-0.009 0-0.018 0-0.027 0h0.001zM567.727 287.459c-0.412 0.085-0.886 0.133-1.372 0.133-3.461 0-6.347-2.462-7-5.731l-0.008-0.046c0 0-19.578-99.075-109.798-148.481-2.221-1.239-3.699-3.575-3.699-6.255 0-1.256 0.325-2.437 0.895-3.464l-0.019 0.037c1.239-2.221 3.575-3.699 6.255-3.699 1.256 0 2.437 0.325 3.464 0.895l-0.037-0.019c96.502 52.846 116.962 158.25 116.962 158.25 0.085 0.412 0.133 0.886 0.133 1.372 0 3.461-2.462 6.347-5.731 7l-0.046 0.008zM464.484 251.772c-3.064-0.848-5.276-3.611-5.276-6.892 0-0.652 0.087-1.284 0.252-1.885l-0.011 0.051c5.32-19.953 25.676-46.453 47.671-70.985 10.997-12.267 22.414-23.737 32.605-32.823s18.648-15.768 26.223-18.799c0.776-0.315 1.675-0.497 2.618-0.497 2.99 0 5.549 1.837 6.612 4.443l0.018 0.048c0.327 0.79 0.518 1.708 0.518 2.67 0 2.981-1.827 5.534-4.422 6.603l-0.048 0.018c-3.538 1.416-12.335 7.522-22.011 16.151s-20.8 19.785-31.477 31.694c-21.351 23.815-40.974 51.778-44.545 65.167-0.848 3.064-3.611 5.276-6.892 5.276-0.652 0-1.284-0.087-1.885-0.252l0.051 0.011zM510.765 312.033c-3.929-0.010-7.109-3.192-7.121-7.119v-22.23c0.010-3.929 3.192-7.109 7.119-7.121h0.001c0.008 0 0.016 0 0.025 0 3.936 0 7.128 3.185 7.138 7.119v22.23c-0.010 3.935-3.203 7.121-7.138 7.121-0.009 0-0.018 0-0.027 0h0.001zM833.629 662.824h-138.44l69.219-69.219 34.61 34.61zM321.404 233.662h-138.44l69.219 69.219 34.61-34.61zM729.799 199.052c0 55.375-17.305 96.907-48.454 131.518-31.149 31.149-89.985 62.297-176.51 89.985s-148.823 62.297-186.893 96.907c-51.915 44.993-79.602 107.29-79.602 183.432s24.227 134.979 76.141 183.432c51.915 48.454 117.673 72.68 200.737 72.68s152.284-27.688 204.198-83.063c51.915-55.375 79.602-124.596 79.602-211.12h-76.141c0 65.758-17.305 121.135-55.375 159.206-38.071 41.532-86.524 62.297-152.284 62.297-62.297 0-110.751-17.305-148.823-51.915-34.61-34.61-51.915-76.141-51.915-131.518 0-48.454 17.305-89.985 51.915-121.135s86.524-58.836 162.666-83.063c72.68-24.227 131.518-48.454 166.127-76.141 38.071-27.688 65.758-55.375 83.063-93.446 17.305-34.61 27.688-76.141 27.688-124.596 0-76.141-27.688-138.44-79.602-186.893s-121.135-69.219-207.659-69.219c-58.836 0-110.751 10.383-159.206 34.61s-83.063 58.836-110.751 100.368c-27.688 44.993-41.532 96.907-41.532 159.206h76.141c0-69.219 20.766-124.596 62.297-162.666s96.907-58.836 169.588-58.836c62.297 0 110.751 17.305 148.823 48.454 48.454 31.149 65.758 76.141 65.758 131.518zM515.206 963.672c-84.363 0-152.133-24.877-205.292-74.492-53.129-49.587-78.278-110.7-78.278-188.258 0-77.69 28.555-142.181 81.793-188.393 0.020-0.018 0.048-0.048 0.070-0.070 0.024-0.021 0.042-0.046 0.070-0.070 39.123-35.522 102.117-70.351 189.205-98.219 85.845-27.471 143.868-58.506 173.658-88.214 30.129-33.524 46.71-72.958 46.71-126.88 0-53.985-16.13-95.976-62.731-125.934-0.229-0.158-0.427-0.313-0.616-0.479l0.008 0.006c-36.859-30.158-83.53-46.912-144.591-46.912-71.409 0-124.829 20.162-165.072 57.053-36.974 33.893-55.069 83.435-57.863 144.185h29.132c3.672 0.023 6.641 3.005 6.641 6.681 0 1.822-0.729 3.472-1.91 4.677l-69.218 69.218c-1.21 1.214-2.883 1.964-4.731 1.964s-3.522-0.751-4.731-1.964v0l-69.219-69.219c-1.179-1.203-1.906-2.853-1.906-4.673 0-3.675 2.967-6.657 6.636-6.681h19.2c2.020-56.984 14.721-106.586 40.896-149.12 0.059-0.094 0.104-0.161 0.149-0.226l-0.014 0.021c28.163-42.244 63.702-77.817 113.293-102.612 49.478-24.739 102.544-35.353 162.166-35.353 87.594 0 158.872 21.22 212.255 71.045 53.136 49.595 81.725 114.013 81.725 191.773 0 49.328-10.593 91.822-28.323 127.354v0.070c-17.88 39.305-46.554 67.887-84.969 95.853l-0.070 0.070c-36.012 28.787-95.226 52.899-168.112 77.194-0.010 0-0.023 0-0.034 0s-0.024 0-0.037 0h0.001c-75.576 24.046-126.602 51.414-160.206 81.658-33.239 29.914-49.751 69.337-49.751 116.2 0 53.924 16.454 93.127 49.887 126.609 36.786 33.389 83.187 50.090 144.185 50.090 64.353 0 110.449-19.826 147.363-60.094 0.067-0.071 0.134-0.137 0.202-0.202l0.003-0.003c35.104-35.104 51.143-86.539 52.388-147.835h-19.941c-3.672-0.023-6.641-3.005-6.641-6.681 0-1.822 0.729-3.472 1.91-4.677l69.218-69.218c1.206-1.193 2.866-1.931 4.699-1.931s3.491 0.737 4.699 1.931v0l69.219 69.219c1.182 1.205 1.911 2.856 1.911 4.678 0 3.653-2.931 6.62-6.571 6.679h-29.139c-1.541 84.583-28.716 154.053-80.238 209.011-53.181 56.726-124.531 85.173-209.078 85.173zM515.206 950.355c81.579 0 148.696-26.956 199.345-80.981 49.345-52.636 75.134-118.269 76.656-199.885h-62.662c-1.241 63.761-18.109 118.895-56.241 157.096-39.215 42.719-89.992 64.421-157.096 64.421-63.535 0-113.972-17.911-153.31-53.672-0.071-0.067-0.137-0.134-0.202-0.202l-0.003-0.003c-35.712-35.712-53.875-79.442-53.875-136.209 0-50.045 18.096-93.754 54.078-126.136 35.605-32.044 88.403-60.027 165.072-84.428 72.439-24.146 130.849-48.464 164.059-75.033 0.067-0.071 0.134-0.137 0.202-0.202l0.003-0.003c37.604-27.348 64.215-54.045 80.914-90.783 0.059-0.094 0.104-0.161 0.149-0.226l-0.014 0.021c16.827-33.653 26.971-74.109 26.971-121.607 0-74.522-26.773-134.726-77.466-182.040-50.445-47.083-117.675-67.395-203.13-67.395-58.051 0-108.788 10.152-156.218 33.866-47.237 23.618-80.832 57.222-108.021 97.949l-0.070 0.070c-24.802 40.334-36.867 87.259-38.869 142.022h63.475c2.828-63.787 22.164-117.297 62.19-153.986 42.82-39.252 100.111-60.635 174.064-60.635 63.372 0 113.465 17.835 152.702 49.82 50.034 32.337 68.544 80.253 68.544 136.885 0 56.767-18.053 100.267-50.157 135.938-0.078 0.109-0.145 0.197-0.215 0.283l0.010-0.013c-32.547 32.551-92.127 63.801-179.2 91.665-85.872 27.48-147.446 61.786-184.473 95.447-0.040 0.082-0.063 0.126-0.087 0.171l0.018-0.035c-50.497 43.763-77.331 103.867-77.331 178.389 0 74.724 23.318 131.204 74.019 178.525 50.67 47.291 114.403 70.909 196.167 70.909zM711.238 656.172h106.331l-53.131-53.131-29.946 29.878zM252.184 293.445l53.131-53.131h-15.209c0 0.104-0.070 0.166-0.070 0.271 0 0.004 0 0.008 0 0.013 0 3.69-2.991 6.681-6.681 6.681-0.004 0-0.008 0-0.010 0v0h-76.182c-3.666-0.032-6.625-3.010-6.625-6.681 0-0.004 0-0.009 0-0.013v0.001c0-0.097 0-0.173 0-0.271h-1.488l23.254 23.254z" />
<glyph unicode="&#xe921;" glyph-name="translate" d="M379.392 499.2l114.688-114.688-42.496-102.4-144.384 145.408-168.96-168.96-71.68 72.704 167.936 167.936-45.056 45.056c-27.136 27.136-51.2 66.56-66.56 108.544h112.64c7.68-14.336 16.896-27.136 26.112-35.84l45.568-46.080 45.056 45.056c30.72 31.744 57.344 96.256 57.344 139.264h-409.6v102.4h256v102.4h102.4v-102.4h256v-102.4h-102.4c0-70.144-37.888-161.28-87.040-210.944l-46.080-45.056zM576 89.6l-64-153.6h-102.4l256 614.4h102.4l256-614.4h-102.4l-64 153.6h-281.6zM618.496 192h196.608l-98.304 235.52-98.304-235.52z" />
<glyph unicode="&#xe922;" glyph-name="get" d="M99.096 860.895v-33.031h-99.095v-33.031h33.031v-198.189h33.031v-33.031h165.158v33.031h33.031v33.031h33.031v99.095h-33.031v66.063h-66.063v33.031h-33.031v33.031zM132.128 728.768h66.063v-66.063h-66.063zM462.444 794.832v-33.031h-33.031v-33.031h-33.031v-66.063h-33.031v-66.063h-33.031v-66.063h-33.031v-33.031h-33.031v-33.031h-33.031v-33.031h-33.031v-33.031h-66.063v-99.095h99.095v-66.063h99.095v-99.095h33.031v-66.063h33.031v-33.031h33.031v33.031h33.031v66.063h33.031v66.063h132.126v66.063h132.126v99.095h-66.063v33.031h-33.031v66.063h-33.031v165.158h-33.031v99.095h-33.031v66.063zM825.792 728.768v-33.031h-66.063v-33.031h-33.031v-33.031h-33.031v-99.095h33.031v-33.031h33.031v-33.031h66.063v-33.031h99.095v33.031h33.031v99.095h33.031v66.063h33.031v66.063h-99.095v33.031zM825.792 629.674h66.063v-66.063h-66.063z" />
<glyph unicode="&#xe923;" glyph-name="mozhi" d="M582.405 245.073c-4.842 2.086-7.598 3.613-10.577 4.544-42.195 13.519-62.046 43.76-63.089 86.663-0.335 13.221-4.842 16.052-17.057 16.015-86.402-0.447-172.804-0.559-259.206 0-17.951 0.112-36.311 1.825-53.741 5.847-35.417 8.156-54.709 34.337-55.231 73.888-0.745 55.268-0.521 110.572-0.559 165.84-0.074 96.607-0.037 193.25 0 289.856 0 31.395 7.039 40.333 36.683 50.687 14.525 5.065 28.416 11.881 44.020 18.547v-14.562c0-152.358-0.074-304.754 0.112-457.111 0-16.238 0.968-32.512 2.197-48.676 1.639-21.823 11.061-30.24 33.332-30.278 83.162-0.074 166.324 0.298 249.449-0.372 14.115-0.112 18.212 3.799 18.137 17.914-0.521 111.503-0.745 222.97 0.037 334.473 0.223 28.602 1.75 57.763 7.411 85.694 13.519 66.775 54.56 104.763 122.154 113.291 46.367 5.847 92.696 2.384 137.35-13.184 69.866-24.319 106.587-77.278 120.032-146.66 19.664-101.486 17.43-202.002-23.388-299.13-0.521-1.266-0.968-2.607-1.229-3.985-0.149-0.857 0.112-1.788 0.372-4.357 7.56 0 15.456 1.043 22.904-0.447 3.836-0.782 9.311-5.661 9.758-9.274 3.091-23.797 2.458-25.324-19.478-34.412-10.726-4.432-13.929-10.726-13.78-22.047 0.633-47.856 0.782-95.713-0.074-143.532-0.261-13.259 3.948-20.335 16.052-24.952 7.523-2.868 17.206-4.022 17.951-16.35 1.564-26.926 2.086-26.889-25.324-26.889-53.406 0-106.848-0.708-160.253 0.186-42.158 0.67-75.825-15.419-101.932-47.707-15.754-19.478-30.836-39.551-45.398-59.96-44.765-62.567-103.124-103.385-180.476-114.073-55.826-7.709-111.242-8.305-164.015 15.27-58.955 26.33-95.191 71.579-105.991 135.301-4.693 27.782 2.048 54.821 19.366 77.65 23.611 31.134 82.752 28.639 99.698-4.842-3.65-2.309-7.3-4.879-11.21-7.039-33.779-18.51-40.557-34.076-31.209-71.952 12.551-50.836 56.869-89.94 110.721-93.143 28.378-1.676 57.577 0.41 85.62 5.214 41.004 7.039 71.766 31.581 93.255 66.961 10.577 17.43 19.813 35.678 29.16 53.815 15.866 30.799 32.736 60.668 67.483 77.24zM588.253 606.098c0-61.264 0.372-122.564-0.298-183.828-0.149-13.147 4.022-16.61 16.648-16.238 28.304 0.857 56.646 1.080 84.95 0 25.548-0.968 46.106 8.566 63.647 25.92 27.633 27.298 44.542 61.189 58.88 96.718 22.308 55.305 24.356 112.918 18.733 171.091-4.060 42.009-11.21 83.497-29.756 122.192-23.499 49.011-61.040 77.873-115.786 84.093-46.478 5.289-78.32-14.45-89.344-59.774-4.991-20.484-6.964-42.121-7.3-63.274-0.968-58.955-0.335-117.909-0.335-176.864zM806.865 409.683c-33.071-28.118-67.036-47.745-106.401-53.331-30.576-4.32-61.934-3.277-92.957-4.208-18.026-0.521-20.111-2.83-15.828-20.484 8.491-35.231 34.3-52.4 67.073-55.677 46.032-4.581 92.51-4.618 138.802-5.922 3.017-0.074 8.864 5.512 8.938 8.529 0.596 42.605 0.41 85.21 0.41 131.056zM435.783 612.281c-16.685-50.612-34.3-102.826-50.836-155.412-3.799-12.067-9.795-15.791-21.861-15.456-37.503 1.006-29.198-3.613-39.328 28.751-14.637 46.851-29.049 93.776-45.696 140.478 0.819-14.301 2.16-28.602 2.346-42.94 0.447-37.168 0.074-74.298 0.633-111.466 0.149-10.875-3.799-14.897-14.562-14.748-40.184 0.447-33.555-3.203-33.779 32.959-0.335 61.785-0.112 123.532-0.074 185.318 0 18.733 0.298 18.957 18.398 19.068 12.551 0.074 25.101-0.521 37.615 0.186 10.577 0.596 15.568-3.389 18.696-13.78 14.897-49.719 30.576-99.176 46.032-148.708 1.043-3.315 2.421-6.555 4.73-12.737 13.482 41.004 26.032 79.14 38.546 117.276 5.065 15.419 10.465 30.725 14.972 46.292 2.495 8.678 7.3 11.881 16.089 11.62 15.307-0.447 30.65-0.298 45.994-0.074 8.231 0.112 11.359-3.203 11.322-11.62-0.223-71.542-0.223-143.048 0-214.59 0-7.747-2.979-10.391-10.503-11.061-38.695-3.501-38.695-3.65-38.695 34.747 0 45.92 0 91.877 0 135.897zM830.439 52.827c0-34.374-0.298-68.749 0.186-103.087 0.149-10.428-3.65-13.445-13.78-13.594-38.397-0.559-38.397-0.857-38.397 37.503 0 17.169-0.298 34.374 0.112 51.543 0.223 8.268-2.384 11.657-11.098 11.471-21.823-0.447-43.648-0.559-65.471 0-9.795 0.261-11.62-4.246-11.545-12.588 0.298-24.617-0.186-49.234 0.186-73.851 0.149-9.832-2.905-14.786-13.557-14.003-8.789 0.633-17.69 0.67-26.442 0-10.13-0.782-12.849 4.134-12.849 13.147 0.112 69.68 0.149 139.324-0.074 209.003 0 9.758 4.134 12.961 13.408 12.812 47.819-0.67 38.397 5.214 39.328-37.093 0.335-14.376 0.298-28.788 0-43.201-0.149-7.56 2.458-10.912 10.465-10.801 22.27 0.335 44.579 0.447 66.887-0.037 9.125-0.186 10.801 4.022 10.689 11.843-0.298 22.27 0.261 44.579-0.261 66.887-0.223 9.236 3.575 11.881 12.216 12.402 39.961 2.346 39.924 2.533 39.924-37.54 0-26.926 0-53.89 0-80.816zM319.29 124.929c37.875 0 71.728-0.559 105.544 0.298 13.11 0.335 17.988-3.166 17.653-16.908-0.708-26.442 0-26.479-26.591-26.479-46.404 0-92.845-0.223-139.249 0.223-8.156 0.074-22.606 1.713-23.313 4.953-2.607 12.030-4.953 25.175 4.395 37.019 27.559 35.008 54.411 70.574 81.486 105.916 9.571 12.476 19.106 24.989 30.24 39.551-5.959 0.521-9.72 1.155-13.519 1.155-29.719 0.074-59.402 0.261-89.121-0.074-8.752-0.112-12.588 2.458-12.402 11.806 0.633 37.205-4.022 31.32 30.427 31.618 43.164 0.335 86.328 0.298 129.491-0.112 7.747-0.074 22.010-2.421 22.121-4.357 0.67-11.918 2.011-26.628-3.985-35.603-19.553-29.272-42.195-56.46-63.647-84.428-15.717-20.521-31.469-41.041-49.458-64.503zM594.956 668.554c4.618 20.633 7.933 47.558 16.908 72.473 14.376 39.886 49.905 61.040 94.037 60.817 44.169-0.223 77.948-21.972 93.218-62.27 18.92-49.942 19.106-100.964 1.862-151.24-16.461-48.080-53.741-70.090-107.89-66.551-45.026 2.979-79.549 35.305-89.717 85.397-3.687 18.1-5.14 36.609-8.454 61.376zM762.211 661.068c-3.873 19.851-5.996 39.253-11.62 57.614-6.667 21.712-21.414 31.209-42.344 31.656-24.766 0.521-39.551-7.598-47.894-30.054-14.599-39.179-14.376-79.028 0.298-118.207 7.672-20.521 23.611-29.496 45.808-29.198 21.786 0.298 37.279 9.907 43.573 30.054 5.884 18.733 8.268 38.583 12.216 58.136z" />
<glyph unicode="&#xe924;" glyph-name="lingva" d="M616.366 959.968c-114.717 0-207.072-91.25-207.072-204.595v-198.131c0-43.037 13.323-82.881 36.121-115.762l29.927 49.937 12.413-63.271 60.586-14.906-45.543-27.283c32.57-21.069 71.565-33.311 113.565-33.311h85.934l79.455 76.666h0.336l75.404-72.756c95.146 18.546 166.474 101.077 166.474 200.685v198.131c0 113.346-92.355 204.595-207.072 204.595h-200.532zM573.342 838.505c21.575-18.076 49.663-44.369 62.282-61.213l-20.76-21.774c-12.619 17.255-39.485 44.78-61.059 64.499l19.538 18.488zM657.199 834.806h229.994v-27.523h-117.235c-2.85-14.379-6.106-30.403-9.771-46.013h75.309l4.477 1.643 21.575-2.053c-1.628-25.881-4.884-55.871-8.141-82.164h47.627v-27.936h-257.675v27.936h67.166c4.478 16.433 8.954 35.741 13.432 55.871h-51.697v26.703h57.802c3.663 15.612 6.513 31.635 8.956 46.013h-81.821v27.523zM754.488 734.568c-4.478-20.13-8.954-39.439-13.024-55.871h83.040c2.442 18.076 4.478 38.617 6.106 55.871h-76.121zM532.228 721.421h84.672v-178.295l48.44 32.044c1.628-7.805 5.292-19.718 8.141-25.88-67.573-46.833-78.156-55.050-84.262-62.856-2.442 7.395-10.177 20.54-15.061 27.113 5.699 4.108 14.247 13.148 14.247 29.991v148.716h-56.176v29.166zM677.145 617.076h196.616v-141.734h-29.716v14.789h-137.998v-16.020h-28.902v142.965zM706.046 590.37v-73.533h137.998v73.533h-137.998zM445.624 441.181c0.865-1.243 1.743-2.478 2.635-3.701-0.892 1.223-1.769 2.458-2.635 3.701zM448.672 436.921c0.864-1.176 1.739-2.343 2.627-3.5-0.888 1.156-1.764 2.325-2.627 3.5zM451.564 433.079c0.903-1.171 1.818-2.332 2.747-3.482-0.928 1.151-1.843 2.311-2.747 3.482zM454.932 428.836c0.88-1.079 1.768-2.15 2.67-3.212-0.901 1.061-1.79 2.132-2.67 3.212zM457.76 425.436c1.023-1.201 2.059-2.392 3.109-3.569-1.050 1.178-2.086 2.368-3.109 3.569zM461.078 421.634c1.050-1.174 2.114-2.335 3.191-3.485-1.077 1.15-2.141 2.311-3.191 3.485zM464.429 417.978c1.069-1.139 2.151-2.267 3.246-3.381-1.095 1.114-2.177 2.243-3.246 3.381zM468.022 414.248c1.002-1.015 2.014-2.019 3.037-3.013-1.023 0.994-2.036 1.999-3.037 3.013zM471.949 410.377c0.961-0.922 1.929-1.835 2.907-2.738-0.979 0.903-1.948 1.816-2.907 2.738zM475.187 407.335c1.078-0.992 2.167-1.973 3.267-2.942-1.1 0.969-2.189 1.951-3.267 2.942zM479.074 403.85c1.121-0.98 2.252-1.947 3.394-2.902-1.142 0.955-2.273 1.923-3.394 2.902zM482.632 400.811c1.227-1.024 2.465-2.034 3.717-3.029-1.252 0.996-2.49 2.005-3.717 3.029zM486.518 397.646c1.279-1.016 2.571-2.017 3.876-3.003-1.304 0.986-2.596 1.988-3.876 3.003zM498.745 388.65c1.307-0.89 2.626-1.766 3.955-2.627-1.329 0.861-2.648 1.737-3.955 2.627zM207.104 543.354c-114.718 0-207.072-91.25-207.072-204.595v-198.131c0-113.346 92.353-204.595 207.072-204.595h200.532c103.112 0 188.142 73.726 204.294 170.951l-73.947 76.635v0.336l76.724 79.516v75.291c0 113.346-92.355 204.595-207.072 204.595h-200.532zM475.344 491.417l12.413-63.271 60.586-14.906-54.374-32.571 4.299-64.518-46.022 43.141-57.929-24.97 25.932 59.234-40.1 49.088 62.049-6.535 33.145 55.308zM239.997 481.241c1.99-0.006 4.076-0.299 6.262-0.879 12.422-3.045 18.282-11.39 17.578-25.034-11.824-57.375-22.079-115.412-30.764-174.112-7.968-57.902-20.98-121.38-39.037-176.856 44.814 17.761 114.029-4.593 203.958 0.719l8.004 0.474c1.525 0.089 5.312 0.691 11.363 1.805 12.409 9.801 23.482 10.079 33.219 0.831s10.016-16.795 0.839-29.428c-7.791-10.284-37.596-16.958-89.419-20.020l-24.007-1.418c-53.256-4.658-99.183 18.316-134.091 1.14-13.353-6.834-28.164-11.495-44.429-20.769-12.011-3.733-21.314-1.637-27.912 6.286-5.79 7.214-5.956 16.272-0.498 27.173 25.497 58.938 42.141 112.442 49.94 160.51 8.56 48.113 14.911 88.539 19.049 121.278 4.854 33.536 11.382 70.952 19.591 112.242 4.943 10.729 11.729 16.082 20.353 16.054zM614.646 135.703c-0.006-0.261-0.014-0.524-0.021-0.785 0.007 0.261 0.015 0.524 0.021 0.785zM614.46 130.597c-0.018-0.365-0.039-0.731-0.058-1.095 0.020 0.365 0.041 0.73 0.058 1.095zM614.152 125.547c-0.038-0.513-0.078-1.028-0.119-1.54 0.041 0.512 0.082 1.026 0.119 1.54zM613.755 120.903c-0.086-0.891-0.181-1.781-0.278-2.669 0.097 0.888 0.192 1.778 0.278 2.669zM613.225 116.044c-0.117-0.961-0.236-1.919-0.365-2.876 0.129 0.956 0.25 1.915 0.365 2.876zM612.569 111.098c-0.192-1.323-0.397-2.641-0.614-3.955 0.217 1.315 0.422 2.632 0.614 3.955zM731.717 353.349v-220.147l102.393 102.67v117.476zM613.964 235.596v-102.393h117.754l102.115 102.393z" />
<glyph unicode="&#xe925;" glyph-name="libretranslate" d="M1004.335 615.78l-54.435-67.245q-243.819 125.34-349.488 261.201-103.382-143.18-333.478-255.712l-58.096 64.957q306.031 141.808 379.222 340.797l77.765-24.245q-15.553-45.744-20.585-53.521 98.808-141.351 359.095-266.233zM1018.974 180.292l-59.925-57.18q-134.031 102.468-207.68 250.223-48.489-137.234-200.818-248.393l-59.925 55.351q106.127 70.447 159.191 166.052t60.383 272.637l80.51-6.861q0-23.787-3.659-59.468l-3.202-32.021q0-24.245 26.989-91.489 27.447-66.787 79.596-129.915 52.606-62.67 128.542-118.936zM594.006 301.972l-62.212-55.808q-52.606 69.074-102.926 112.989-57.638-125.798-178.861-236.957l-60.841 54.436q108.872 96.978 156.446 194.872 48.031 97.894 61.755 247.478l81.426-8.692q-9.149-83.255-32.479-169.713 88.745-76.393 137.692-138.606zM407.8-63.779v72.908h-320.088v575.268h-82.689v-648.178z" />
<glyph unicode="&#xe926;" glyph-name="youtube-plus" d="M512 832c-166.86 0-325.612-11.475-469.25-32.125-27.53-107.726-42.75-226.733-42.75-351.875 0-125.14 15.22-244.151 42.75-351.875 143.638-20.652 302.392-32.125 469.25-32.125 166.854 0 325.616 11.473 469.25 32.125 27.532 107.724 42.75 226.735 42.75 351.875 0 48.944-2.382 96.863-6.875 143.625-46.489-49.701-112.294-80.74-185.327-81h-0.048c-0.013 0-0.028 0-0.042 0-140.928 0-255.176 114.608-255.208 255.997v0.003c0.396 23.155 3.793 45.35 9.817 66.432l-0.442-1.807c-24.465 0.501-49.026 0.75-73.875 0.75zM384 640l320-192-320-192v384zM640 832h384v-128h-384v128zM768 960h128v-384h-128v384z" />
<glyph unicode="&#xe927;" glyph-name="logo-poke" horiz-adv-x="1101" d="M634.307 959.963c-180.955 0.119-376.060-43.476-471.311-151.461-220.524-248.329-210.932-872.509-10.543-872.509 139.026 0 159.165 2.88 205.187 8.633 348.045 0 76.697 219.577 121.76 395.037 67.116 91.086 421.873-32.614 522.547 32.584 139.026 63.281 126.562 385.453 0 499.551-59.326 53.933-207.975 88.059-367.64 88.165zM655.487 820.805c12.704 0.025 26.232-2.026 40.599-6.536 100.674-31.64 87.255-123.689 80.543-205.187-5.753-71.91-79.573-92.041-131.348-92.041-50.816 0-140.951 21.090-141.91 92.041 0 73.438 48.672 211.522 152.116 211.723z" />
<glyph unicode="&#xe928;" glyph-name="librey" horiz-adv-x="910" d="M78.549 432.52v527.48h-78.549v-593.989h375.543v66.508h-296.994zM438.611 538.589l195.512-367.516 4.587-235.073h72.242l2.293 233.926 196.658 368.090h-79.695l-155.951-302.155-155.377 302.728h-80.269z" />
<glyph unicode="&#xe929;" glyph-name="mastodon" d="M989.568 623.829c0 222.123-145.536 287.232-145.536 287.232-73.387 33.707-199.424 47.872-330.283 48.939h-3.243c-130.901-1.067-256.853-15.232-330.24-48.939 0 0-145.536-65.109-145.536-287.232 0-50.859-0.981-111.701 0.64-176.171 5.291-217.259 39.851-431.317 240.683-484.48 92.587-24.491 172.117-29.653 236.16-26.112 116.139 6.4 181.333 41.472 181.333 41.472l-3.84 84.267c0 0-82.987-26.155-176.171-22.997-92.373 3.157-189.824 9.941-204.757 123.349-1.305 9.295-2.050 20.032-2.050 30.944 0 0.296 0.001 0.592 0.002 0.889v-0.046c0 0 90.667-22.187 205.525-27.435 70.229-3.2 136.107 4.139 203.008 12.075 128.299 15.317 240 94.379 254.037 166.613 22.059 113.707 20.267 277.632 20.267 277.632zM817.877 337.579h-106.539v261.077c0 55.040-23.168 82.944-69.461 82.944-51.2 0-76.885-33.109-76.885-98.645v-142.891h-105.941v142.933c0 65.536-25.685 98.645-76.885 98.645-46.293 0-69.461-27.947-69.461-82.944v-261.077h-106.539v268.928c0 54.997 13.995 98.688 42.112 130.987 29.013 32.341 66.944 48.896 114.091 48.896 54.528 0 95.829-20.949 123.136-62.891l26.496-44.501 26.539 44.501c27.307 41.941 68.608 62.891 123.136 62.891 47.104 0 85.077-16.555 114.091-48.896 28.075-32.299 42.069-75.989 42.069-130.987z" />
<glyph unicode="&#xe92a;" glyph-name="trakt" d="M512-64c-282.24 0-512 229.76-512 512s229.76 512 512 512 512-229.76 512-512-229.76-512-512-512zM512 908.331c-253.867 0-460.331-206.464-460.331-460.331s206.464-460.373 460.331-460.373 460.373 206.507 460.373 460.373-206.507 460.331-460.373 460.331zM208.64 169.344c74.923-81.92 183.211-132.821 303.36-132.821 61.397 0 119.509 13.355 171.819 37.376l-285.739 285.013-189.44-189.568zM818.261 172.203c65.749 72.96 105.984 170.24 105.984 275.883 0 165.76-97.579 307.84-237.568 373.76l-259.797-259.243 391.381-390.4zM396.843 531.84l-216.491-215.68-28.971 29.013 493.525 493.269c-41.728 13.995-86.187 21.717-132.907 21.717-227.712 0.128-412.288-184.448-412.288-412.16 0-92.672 30.421-178.261 82.731-247.509l215.723 215.68 15.317-14.037 309.12-309.12c6.4 3.499 12.16 6.997 17.92 11.349l-342.443 341.504-207.104-207.147-28.971 28.971 236.16 236.16 15.317-14.123 360.96-359.979c5.76 4.267 10.88 9.173 16 13.483l-389.803 388.949-3.541-0.64-0.256 0.299zM526.848 487.979l-28.928 28.843 204.288 204.373 28.971-29.397-204.331-204.16v0.341zM720.64 768.64l-235.52-235.52-29.013 28.971 235.563 235.52 28.971-29.184v0.213z" />
<glyph unicode="&#xe92b;" glyph-name="genius" d="M0 668.715c0-92.331 33.707-176.341 92.459-235.093 16.768-16.768 33.536-25.173 50.347-41.941h8.32c8.405 0 8.363 8.363 8.363 8.363-16.768 33.579-25.088 75.52-25.088 117.504 0 92.331 41.899 184.704 100.693 243.456v134.229c0 8.405-8.405 8.363-8.405 8.363h-125.867c-67.157-67.157-100.821-142.592-100.821-234.88zM109.184 131.541c100.693-92.331 226.56-142.635 377.643-142.635 302.165 0 537.173 243.285 537.173 537.003 0 142.677-58.795 276.992-151.125 369.323h-8.363c0 8.405-8.363 0-8.363 0 25.173-67.157 41.941-134.272 41.941-209.835 0-310.528-251.819-570.581-570.752-570.581-75.52 0-142.677 16.768-209.792 41.941-8.405 0-8.363-8.491-8.363-16.853zM360.917 643.456c0-25.173 16.853-50.261 33.621-67.029h16.725c151.040-50.347 201.472 8.235 201.472 75.392v92.459c0 8.363 8.363 8.363 8.363 8.363h33.579c8.405 0 8.363 8.363 8.363 8.363-8.363 50.347-33.451 100.608-67.029 142.592h-100.821c0 8.405-8.363 0-8.363-8.363v-125.867c0-67.157-50.347-117.504-117.504-125.909 0 8.405-8.363 0-8.363 0z" />
<glyph unicode="&#xe92c;" d="M910.222 817.778h-796.444c-62.834 0-113.778-50.944-113.778-113.778v-256h1024v256c0 62.834-50.944 113.778-113.778 113.778z" />
<glyph unicode="&#xe92d;" d="M0 192c0-62.834 50.944-113.778 113.778-113.778h796.444c62.834 0 113.778 50.944 113.778 113.778v256h-1024v-256z" />
<glyph unicode="&#xe92e;" glyph-name="dumb" d="M185.613 91.317q-64.912 0-106.053 34.278-41.141 35.205-60.34 94.497-19.199 60.219-19.199 133.408 0 75.969 20.113 134.335 21.027 59.293 63.998 93.571 43.884 34.278 111.538 34.278 48.456 0 82.282-18.529 34.742-18.529 59.426-55.587h4.571q-4.571 28.72-7.313 54.661-2.744 26.867-2.744 56.513v151.937h129.823v-704.1h-100.567l-27.427 65.777h-5.485q-22.857-37.057-60.34-56.513-36.57-18.529-82.282-18.529zM237.726 202.491q104.225 0 104.225 134.335v14.823q0 44.469-9.143 78.748-8.229 35.205-30.17 54.661-21.027 19.455-60.34 19.455-107.881 0-107.881-156.57 0-75.969 25.599-111.174 25.599-34.278 77.711-34.278zM835.644 91.317q-42.055 0-80.454 16.676-37.484 16.676-63.082 48.175h-9.143l-20.113-55.587h-100.567v704.1h129.823v-163.981q0-31.499-5.485-100.057h5.485q23.771 37.985 62.169 56.513 39.313 18.529 84.111 18.529 64.912 0 106.053-35.205t60.34-94.497q19.199-58.366 19.199-130.629 0-74.116-20.113-134.335-20.114-59.293-62.169-94.497-41.141-35.205-106.053-35.205zM790.845 202.491q98.739 0 98.739 153.79 0 76.895-25.599 112.101-25.599 36.132-74.054 36.132-43.884 0-71.311-33.352-26.513-32.425-26.513-114.88 0-78.748 25.599-116.732 26.513-37.057 73.139-37.057zM217.284 242.89q-19.798 0-30.847 10.73t-11.050 30.325q0 41.056 41.897 41.056 19.798 0 30.386-10.73 11.050-10.73 11.050-30.325 0-18.662-11.050-29.859t-30.386-11.198zM819.834 242.89q-19.798 0-30.847 10.73t-11.050 30.325q0 41.056 41.897 41.056 19.798 0 30.386-10.73 11.050-10.73 11.050-30.325 0-18.662-11.050-29.859t-30.386-11.198z" />
<glyph unicode="&#xe92f;" glyph-name="bluesky" d="M512 499.2c-46.379 90.197-172.629 258.261-290.048 341.12-112.469 79.403-155.349 65.664-183.467 52.907-32.555-14.635-38.485-64.64-38.485-93.995 0-29.44 16.128-241.067 26.624-276.437 34.773-116.736 158.421-156.16 272.341-143.531 5.803 0.853 11.733 1.664 17.707 2.389-5.888-0.939-11.776-1.707-17.707-2.389-166.912-24.747-315.179-85.547-120.747-301.995 213.888-221.44 293.12 47.488 333.781 183.808 40.661-136.32 87.467-395.563 329.941-183.808 182.059 183.808 50.005 277.248-116.907 301.995-7.811 0.854-13.863 1.696-19.867 2.682l2.16-0.293c5.973-0.725 11.904-1.536 17.707-2.389 113.92-12.672 237.568 26.795 272.341 143.531 10.496 35.328 26.624 247.040 26.624 276.395 0 29.44-5.931 79.403-38.485 94.123-28.117 12.715-70.997 26.453-183.467-52.907-117.419-82.987-243.669-251.051-290.048-341.205z" />
<glyph unicode="&#xe945;" glyph-name="envelop" d="M928 832h-832c-52.8 0-96-43.2-96-96v-640c0-52.8 43.2-96 96-96h832c52.8 0 96 43.2 96 96v640c0 52.8-43.2 96-96 96zM398.74 409.628l-270.74-210.892v501.642l270.74-290.75zM176.38 704h671.24l-335.62-252-335.62 252zM409.288 398.302l102.712-110.302 102.71 110.302 210.554-270.302h-626.528l210.552 270.302zM625.26 409.628l270.74 290.75v-501.642l-270.74 210.892z" />
<glyph unicode="&#xe96c;" glyph-name="bubbles" horiz-adv-x="1152" d="M1088 58.834c0-45.5 26.028-84.908 64-104.184v-15.938c-10.626-1.454-21.472-2.224-32.5-2.224-68.008 0-129.348 28.528-172.722 74.264-26.222-6.982-54.002-10.752-82.778-10.752-159.058 0-288 114.616-288 256s128.942 256 288 256c159.058 0 288-114.616 288-256 0-55.348-19.764-106.592-53.356-148.466-6.824-14.824-10.644-31.312-10.644-48.7zM512 960c278.458 0 504.992-180.614 511.836-405.52-49.182 21.92-103.586 33.52-159.836 33.52-95.56 0-185.816-33.446-254.138-94.178-70.846-62.972-109.862-147.434-109.862-237.822 0-44.672 9.544-87.888 27.736-127.788-5.228-0.126-10.468-0.212-15.736-0.212-27.156 0-53.81 1.734-79.824 5.044-109.978-109.978-241.25-129.7-368.176-132.596v26.916c68.536 33.578 128 94.74 128 164.636 0 9.754-0.758 19.33-2.164 28.696-115.796 76.264-189.836 192.754-189.836 323.304 0 229.75 229.23 416 512 416z" />
<glyph unicode="&#xe986;" glyph-name="search" d="M992.262 88.604l-242.552 206.294c-25.074 22.566-51.89 32.926-73.552 31.926 57.256 67.068 91.842 154.078 91.842 249.176 0 212.078-171.922 384-384 384-212.076 0-384-171.922-384-384s171.922-384 384-384c95.098 0 182.108 34.586 249.176 91.844-1-21.662 9.36-48.478 31.926-73.552l206.294-242.552c35.322-39.246 93.022-42.554 128.22-7.356s31.892 92.898-7.354 128.22zM384 320c-141.384 0-256 114.616-256 256s114.616 256 256 256 256-114.616 256-256-114.614-256-256-256z" />
<glyph unicode="&#xe9c5;" glyph-name="download2" d="M896 448h-160l-224-224-224 224h-160l-128-256v-64h1024v64l-128 256zM0 64h1024v-64h-1024v64zM576 640v256h-128v-256h-224l288-288 288 288h-224z" />
<glyph unicode="&#xe9ca;" glyph-name="earth" d="M512 960c-282.77 0-512-229.23-512-512s229.23-512 512-512 512 229.23 512 512-229.23 512-512 512zM512-0.002c-62.958 0-122.872 13.012-177.23 36.452l233.148 262.29c5.206 5.858 8.082 13.422 8.082 21.26v96c0 17.674-14.326 32-32 32-112.99 0-232.204 117.462-233.374 118.626-6 6.002-14.14 9.374-22.626 9.374h-128c-17.672 0-32-14.328-32-32v-192c0-12.122 6.848-23.202 17.69-28.622l110.31-55.156v-187.886c-116.052 80.956-192 215.432-192 367.664 0 68.714 15.49 133.806 43.138 192h116.862c8.488 0 16.626 3.372 22.628 9.372l128 128c6 6.002 9.372 14.14 9.372 22.628v77.412c40.562 12.074 83.518 18.588 128 18.588 70.406 0 137.004-16.26 196.282-45.2-4.144-3.502-8.176-7.164-12.046-11.036-36.266-36.264-56.236-84.478-56.236-135.764s19.97-99.5 56.236-135.764c36.434-36.432 85.218-56.264 135.634-56.26 3.166 0 6.342 0.080 9.518 0.236 13.814-51.802 38.752-186.656-8.404-372.334-0.444-1.744-0.696-3.488-0.842-5.224-81.324-83.080-194.7-134.656-320.142-134.656z" />
<glyph unicode="&#xea08;" glyph-name="notification" d="M512 864c-111.118 0-215.584-43.272-294.156-121.844s-121.844-183.038-121.844-294.156c0-111.118 43.272-215.584 121.844-294.156s183.038-121.844 294.156-121.844c111.118 0 215.584 43.272 294.156 121.844s121.844 183.038 121.844 294.156c0 111.118-43.272 215.584-121.844 294.156s-183.038 121.844-294.156 121.844zM512 960v0c282.77 0 512-229.23 512-512s-229.23-512-512-512c-282.77 0-512 229.23-512 512s229.23 512 512 512zM448 256h128v-128h-128zM448 768h128v-384h-128z" />
<glyph unicode="&#xea96;" glyph-name="twitter" d="M1024 733.6c-37.6-16.8-78.2-28-120.6-33 43.4 26 76.6 67.2 92.4 116.2-40.6-24-85.6-41.6-133.4-51-38.4 40.8-93 66.2-153.4 66.2-116 0-210-94-210-210 0-16.4 1.8-32.4 5.4-47.8-174.6 8.8-329.4 92.4-433 219.6-18-31-28.4-67.2-28.4-105.6 0-72.8 37-137.2 93.4-174.8-34.4 1-66.8 10.6-95.2 26.2 0-0.8 0-1.8 0-2.6 0-101.8 72.4-186.8 168.6-206-17.6-4.8-36.2-7.4-55.4-7.4-13.6 0-26.6 1.4-39.6 3.8 26.8-83.4 104.4-144.2 196.2-146-72-56.4-162.4-90-261-90-17 0-33.6 1-50.2 3 93.2-59.8 203.6-94.4 322.2-94.4 386.4 0 597.8 320.2 597.8 597.8 0 9.2-0.2 18.2-0.6 27.2 41 29.4 76.6 66.4 104.8 108.6z" />
<glyph unicode="&#xea9f;" glyph-name="twitch" d="M96 960l-96-160v-736h256v-128h128l128 128h160l288 288v608h-864zM832 416l-160-160h-160l-128-128v128h-192v576h640v-416zM608 704h96v-256h-96v256zM416 704h96v-256h-96v256z" />
<glyph unicode="&#xeaad;" glyph-name="steam2" d="M303.922 123.99c27.144 0 53.786 13.136 69.972 37.416 25.734 38.602 15.302 90.754-23.298 116.488l-66.074 44.048c11.308 3.080 23.194 4.756 35.478 4.756 74.392 0 134.696-60.304 134.696-134.698s-60.306-134.698-134.698-134.698c-72.404 0-131.444 57.132-134.548 128.774l71.954-47.968c14.322-9.548 30.506-14.118 46.518-14.118zM853.34 960c93.876 0 170.66-76.812 170.66-170.688v-682.628c0-93.936-76.784-170.684-170.66-170.684h-682.652c-93.876 0-170.688 76.75-170.688 170.682v203.028l121.334-80.888c-11.652-63.174 6.938-130.83 55.798-179.69 78.904-78.904 206.83-78.904 285.736 0 48.468 48.466 67.15 115.43 56.076 178.166l249.056 222.988c46.248 6.638 90.816 27.744 126.394 63.322 87.476 87.476 87.476 229.306 0 316.784-87.48 87.478-229.308 87.478-316.786 0-35.578-35.578-56.684-80.146-63.322-126.392v0l-204.694-310.23c-31.848-1.632-63.378-10.764-91.726-27.392l-217.866 145.244v277.69c0 93.876 76.81 170.688 170.686 170.688h682.654zM896 672c0 88.366-71.634 160-160 160s-160-71.634-160-160 71.634-160 160-160 160 71.634 160 160zM640 672c0 53.020 42.98 96 96 96s96-42.98 96-96-42.98-96-96-96-96 42.98-96 96z" />
<glyph unicode="&#xeab0;" glyph-name="github" d="M512.008 947.358c-282.738 0-512.008-229.218-512.008-511.998 0-226.214 146.704-418.132 350.136-485.836 25.586-4.738 34.992 11.11 34.992 24.632 0 12.204-0.48 52.542-0.696 95.324-142.448-30.976-172.504 60.41-172.504 60.41-23.282 59.176-56.848 74.916-56.848 74.916-46.452 31.778 3.51 31.124 3.51 31.124 51.4-3.61 78.476-52.766 78.476-52.766 45.672-78.27 119.776-55.64 149.004-42.558 4.588 33.086 17.852 55.68 32.506 68.464-113.73 12.942-233.276 56.85-233.276 253.032 0 55.898 20.004 101.574 52.76 137.428-5.316 12.9-22.854 64.972 4.952 135.5 0 0 43.006 13.752 140.84-52.49 40.836 11.348 84.636 17.036 128.154 17.234 43.502-0.198 87.336-5.886 128.256-17.234 97.734 66.244 140.656 52.49 140.656 52.49 27.872-70.528 10.35-122.6 5.036-135.5 32.82-35.856 52.694-81.532 52.694-137.428 0-196.654-119.778-239.95-233.79-252.624 18.364-15.89 34.724-47.046 34.724-94.812 0-68.508-0.596-123.644-0.596-140.508 0-13.628 9.222-29.594 35.172-24.566 203.322 67.776 349.842 259.626 349.842 485.768 0 282.78-229.234 511.998-511.992 511.998z" />
<glyph unicode="&#xeac4;" glyph-name="soundcloud2" d="M928 960h-832c-52.8 0-96-43.2-96-96v-832c0-52.8 43.2-96 96-96h832c52.8 0 96 43.2 96 96v832c0 52.8-43.2 96-96 96zM176 256h-32l-16 96 16 96h32l16-96-16-96zM304 256h-32l-16 128 16 128h32l16-128-16-128zM432 256h-32l-16 192 16 192h32l16-192-16-192zM825.2 256c-2 0-301.2 0.2-301.4 0.2-6.4 0.6-11.6 6.2-11.8 12.8v345.2c0 6.4 2.2 9.6 10.4 12.8 21.2 8.2 45 13 69.6 13 100.2 0 182.4-76.8 191.2-175 13 5.4 27.2 8.4 42 8.4 60 0 108.8-48.8 108.8-108.8s-48.8-108.6-108.8-108.6z" />
<glyph unicode="&#xeac6;" glyph-name="reddit" d="M256 320c0 35.346 28.654 64 64 64s64-28.654 64-64c0-35.346-28.654-64-64-64s-64 28.654-64 64zM640 320c0 35.346 28.654 64 64 64s64-28.654 64-64c0-35.346-28.654-64-64-64s-64 28.654-64 64zM643.112 183.222c16.482 12.986 40.376 10.154 53.364-6.332s10.152-40.378-6.334-53.366c-45.896-36.158-115.822-59.524-178.142-59.524-62.322 0-132.248 23.366-178.144 59.522-16.486 12.99-19.32 36.882-6.332 53.368 12.99 16.482 36.882 19.318 53.366 6.332 26.422-20.818 78.722-43.222 131.11-43.222s104.688 22.404 131.112 43.222zM1024 448c0 70.692-57.308 128-128 128-48.116 0-89.992-26.57-111.852-65.82-65.792 35.994-145.952 59.246-233.28 64.608l76.382 171.526 146.194-42.2c13.152-37.342 48.718-64.114 90.556-64.114 53.020 0 96 42.98 96 96s-42.98 96-96 96c-36.56 0-68.342-20.442-84.554-50.514l-162.906 47.024c-18.224 5.258-37.538-3.722-45.252-21.052l-103.77-233.026c-85.138-5.996-163.262-29.022-227.636-64.236-21.864 39.25-63.766 65.804-111.882 65.804-70.692 0-128-57.308-128-128 0-52.312 31.402-97.254 76.372-117.102-8.070-24.028-12.372-49.104-12.372-74.898 0-176.73 200.576-320 448-320 247.422 0 448 143.27 448 320 0 25.792-4.3 50.862-12.368 74.886 44.97 19.85 76.368 64.802 76.368 117.114zM864 772c19.882 0 36-16.118 36-36s-16.118-36-36-36-36 16.118-36 36 16.118 36 36 36zM64 448c0 35.29 28.71 64 64 64 25.508 0 47.572-15.004 57.846-36.646-33.448-25.366-61.166-54.626-81.666-86.738-23.524 9.47-40.18 32.512-40.18 59.384zM512 12c-205.45 0-372 109.242-372 244s166.55 244 372 244c205.45 0 372-109.242 372-244s-166.55-244-372-244zM919.82 388.616c-20.5 32.112-48.218 61.372-81.666 86.738 10.276 21.642 32.338 36.646 57.846 36.646 35.29 0 64-28.71 64-64 0-26.872-16.656-49.914-40.18-59.384z" />
<glyph unicode="&#xeac8;" glyph-name="wikipedia" d="M966.8 726.4c0-3.2-1-6.2-3-9-2-2.6-4.2-4-6.8-4-20-2-36.4-8.4-49-19.2-12.8-10.8-25.8-31.8-39.2-62.4l-206.4-465.4c-1.4-4.4-5.2-6.4-11.4-6.4-4.8 0-8.6 2.2-11.4 6.4l-115.8 242-133.2-242c-2.8-4.4-6.4-6.4-11.4-6.4-6 0-9.8 2.2-11.8 6.4l-202.6 465.2c-12.6 28.8-26 49-40 60.4s-33.6 18.6-58.6 21.2c-2.2 0-4.2 1.2-6 3.4-2 2.2-2.8 4.8-2.8 7.8 0 7.6 2.2 11.4 6.4 11.4 18 0 37-0.8 56.8-2.4 18.4-1.6 35.6-2.4 51.8-2.4 16.4 0 36 0.8 58.4 2.4 23.4 1.6 44.2 2.4 62.4 2.4 4.4 0 6.4-3.8 6.4-11.4s-1.4-11.2-4-11.2c-18-1.4-32.4-6-42.8-13.8s-15.6-18-15.6-30.8c0-6.4 2.2-14.6 6.4-24.2l167.4-378.4 95.2 179.6-88.6 185.8c-16 33.2-29 54.6-39.2 64.2s-25.8 15.4-46.6 17.6c-2 0-3.6 1.2-5.4 3.4s-2.6 4.8-2.6 7.8c0 7.6 1.8 11.4 5.6 11.4 18 0 34.6-0.8 49.8-2.4 14.6-1.6 30-2.4 46.6-2.4 16.2 0 33.2 0.8 51.4 2.4 18.6 1.6 37 2.4 55 2.4 4.4 0 6.4-3.8 6.4-11.4s-1.2-11.2-4-11.2c-36.2-2.4-54.2-12.8-54.2-30.8 0-8 4.2-20.6 12.6-37.6l58.6-119 58.4 108.8c8 15.4 12.2 28.4 12.2 38.8 0 24.8-18 38-54.2 39.6-3.2 0-4.8 3.8-4.8 11.2 0 2.8 0.8 5.2 2.4 7.6s3.2 3.6 4.8 3.6c13 0 28.8-0.8 47.8-2.4 18-1.6 33-2.4 44.6-2.4 8.4 0 20.6 0.8 36.8 2 20.4 1.8 37.6 2.8 51.4 2.8 3.2 0 4.8-3.2 4.8-9.6 0-8.6-3-13-8.8-13-21-2.2-38-8-50.8-17.4s-28.8-30.8-48-64.4l-78.2-143.2 105.2-214.4 155.4 361.4c5.4 13.2 8 25.4 8 36.4 0 26.4-18 40.4-54.2 42.2-3.2 0-4.8 3.8-4.8 11.2 0 7.6 2.4 11.4 7.2 11.4 13.2 0 28.8-0.8 47-2.4 16.8-1.6 30.8-2.4 42-2.4 12 0 25.6 0.8 41.2 2.4 16.2 1.6 30.8 2.4 43.8 2.4 4 0 6-3.2 6-9.6z" />
<glyph unicode="&#xeae7;" glyph-name="git1" d="M1004.692 493.606l-447.096 447.080c-25.738 25.754-67.496 25.754-93.268 0l-103.882-103.876 78.17-78.17c12.532 5.996 26.564 9.36 41.384 9.36 53.020 0 96-42.98 96-96 0-14.82-3.364-28.854-9.362-41.386l127.976-127.974c12.532 5.996 26.566 9.36 41.386 9.36 53.020 0 96-42.98 96-96s-42.98-96-96-96-96 42.98-96 96c0 14.82 3.364 28.854 9.362 41.386l-127.976 127.974c-3.042-1.456-6.176-2.742-9.384-3.876v-266.968c37.282-13.182 64-48.718 64-90.516 0-53.020-42.98-96-96-96s-96 42.98-96 96c0 41.796 26.718 77.334 64 90.516v266.968c-37.282 13.18-64 48.72-64 90.516 0 14.82 3.364 28.852 9.36 41.384l-78.17 78.17-295.892-295.876c-25.75-25.776-25.75-67.534 0-93.288l447.12-447.080c25.738-25.75 67.484-25.75 93.268 0l445.006 445.006c25.758 25.762 25.758 67.54-0.002 93.29z" />
<glyph unicode="&#xf11b;" glyph-name="gamepad1" horiz-adv-x="1097" d="M475.429 338.286v73.143c0 10.286-8 18.286-18.286 18.286h-109.714v109.714c0 10.286-8 18.286-18.286 18.286h-73.143c-10.286 0-18.286-8-18.286-18.286v-109.714h-109.714c-10.286 0-18.286-8-18.286-18.286v-73.143c0-10.286 8-18.286 18.286-18.286h109.714v-109.714c0-10.286 8-18.286 18.286-18.286h73.143c10.286 0 18.286 8 18.286 18.286v109.714h109.714c10.286 0 18.286 8 18.286 18.286zM804.571 301.714c0 40.571-32.571 73.143-73.143 73.143s-73.143-32.571-73.143-73.143 32.571-73.143 73.143-73.143 73.143 32.571 73.143 73.143zM950.857 448c0 40.571-32.571 73.143-73.143 73.143s-73.143-32.571-73.143-73.143 32.571-73.143 73.143-73.143 73.143 32.571 73.143 73.143zM1097.143 374.857c0-161.714-130.857-292.571-292.571-292.571-74.286 0-141.714 28-193.143 73.143h-125.714c-51.429-45.143-118.857-73.143-193.143-73.143-161.714 0-292.571 130.857-292.571 292.571s130.857 292.571 292.571 292.571h512c161.714 0 292.571-130.857 292.571-292.571z" />
</font>
</defs>
</svg>
