<?xml version="1.0" standalone="no"?>
<!DOCTYPE svg PUBLIC "-//W3C//DTD SVG 1.1//EN" "http://www.w3.org/Graphics/SVG/1.1/DTD/svg11.dtd">
<svg xmlns="http://www.w3.org/2000/svg">
<defs >
<font id="Onest" horiz-adv-x="571" ><font-face
    font-family="Onest"
    units-per-em="1000"
    panose-1="0 0 0 0 0 0 0 0 0 0"
    ascent="970"
    descent="-305"
    alphabetic="0" />
<glyph unicode=" " horiz-adv-x="282" />
<glyph unicode="!" horiz-adv-x="304" d="M87 240L76 708H230L218 240H87ZM152 -9Q131 -9 111 1T78 30T65 77Q65 106 77 125T110 153T153 163Q186 163 212 141T239 77Q239 49 227 30T194 1T152 -9Z" />
<glyph unicode="&quot;" horiz-adv-x="412" d="M253 435L232 708H365L340 435H253ZM68 435L47 708H180L154 435H68Z" />
<glyph unicode="#" horiz-adv-x="681" d="M118 0L139 166H47V292H153L168 415H75V540H183L203 708H322L303 540H423L443 708H563L542 540H634V415H527L513 292H606V166H499L478 0H360L379 166H259L240 0H118ZM273 292H394L408 415H287L273 292Z" />
<glyph unicode="$" horiz-adv-x="663" d="M269 -142V0Q213 10 166 36T87 107T47 217H192Q202 183 226 162T283 133T352 124Q385 124 412 132T455 157T471 200Q471 223 460 237T429 259T386 274Q344 285 309 292T243 308T186 330Q133 354 102 394T70 510Q70 574
98 616T174 682T273 711V851H405V709Q459 703 502 676T571 605T598 500H459Q455 530 438 548T393 576T330 586Q301 587 275 580T231 558T214 514Q214 494 224 480T251 456T291 438Q322 427 361 420T432 402Q488 388 529 368T592 312T615 216Q615 147 587 101T510
29T400 -3V-142H269Z" />
<glyph unicode="%" horiz-adv-x="886" d="M140 0L600 708H744L286 0H140ZM669 -7Q618 -7 580 14T520 75T498 167Q498 220 520 259T581 319T671 341Q721 341 759 320T818 261T839 168Q839 115 818 76T758 15T669 -7ZM669 98Q691 98 705 107T725 133T732 166Q732
183 726 198T705 224T669 234Q634 234 619 213T604 165Q605 139 620 119T669 98ZM218 368Q166 368 128 389T69 450T47 541Q47 595 68 634T129 694T219 716Q270 716 307 695T366 636T387 543Q387 490 366 451T307 390T218 368ZM218 474Q240 474 254 483T274 508T280
542Q280 559 274 574T254 600T218 610Q183 610 168 589T153 540Q153 514 168 494T218 474Z" />
<glyph unicode="&amp;" horiz-adv-x="717" d="M286 -8Q242 -8 201 3T127 38T75 99T55 189Q55 235 70 270T114 333T178 382Q149 411 132 451T115 529Q115 586 141 628T214 693T320 716Q371 716 414 697T483 640T510 546Q510 501 492 467T443 405T377 357L481 240Q494
259 501 287T511 338H632Q625 280 610 235T569 151L705 0H530L478 54Q437 19 386 6T286 -8ZM292 113Q318 113 347 120T398 147L260 299Q234 284 218 267T196 233T189 197Q189 169 204 150T243 122T292 113ZM294 437Q318 450 338 464T370 497T383 536Q383 551 376
566T354 590T315 600Q277 600 260 579T243 532Q243 513 249 496T268 465T294 437Z" />
<glyph unicode="&apos;" horiz-adv-x="247" d="M79 435L55 708H192L166 435H79Z" />
<glyph unicode="(" horiz-adv-x="354" d="M225 -194Q168 -122 130 -39T72 133T53 307Q53 393 72 481T130 653T226 809H396Q326 731 282 648T216 478T194 307Q194 222 216 136T282 -33T395 -194H225Z" />
<glyph unicode=")" horiz-adv-x="354" d="M129 -194H-41Q28 -116 72 -33T138 136T160 307Q160 392 139 478T73 647T-41 809H128Q186 737 224 653T282 481T301 307Q301 221 282 133T225 -38T129 -194Z" />
<glyph unicode="*" horiz-adv-x="463" d="M182 396L87 466L155 539L57 559L93 671L184 629L172 728H291L279 629L369 671L406 559L308 539L375 466L280 396L232 483L182 396Z" />
<glyph unicode="+" horiz-adv-x="592" d="M234 132V295H76V421H234V583H359V421H517V295H359V132H234Z" />
<glyph unicode="," horiz-adv-x="301" d="M95 -153L55 -92Q70 -84 88 -69T122 -37T142 -4Q112 -2 89 19T66 77Q67 118 93 139T154 161Q198 161 222 130T246 47Q246 0 224 -41T168 -111T95 -153Z" />
<glyph unicode="-" horiz-adv-x="465" d="M62 227V353H403V227H62Z" />
<glyph unicode="." horiz-adv-x="281" d="M141 -13Q105 -13 80 9T55 72Q55 114 80 138T141 162Q176 162 201 139T226 73Q226 31 201 9T141 -13Z" />
<glyph unicode="/" horiz-adv-x="512" d="M27 -163L345 788H485L167 -163H27Z" />
<glyph unicode="0" horiz-adv-x="660" d="M329 -8Q251 -8 197 20T109 97T60 212T45 352Q45 428 60 494T110 610T199 688T331 716Q411 716 465 687T553 607T601 490T616 354Q616 281 601 216T553 101T465 21T329 -8ZM329 124Q378 124 406 146T449 205T468 280T473
354Q473 386 469 425T450 500T408 559T332 582Q284 582 255 560T212 501T192 426T187 354Q187 321 191 281T210 205T252 147T329 124Z" />
<glyph unicode="1" horiz-adv-x="390" d="M152 0V519H13V627Q54 628 87 634T146 658T191 708H295V0H152Z" />
<glyph unicode="2" horiz-adv-x="561" d="M21 0V118L217 281Q238 299 265 321T318 370T360 425T377 485Q377 528 351 555T273 582Q225 582 198 561T163 506H25Q31 577 67 623T160 693T278 716Q345 716 400 691T487 619T519 501Q519 441 497 393T435 303T347 223L235
132H518V0H21Z" />
<glyph unicode="3" horiz-adv-x="613" d="M302 -7Q251 -7 204 5T118 43T53 109T21 207H163Q170 179 190 161T240 134T303 126Q325 126 346 130T385 144T413 171T423 214Q423 238 414 254T390 280T355 294T311 298H229V420H284Q310 420 331 425T366 441T389 467T397
503Q397 533 384 550T348 576T295 584Q267 584 243 576T202 551T181 512H42Q48 566 71 604T130 668T210 704T303 716Q349 716 391 706T466 674T520 614T540 525Q540 493 530 465T500 416T454 380Q493 369 518 344T555 285T568 212Q568 148 545 106T482 39T396 4T302
-7Z" />
<glyph unicode="4" horiz-adv-x="637" d="M389 0V130H30V239L359 708H532V260H612V130H532V0H389ZM194 260H389V550L194 260Z" />
<glyph unicode="5" horiz-adv-x="615" d="M306 -8Q256 -8 213 4T137 43T81 109T50 204H191Q197 184 213 166T253 137T309 126Q347 126 373 139T413 177T427 234Q427 284 396 314T307 345Q274 345 246 334T191 302H69L82 708H548V577H217L209 433Q239 454 278 462T357
470Q426 468 474 440T547 362T573 245Q573 164 538 107T442 21T306 -8Z" />
<glyph unicode="6" horiz-adv-x="624" d="M326 -8Q251 -8 198 20T111 97T62 208T46 340Q46 416 63 483T116 603T207 686T341 716Q401 716 450 695T534 632T578 523H442Q430 552 402 569T335 586Q300 586 274 574T230 540T199 491T182 435T177 376Q201 409 232
428T296 454T354 462Q425 462 476 434T554 356T582 236Q582 162 549 107T459 22T326 -8ZM327 123Q363 123 387 138T425 177T438 230Q438 260 425 284T388 324T329 339Q296 339 269 325T226 286T211 230Q211 202 225 178T265 138T327 123Z" />
<glyph unicode="7" horiz-adv-x="512" d="M68 0L338 575H0V708H501V601L227 0H68Z" />
<glyph unicode="8" horiz-adv-x="625" d="M311 -8Q261 -8 214 3T129 40T68 108T45 209Q45 248 56 279T90 335T145 375Q118 392 101 415T76 467T68 524Q68 577 89 613T145 672T224 705T313 716Q359 716 402 706T480 672T536 611T557 520Q557 493 549 466T523 415T478
376Q510 362 533 338T568 281T580 207Q580 148 557 107T495 41T409 4T311 -8ZM312 121Q334 121 356 126T396 142T424 171T435 215Q435 247 419 267T376 298T312 309Q277 309 249 299T204 268T188 215Q188 189 199 172T227 143T267 126T312 121ZM313 418Q345 418
367 428T402 458T415 502Q415 532 402 551T366 581T310 592Q279 592 257 582T222 552T209 506Q209 479 222 459T258 429T313 418Z" />
<glyph unicode="9" horiz-adv-x="621" d="M292 -8Q231 -8 179 12T92 76T46 184H186Q197 154 229 139T297 123Q338 123 366 139T412 183T437 244T446 313Q446 317 446 321T446 330Q424 298 393 280T329 255T266 248Q203 248 152 274T72 351T42 472Q42 551 78 605T173
688T304 716Q382 716 435 685T519 601T563 483T577 350Q577 276 562 212T513 98T425 20T292 -8ZM298 368Q337 368 362 384T401 424T415 476Q415 510 400 534T359 572T300 586Q264 586 238 571T198 531T184 477Q184 431 213 400T298 368Z" />
<glyph unicode=":" horiz-adv-x="284" d="M142 331Q107 331 81 353T55 416Q55 445 67 464T100 495T143 506Q179 506 204 483T229 417Q229 376 203 354T142 331ZM142 -9Q107 -9 81 13T55 77Q55 105 67 125T100 156T143 167Q179 167 204 143T229 78Q229 37 203 14T142 -9Z" />
<glyph unicode=";" horiz-adv-x="301" d="M95 -154L55 -92Q70 -84 88 -70T122 -37T142 -5Q112 -2 90 18T67 77Q67 118 93 140T155 161Q200 161 223 128T245 46Q245 -1 223 -42T168 -112T95 -154ZM156 331Q120 331 95 353T69 416Q69 445 81 464T114 495T157 506Q192
506 217 483T243 417Q243 376 217 354T156 331Z" />
<glyph unicode="&lt;" horiz-adv-x="592" d="M494 77L99 319V391L494 635V491L273 358L494 223V77Z" />
<glyph unicode="=" horiz-adv-x="592" d="M72 416V541H521V416H72ZM72 156V282H521V156H72Z" />
<glyph unicode="&gt;" horiz-adv-x="592" d="M99 77V222L320 356L99 490V636L493 394V322L99 77Z" />
<glyph unicode="?" horiz-adv-x="530" d="M182 232Q181 238 181 245T180 259Q180 290 190 314T216 357T251 394T288 427Q304 441 316 455T337 485T345 517Q345 538 335 553T306 577T259 585Q232 585 211 577T178 552T163 513H25Q27 570 47 609T100 671T174 705T260
716Q318 716 370 697T454 636T487 527Q487 491 475 463T442 410T394 359Q377 342 360 326T331 292T316 247Q316 244 316 240T315 232H182ZM249 -9Q215 -9 189 13T162 80Q162 122 188 143T249 165Q284 165 310 144T336 80Q336 36 310 14T249 -9Z" />
<glyph unicode="@" horiz-adv-x="994" d="M472 -168Q380 -167 305 -139T174 -56T88 76T58 249Q58 358 91 445T186 594T335 688T530 720Q624 720 699 692T827 610T909 480T937 308Q936 260 926 213T894 126T835 63T746 39Q698 39 662 63T615 131Q599 101 575 82T521
54T458 45Q398 45 358 75T299 154T279 262Q279 310 293 354T335 433T403 488T496 508Q523 508 547 501T592 478T622 433L645 483L725 474Q712 406 703 347T692 243Q691 222 693 201T707 166T741 152Q769 152 784 171T807 216T817 267T819 305Q819 369 802 423T748
517T656 579T522 601Q439 601 376 575T271 501T206 392T184 257Q184 172 218 104T318 -5T480 -45Q506 -45 526 -44T563 -40T602 -32L617 -150Q578 -160 545 -164T472 -168ZM485 156Q522 156 543 175T575 223T587 280Q590 306 581 332T552 376T497 394Q462 394 439
375T405 325T394 264Q394 246 399 227T414 192T442 166T485 156Z" />
<glyph unicode="A" horiz-adv-x="711" d="M1 0L277 708H437L710 0H556L512 121H199L155 0H1ZM245 250H467L357 556L245 250Z" />
<glyph unicode="B" horiz-adv-x="677" d="M74 0V708H384Q433 708 473 699T544 668T590 612T607 523Q607 479 587 441T528 383Q580 366 610 325T640 215Q640 154 617 113T554 46T461 11T348 0H74ZM217 132H365Q392 132 415 136T457 149T485 176T496 218Q496 241
488 256T464 282T428 296T382 300H217V132ZM217 419H348Q375 419 397 424T434 440T457 467T465 506Q466 536 452 550T414 570T360 576H217V419Z" />
<glyph unicode="C" horiz-adv-x="714" d="M377 -8Q268 -8 192 36T76 162T36 351Q36 461 76 543T193 670T376 716Q457 716 521 689T624 608T674 476H536Q523 525 484 553T379 582Q307 582 265 550T203 466T184 357Q184 298 204 245T267 159T382 126Q424 126 457
138T511 175T541 232H684Q675 155 632 101T523 20T377 -8Z" />
<glyph unicode="D" horiz-adv-x="730" d="M75 0V708H342Q453 708 531 666T651 545T693 352Q693 240 653 162T534 42T343 0H75ZM218 132H342Q416 132 461 160T527 238T548 353Q548 416 528 466T462 546T339 575H218V132Z" />
<glyph unicode="E" horiz-adv-x="621" d="M75 0V708H585V575H218V415H533V287H218V132H585V0H75Z" />
<glyph unicode="F" horiz-adv-x="604" d="M75 0V708H579V575H218V392H523V260H218V0H75Z" />
<glyph unicode="G" horiz-adv-x="732" d="M376 -8Q268 -8 192 37T76 164T36 355Q36 436 58 502T124 617T231 690T374 716Q455 716 519 690T625 613T681 484H536Q528 517 507 538T455 571T383 582Q328 582 290 563T229 512T195 438T184 352Q184 292 204 241T267
158T381 126Q428 126 464 140T523 184T549 256H356V379H696V340Q696 232 660 154T553 34T376 -8Z" />
<glyph unicode="H" horiz-adv-x="743" d="M75 0V708H218V415H524V708H668V0H524V283H218V0H75Z" />
<glyph unicode="I" horiz-adv-x="293" d="M75 0V708H218V0H75Z" />
<glyph unicode="J" horiz-adv-x="584" d="M281 -8Q227 -8 182 4T103 46T50 122T30 239H173Q175 211 184 185T214 142T277 125Q315 125 335 140T362 180T370 236V708H514V251Q514 189 500 141T458 60T385 10T281 -8Z" />
<glyph unicode="K" horiz-adv-x="672" d="M75 0V708H218V414H318L502 708H666L438 364L666 0H498L324 282H218V0H75Z" />
<glyph unicode="L" horiz-adv-x="594" d="M75 0V708H218V132H577V0H75Z" />
<glyph unicode="M" horiz-adv-x="899" d="M75 0V708H265L454 366L641 708H824V0H681V517L480 158H422L218 517V0H75Z" />
<glyph unicode="N" horiz-adv-x="766" d="M75 0V708H221L548 229V708H691V0H549L218 474V0H75Z" />
<glyph unicode="O" horiz-adv-x="773" d="M385 -8Q276 -8 198 38T78 165T36 353Q36 461 78 543T200 670T388 716Q496 716 574 671T694 545T737 356Q737 250 695 168T574 39T385 -8ZM387 126Q459 126 504 159T569 244T590 353Q590 395 579 436T543 510T480 562T386
582Q315 582 270 550T204 465T182 354Q182 295 203 243T270 159T387 126Z" />
<glyph unicode="P" horiz-adv-x="653" d="M75 0V708H351Q432 708 492 684T586 606T619 463Q619 380 583 324T483 241T340 213H218V0H75ZM218 341H338Q402 341 439 371T477 464Q477 519 446 547T345 575H218V341Z" />
<glyph unicode="Q" horiz-adv-x="774" d="M621 -118L519 17Q489 5 455 -1T387 -8Q276 -8 198 38T78 165T36 352Q36 461 78 543T199 670T388 716Q496 716 574 671T695 545T737 356Q737 272 711 207T635 94L732 -33L621 -118ZM385 126Q457 126 502 159T569 245T590
356Q590 414 570 465T504 549T388 582Q315 582 270 549T203 463T182 352Q182 294 203 243T269 159T385 126Z" />
<glyph unicode="R" horiz-adv-x="689" d="M75 0V708H360Q413 708 461 698T549 662T610 593T633 479Q633 428 616 387T566 317T487 272L644 0H483L345 249H218V0H75ZM218 376H350Q381 376 406 381T450 399T479 431T490 480Q491 517 475 537T429 566T359 575H218V376Z" />
<glyph unicode="S" horiz-adv-x="660" d="M342 -8Q268 -8 205 15T99 88T45 217H191Q200 183 224 163T281 133T352 124Q380 124 407 131T451 155T469 201Q469 223 460 237T433 259T390 275Q369 281 347 285T303 295T261 309Q223 319 188 333T126 370T84 427T68
509Q68 561 85 597T132 656T198 693T272 711T342 716Q411 716 466 692T556 620T596 499H457Q453 529 435 548T390 576T328 585Q306 585 285 581T248 569T222 546T212 512Q212 492 223 478T255 453T306 433Q336 423 369 417T432 401Q470 391 503 378T561 344T600
292T614 214Q614 153 592 111T531 42T443 4T342 -8Z" />
<glyph unicode="T" horiz-adv-x="595" d="M225 0V575H9V708H586V575H369V0H225Z" />
<glyph unicode="U" horiz-adv-x="737" d="M370 -8Q266 -8 200 31T102 143T70 318V708H213V311Q213 263 227 221T276 152T371 125Q432 125 465 151T511 221T524 311V708H667V318Q667 217 636 144T539 31T370 -8Z" />
<glyph unicode="V" horiz-adv-x="715" d="M264 0L6 708H162L360 121L554 708H709L452 0H264Z" />
<glyph unicode="W" horiz-adv-x="1004" d="M179 0L6 708H165L289 157L414 708H603L726 157L847 708H998L827 0H629L505 536L383 0H179Z" />
<glyph unicode="X" horiz-adv-x="669" d="M6 0L246 354L13 708H186L337 460L486 708H656L423 355L663 0H490L332 248L169 0H6Z" />
<glyph unicode="Y" horiz-adv-x="682" d="M269 0V264L6 708H171L341 397L514 708H676L412 265V0H269Z" />
<glyph unicode="Z" horiz-adv-x="617" d="M32 0V113L396 575H43V708H585V596L220 132H579V0H32Z" />
<glyph unicode="[" horiz-adv-x="353" d="M75 -170V784H330V661H211V-48H330V-170H75Z" />
<glyph unicode="\" horiz-adv-x="512" d="M344 -163L27 788H166L485 -163H344Z" />
<glyph unicode="]" horiz-adv-x="353" d="M23 -170V-48H143V661H23V784H278V-170H23Z" />
<glyph unicode="^" horiz-adv-x="592" d="M75 462L247 711H341L517 462H381L296 597L209 462H75Z" />
<glyph unicode="_" horiz-adv-x="444" d="M-15 -166V-43H459V-166H-15Z" />
<glyph unicode="`" horiz-adv-x="0" d="M-23 589L-165 760H-16L97 589H-23Z" />
<glyph unicode="a" horiz-adv-x="568" d="M222 -7Q186 -7 153 2T93 32T52 82T37 152Q37 206 59 238T118 288T203 311T304 317H380Q380 346 370 368T338 403T284 416Q263 416 244 411T211 395T194 369H52Q58 413 80 444T135 496T207 525T289 535Q404 535 459 470T514
284V0H388L386 68Q361 33 330 17T269 -3T222 -7ZM254 104Q289 104 318 118T364 156T381 210V223H285Q264 223 245 221T210 214T185 196T176 164Q176 144 186 131T215 111T254 104Z" />
<glyph unicode="b" horiz-adv-x="624" d="M355 -7Q329 -7 301 -2T245 17T193 59L192 0H55V708H195V465Q225 501 269 518T362 536Q440 536 490 501T564 404T589 264Q589 187 564 126T488 29T355 -7ZM325 118Q374 118 401 140T439 196T450 267Q450 304 438 336T399
388T325 408Q283 408 254 388T209 334T194 263Q194 225 207 192T250 138T325 118Z" />
<glyph unicode="c" horiz-adv-x="562" d="M291 -7Q210 -7 153 26T65 119T35 262Q35 345 66 406T155 502T297 536Q361 536 411 513T491 447T527 341H390Q381 376 356 392T295 408Q250 408 224 386T186 330T174 262Q174 225 186 193T224 140T294 119Q330 119 357
135T392 187H532Q527 122 493 79T407 15T291 -7Z" />
<glyph unicode="d" horiz-adv-x="625" d="M272 -7Q192 -7 140 29T61 127T35 264Q35 343 63 404T146 501T283 536Q311 536 338 530T389 511T430 478V708H570V0H434L432 59Q414 36 389 22T334 0T272 -7ZM300 119Q345 119 373 140T416 194T430 265Q430 304 417 336T375
388T300 408Q254 408 226 387T187 333T175 261Q175 233 181 208T203 162T242 131T300 119Z" />
<glyph unicode="e" horiz-adv-x="575" d="M296 -7Q213 -7 155 26T66 119T35 261Q35 343 67 404T157 501T296 536Q356 536 401 516T478 460T525 377T540 274Q540 260 539 247T535 221H174Q177 191 191 166T230 127T294 112Q319 112 340 117T376 135T397 163H535Q522
104 487 66T401 11T296 -7ZM177 319H406Q405 346 393 369T356 407T293 422Q255 422 230 407T192 369T177 319Z" />
<glyph unicode="f" horiz-adv-x="384" d="M99 0V402H20V527H99V575Q99 635 118 673T178 730T282 748H369V624H300Q277 624 264 617T245 596T240 560V527H369V402H240V0H99Z" />
<glyph unicode="g" horiz-adv-x="625" d="M309 -244Q247 -244 195 -225T107 -163T58 -55H201Q208 -75 223 -88T261 -109T309 -116Q356 -116 382 -96T418 -44T428 28V65Q410 36 383 21T327 0T270 -7Q187 -7 135 30T59 127T35 258Q35 335 62 398T143 498T278 535Q327
535 365 520T430 474L442 527H570V67Q570 -29 545 -98T463 -206T309 -244ZM301 119Q345 119 373 139T416 192T430 265Q430 306 416 338T374 390T302 410Q254 410 226 388T187 332T175 261Q175 223 187 191T227 139T301 119Z" />
<glyph unicode="h" horiz-adv-x="605" d="M55 0V708H195V466Q218 493 246 508T304 529T359 536Q433 536 475 503T535 414T553 291V0H413V271Q413 295 409 319T393 363T362 396T309 409Q278 409 256 396T221 362T201 314T195 262V0H55Z" />
<glyph unicode="i" horiz-adv-x="251" d="M55 0V527H195V0H55ZM125 580Q86 580 62 603T38 664Q38 703 63 727T126 751Q161 751 186 728T212 665Q212 627 188 604T125 580Z" />
<glyph unicode="j" horiz-adv-x="268" d="M-44 -204V-79H-5Q26 -79 40 -68T59 -40T63 -5V527H203V-25Q203 -85 186 -125T132 -184T30 -204H-44ZM132 580Q93 580 69 603T45 664Q45 703 70 727T133 751Q168 751 193 728T219 665Q219 627 195 604T132 580Z" />
<glyph unicode="k" horiz-adv-x="559" d="M55 0V708H195V325H264L393 527H550L382 276L564 0H402L270 200H195V0H55Z" />
<glyph unicode="l" horiz-adv-x="251" d="M55 0V708H195V0H55Z" />
<glyph unicode="m" horiz-adv-x="852" d="M55 0V527H181L193 468Q213 496 237 510T287 530T333 535Q380 535 416 517T474 459Q495 488 520 504T573 528T630 535Q691 535 728 510T783 439T801 334V0H661V297Q661 315 659 334T650 370T628 398T587 409Q562 409 545
398T518 369T504 329T499 285V0H359V298Q359 315 357 334T348 370T326 398T283 409Q246 409 227 388T201 337T195 282V0H55Z" />
<glyph unicode="n" horiz-adv-x="605" d="M55 0V527H186L193 466Q215 493 243 508T301 530T355 536Q431 536 473 503T534 415T553 291V0H413V273Q413 297 409 321T395 365T365 397T315 409Q275 409 248 389T208 335T195 260V0H55Z" />
<glyph unicode="o" horiz-adv-x="599" d="M301 -7Q221 -7 161 25T68 118T35 262Q35 347 68 408T162 503T300 536Q380 536 439 502T531 407T564 261Q564 178 532 118T441 25T301 -7ZM299 121Q345 121 373 141T413 193T426 262Q426 298 414 331T374 385T299 407Q254
407 226 386T186 331T173 262Q173 225 185 193T226 141T299 121Z" />
<glyph unicode="p" horiz-adv-x="624" d="M55 -197V527H186L193 461Q225 500 266 518T358 536Q436 536 487 500T563 403T589 265Q589 187 563 126T483 29T351 -7Q317 -7 287 1T234 22T195 53V-197H55ZM327 119Q374 119 401 140T439 193T450 261Q450 299 438 333T399
387T324 408Q282 408 253 388T209 334T194 263Q194 225 208 192T252 139T327 119Z" />
<glyph unicode="q" horiz-adv-x="625" d="M430 -197V57Q400 20 357 7T273 -7Q213 -7 168 13T94 70T50 155T35 261Q35 342 64 404T148 501T281 536Q326 536 366 521T433 473L440 527H570V-197H430ZM303 119Q345 119 373 139T415 192T430 264Q430 304 416 336T373
388T301 408Q257 408 229 388T188 336T175 265Q175 227 188 194T229 140T303 119Z" />
<glyph unicode="r" horiz-adv-x="393" d="M55 0V527H181L190 464Q210 494 235 509T287 530T342 536Q355 536 366 536T382 535V400H349Q302 400 267 384T214 334T195 247V0H55Z" />
<glyph unicode="s" horiz-adv-x="513" d="M261 -7Q224 -7 185 1T113 28T57 81T27 165H169Q175 147 190 134T226 115T268 109Q282 109 296 111T322 119T341 134T348 159Q348 175 338 184T310 198T269 209Q228 218 181 229T100 261Q86 271 75 283T57 310T46 341T42
377Q42 420 60 450T110 500T179 527T257 536Q311 536 357 519T433 465T470 370H336Q332 392 309 405T252 419Q240 419 227 417T202 410T184 397T177 374Q177 363 183 354T202 339T233 328Q267 320 301 314T363 300Q396 293 423 277T468 234T486 162Q486 112 466
80T413 28T340 1T261 -7Z" />
<glyph unicode="t" horiz-adv-x="366" d="M294 0Q228 0 184 16T117 70T94 176V402H16V527H94V668H234V527H349V402H234V196Q234 163 246 144T300 125H344V0H294Z" />
<glyph unicode="u" horiz-adv-x="585" d="M294 -7Q178 -7 116 52T53 232V527H193V242Q193 206 203 179T236 135T295 119Q334 119 355 136T384 181T392 242V527H531V232Q531 107 469 50T294 -7Z" />
<glyph unicode="v" horiz-adv-x="558" d="M185 0L0 527H153L279 114L404 527H558L373 0H185Z" />
<glyph unicode="w" horiz-adv-x="867" d="M168 0L2 527H155L253 160L357 527H514L618 160L714 527H865L699 0H538L433 356L329 0H168Z" />
<glyph unicode="x" horiz-adv-x="560" d="M6 0L190 269L15 527H178L282 361L384 527H542L366 266L554 0H391L276 173L162 0H6Z" />
<glyph unicode="y" horiz-adv-x="616" d="M288 -243Q227 -243 169 -227T60 -173L107 -61Q139 -85 180 -99T271 -114Q348 -114 385 -78T423 26V54Q406 31 381 18T326 -2T268 -8Q192 -8 146 24T80 111T59 238V527H199V267Q199 241 202 215T216 167T249 132T308 118Q356
118 380 141T412 201T421 276V527H561V76Q561 4 548 -55T503 -156T419 -220T288 -243Z" />
<glyph unicode="z" horiz-adv-x="510" d="M35 0V106L295 402H35V527H475V422L214 125H475V0H35Z" />
<glyph unicode="{" horiz-adv-x="403" d="M253 -170Q192 -170 154 -142T115 -42V160Q115 191 108 210T81 238T25 247V367Q62 367 81 375T107 403T115 455V656Q115 728 153 756T253 784H356V661H289Q268 661 260 653T251 632T250 605V430Q250 388 239 357T199 307Q218
294 229 276T245 235T250 184V9Q250 -5 251 -18T260 -39T289 -47H356V-170H253Z" />
<glyph unicode="|" horiz-adv-x="283" d="M75 -165V797H208V-165H75Z" />
<glyph unicode="}" horiz-adv-x="403" d="M151 -170H48V-47H115Q137 -47 144 -39T153 -18T154 9V184Q154 212 159 235T175 276T205 307Q177 326 166 357T154 430V605Q154 619 153 632T145 653T115 661H48V784H151Q212 784 250 756T289 656V455Q289 423 296 404T323
376T379 367V247Q343 247 324 238T297 210T289 160V-42Q289 -114 251 -142T151 -170Z" />
<glyph unicode="~" horiz-adv-x="592" d="M409 240Q360 240 326 263T268 308Q254 321 239 332T207 343Q184 343 174 326T161 286T161 248H38Q34 288 40 328T64 401T115 454T196 474Q243 474 272 454T325 413Q340 401 356 389T390 376Q410 376 420 389T434 423T435
465H556Q559 403 548 360T516 291T467 252T409 240Z" />
<glyph unicode="&#xa0;" horiz-adv-x="282" />
<glyph unicode="&#xa1;" horiz-adv-x="304" d="M75 -180L87 287H217L229 -180H75ZM151 364Q113 364 89 387T65 449Q65 488 90 512T153 536Q189 536 214 513T239 450Q239 411 214 388T151 364Z" />
<glyph unicode="&#xa2;" horiz-adv-x="598" d="M239 -148V0Q175 13 133 48T69 137T47 260Q47 333 70 390T136 484T238 531V679H370V532Q442 523 489 475T545 343H408Q399 377 373 395T308 413Q263 413 236 391T198 334T186 264Q186 226 199 193T239 140T307 119Q344
119 373 136T409 187H551Q542 106 493 59T371 -1V-148H239Z" />
<glyph unicode="&#xa3;" horiz-adv-x="613" d="M48 0V132H129V275H47V401H129V507Q129 579 159 625T240 693T355 716Q441 716 498 671T559 523H428Q427 542 420 558T397 584T356 595Q328 595 309 585T280 556T269 509V401H476V275H269V132H566V0H48Z" />
<glyph unicode="&#xa5;" horiz-adv-x="729" d="M294 0V82H143V191H294V243H143V355H240L27 708H192L366 396L537 708H702L489 355H587V243H437V191H587V82H437V0H294Z" />
<glyph unicode="&#xa7;" horiz-adv-x="569" d="M292 -8Q248 -8 207 0T130 28T73 81T47 163H192Q199 142 215 128T252 108T291 102Q311 102 329 105T360 119T372 148Q372 164 365 172T347 184T321 191Q291 197 255 204T183 221T123 247Q92 267 76 295T60 358Q60
392 75 420T118 463Q92 480 80 507T67 564Q67 608 87 637T139 683T210 708T287 715Q342 715 390 700T470 649T507 556H365Q362 575 350 586T321 602T286 608Q267 608 250 604T222 590T211 562Q211 544 224 534T255 519T286 512Q312 507 338 502T390 491T438 477Q482
461 501 432T520 363Q520 330 507 302T471 256Q498 238 508 211T518 154Q518 109 498 79T446 29T373 1T292 -8ZM362 297Q369 301 373 308T381 325T385 343Q385 367 366 377T324 393Q299 399 271 405T217 417Q207 409 202 396T196 371Q196 358 202 348T221 332T252
320Q274 315 306 308T362 297Z" />
<glyph unicode="&#xa8;" horiz-adv-x="612" d="M427 571Q395 571 372 591T348 648Q348 685 372 706T427 727Q459 727 483 706T507 648Q507 611 484 591T427 571ZM184 571Q152 571 129 591T105 648Q105 685 129 706T184 727Q216 727 240 706T264 648Q264 611 241
591T184 571Z" />
<glyph unicode="&#xa9;" horiz-adv-x="920" d="M459 -100Q335 -100 243 -51T99 90T47 309Q47 437 99 530T244 673T456 724Q579 724 672 673T819 527T873 306Q873 180 821 89T675 -51T459 -100ZM462 10Q557 10 623 48T725 153T761 310Q761 398 726 466T624 574T464
613Q371 613 303 574T199 467T162 309Q162 221 197 154T300 48T462 10ZM468 101Q405 101 359 125T288 196T263 310Q263 379 289 426T362 498T471 523Q546 523 595 487T657 366H539Q535 394 515 405T467 417Q433 417 414 401T388 361T381 311Q381 286 388 262T413
223T466 207Q496 207 516 219T541 257H659Q650 201 624 167T558 117T468 101Z" />
<glyph unicode="&#xaa;" horiz-adv-x="374" d="M147 432Q99 432 69 457T38 529Q38 568 57 589T107 618T176 626H237Q236 650 224 663T186 677Q171 677 155 672T136 650H46Q50 686 70 709T122 743T189 755Q235 755 264 737T308 686T323 605V436H243L241 474Q222
451 198 442T147 432ZM168 504Q197 504 217 519T238 565H178Q166 565 155 563T135 555T126 536Q126 520 138 512T168 504Z" />
<glyph unicode="&#xab;" horiz-adv-x="564" d="M159 82L27 272L159 461H291L157 272L291 82H159ZM385 82L254 272L385 461H517L384 272L517 82H385Z" />
<glyph unicode="&#xae;" horiz-adv-x="491" d="M245 343Q185 343 139 366T67 433T40 539Q40 601 66 646T139 715T246 739Q308 739 353 715T425 646T451 539Q451 478 425 434T353 367T245 343ZM246 405Q308 405 347 439T386 541Q386 606 349 642T247 679Q183 679
144 642T104 539Q104 474 143 440T246 405ZM171 446V646H255Q289 646 312 631T335 580Q335 558 326 542T298 518L345 446H281L242 510H227V446H171ZM227 557H257Q266 557 273 562T280 579Q280 589 274 593T256 597H227V557Z" />
<glyph unicode="&#xaf;" horiz-adv-x="583" d="M109 623V744H474V623H109Z" />
<glyph unicode="&#xb0;" horiz-adv-x="407" d="M203 475Q160 475 125 492T68 542T47 623Q47 672 69 706T127 760T205 780Q247 780 282 761T339 708T360 624Q360 576 339 543T282 493T203 475ZM205 568Q230 568 246 583T263 626Q263 653 247 669T205 685Q180 685
163 669T146 626Q146 599 163 584T205 568Z" />
<glyph unicode="&#xb1;" horiz-adv-x="592" d="M234 228V350H76V476H234V636H359V476H517V350H359V228H234ZM76 55V180H517V55H76Z" />
<glyph unicode="&#xb2;" horiz-adv-x="382" d="M57 361V439L166 529Q177 539 192 552T220 581T232 613Q232 632 220 642T188 652Q169 652 158 642T146 613H54Q55 678 94 711T194 745Q253 745 290 714T328 625Q328 586 311 557T267 504Q252 490 237 478T206 452H325V361H57Z"
/>
<glyph unicode="&#xb3;" horiz-adv-x="411" d="M208 357Q167 357 133 371T79 414T54 486H151Q154 466 170 458T207 449Q225 449 241 456T257 484Q257 500 246 507T221 515H168V592H205Q214 592 223 595T238 606T244 624Q244 640 232 647T204 654Q186 654 174 646T160
621H64Q68 685 107 715T208 745Q243 745 273 735T323 703T343 643Q343 620 333 599T304 567Q333 555 344 530T356 476Q356 435 334 409T279 370T208 357Z" />
<glyph unicode="&#xb4;" horiz-adv-x="0" d="M-76 591L37 763H186L44 591H-76Z" />
<glyph unicode="&#xb6;" horiz-adv-x="730" d="M234 0V315H223Q171 315 124 335T46 399T15 513Q15 577 44 620T118 685T213 708H715V575H618V0H474V575H378V0H234Z" />
<glyph unicode="&#xb7;" horiz-adv-x="284" d="M142 272Q103 272 79 295T55 357Q55 395 80 419T143 443Q179 443 204 420T229 357Q229 319 205 296T142 272Z" />
<glyph unicode="&#xb8;" horiz-adv-x="612" d="M276 -266Q253 -267 237 -266T205 -263V-179Q229 -183 249 -183T284 -179T308 -166T317 -141Q317 -128 309 -121T289 -111T264 -108Q249 -107 233 -110T207 -117L248 34H340L321 -40Q327 -40 333 -40T345 -41Q380
-46 401 -68T423 -137Q423 -181 402 -209T348 -250T276 -266Z" />
<glyph unicode="&#xba;" horiz-adv-x="383" d="M191 430Q138 430 107 453T62 512T48 591Q48 634 61 671T107 730T192 753Q246 753 277 731T321 671T335 592Q335 550 322 513T277 453T191 430ZM191 508Q217 508 229 521T245 555T250 592Q250 610 246 629T230 661T192
675Q168 675 155 662T138 629T133 589Q133 573 137 554T153 522T191 508Z" />
<glyph unicode="&#xbb;" horiz-adv-x="564" d="M274 82L407 271L274 461H405L537 271L405 82H274ZM47 82L181 271L47 461H178L309 271L178 82H47Z" />
<glyph unicode="&#xbf;" horiz-adv-x="530" d="M348 296Q350 289 350 282T350 269Q350 238 340 214T314 171T279 134T242 100Q227 86 214 72T193 43T185 11Q185 -10 195 -25T225 -49T271 -57Q299 -57 319 -49T352 -24T367 14H505Q503 -42 483 -81T430 -143T356
-177T270 -188Q213 -188 161 -169T76 -108T43 1Q43 37 55 65T88 118T136 169Q153 186 170 201T199 236T214 280Q214 284 214 288T215 296H348ZM281 536Q315 536 341 514T368 448Q368 405 342 384T281 362Q246 362 220 383T194 448Q194 492 220 514T281 536Z" />
<glyph unicode="&#xc0;" horiz-adv-x="711" d="M1 0L277 708H437L710 0H556L512 121H199L155 0H1ZM245 250H467L357 556L245 250ZM315 770L173 941H322L435 770H315Z" />
<glyph unicode="&#xc1;" horiz-adv-x="711" d="M1 0L277 708H437L710 0H556L512 121H199L155 0H1ZM245 250H467L357 556L245 250ZM280 769L393 941H542L400 769H280Z" />
<glyph unicode="&#xc2;" horiz-adv-x="711" d="M1 0L277 708H437L710 0H556L512 121H199L155 0H1ZM245 250H467L357 556L245 250ZM155 770L308 950H401L556 770H422L354 858L288 770H155Z" />
<glyph unicode="&#xc3;" horiz-adv-x="711" d="M1 0L277 708H437L710 0H556L512 121H199L155 0H1ZM245 250H467L357 556L245 250ZM437 765Q409 765 387 776T348 800T317 824T290 835Q276 835 269 823T261 796T262 770H166Q163 812 172 849T209 910T286 934Q312
934 331 924T366 901T395 878T422 868Q437 868 442 878T449 903T449 928H545Q548 889 540 851T508 789T437 765Z" />
<glyph unicode="&#xc4;" horiz-adv-x="711" d="M1 0L277 708H437L710 0H556L512 121H199L155 0H1ZM245 250H467L357 556L245 250ZM478 764Q445 764 422 784T398 841Q398 879 422 900T478 921Q511 921 534 901T557 842Q557 804 534 784T478 764ZM233 764Q201 764
177 784T153 841Q153 879 177 900T233 921Q265 921 289 901T313 841Q313 804 290 784T233 764Z" />
<glyph unicode="&#xc5;" horiz-adv-x="711" d="M1 0L277 708H437L710 0H556L512 121H199L155 0H1ZM245 250H467L357 556L245 250ZM356 753Q304 753 271 784T237 865Q237 916 271 948T357 981Q408 981 441 949T475 865Q475 815 442 784T356 753ZM356 826Q375 826
386 837T397 867Q397 884 386 895T356 907Q338 907 327 896T315 867Q315 849 326 838T356 826Z" />
<glyph unicode="&#xc6;" horiz-adv-x="934" d="M0 0L322 708H898V575H566V415H846V287H566V132H898V0H423V120H211L154 0H0ZM263 250H423V575H407L263 250Z" />
<glyph unicode="&#xc7;" horiz-adv-x="714" d="M377 -8Q268 -8 192 36T76 162T36 351Q36 461 76 543T193 670T376 716Q457 716 521 689T624 608T674 476H536Q523 525 484 553T379 582Q307 582 265 550T203 466T184 357Q184 298 204 245T267 159T382 126Q424 126
457 138T511 175T541 232H684Q675 155 632 101T523 20T377 -8ZM347 -267Q324 -268 308 -267T276 -264V-180Q300 -184 320 -184T355 -180T379 -167T388 -142Q388 -129 380 -122T360 -112T335 -109Q320 -108 304 -111T278 -118L319 33H411L392 -41Q398 -41 404 -41T416
-42Q451 -47 472 -69T494 -138Q494 -182 473 -210T419 -251T347 -267Z" />
<glyph unicode="&#xc8;" horiz-adv-x="621" d="M75 0V708H585V575H218V415H533V287H218V132H585V0H75ZM291 770L149 941H298L411 770H291Z" />
<glyph unicode="&#xc9;" horiz-adv-x="621" d="M75 0V708H585V575H218V415H533V287H218V132H585V0H75ZM256 769L369 941H518L376 769H256Z" />
<glyph unicode="&#xca;" horiz-adv-x="621" d="M75 0V708H585V575H218V415H533V287H218V132H585V0H75ZM131 770L284 950H377L532 770H398L330 858L264 770H131Z" />
<glyph unicode="&#xcb;" horiz-adv-x="621" d="M75 0V708H585V575H218V415H533V287H218V132H585V0H75ZM455 764Q422 764 399 784T375 841Q375 879 399 900T455 921Q488 921 511 901T534 842Q534 804 511 784T455 764ZM210 764Q178 764 154 784T130 841Q130 879
154 900T210 921Q242 921 266 901T290 841Q290 804 267 784T210 764Z" />
<glyph unicode="&#xcc;" horiz-adv-x="293" d="M75 0V708H218V0H75ZM106 770L-36 941H113L226 770H106Z" />
<glyph unicode="&#xcd;" horiz-adv-x="293" d="M75 0V708H218V0H75ZM71 769L184 941H333L191 769H71Z" />
<glyph unicode="&#xce;" horiz-adv-x="293" d="M75 0V708H218V0H75ZM-54 770L99 950H192L347 770H213L145 858L79 770H-54Z" />
<glyph unicode="&#xcf;" horiz-adv-x="293" d="M75 0V708H218V0H75ZM270 764Q237 764 214 784T190 841Q190 879 214 900T270 921Q303 921 326 901T349 842Q349 804 326 784T270 764ZM25 764Q-7 764 -31 784T-55 841Q-55 879 -31 900T25 921Q57 921 81 901T105
841Q105 804 82 784T25 764Z" />
<glyph unicode="&#xd0;" horiz-adv-x="730" d="M75 0V292H-5V415H75V708H342Q454 708 532 666T652 544T693 351Q693 240 653 162T535 42T343 0H75ZM218 132H342Q415 132 460 159T526 236T548 353Q548 423 526 472T457 548T339 575H218V415H358V292H218V132Z" />
<glyph unicode="&#xd1;" horiz-adv-x="766" d="M75 0V708H221L548 229V708H691V0H549L218 474V0H75ZM465 765Q437 765 415 776T376 800T345 824T318 835Q304 835 297 823T289 796T290 770H194Q191 812 200 849T237 910T314 934Q340 934 359 924T394 901T423 878T450
868Q465 868 470 878T477 903T477 928H573Q576 889 568 851T536 789T465 765Z" />
<glyph unicode="&#xd2;" horiz-adv-x="773" d="M385 -8Q276 -8 198 38T78 165T36 353Q36 461 78 543T200 670T388 716Q496 716 574 671T694 545T737 356Q737 250 695 168T574 39T385 -8ZM387 126Q459 126 504 159T569 244T590 353Q590 395 579 436T543 510T480
562T386 582Q315 582 270 550T204 465T182 354Q182 295 203 243T270 159T387 126ZM346 770L204 941H353L466 770H346Z" />
<glyph unicode="&#xd3;" horiz-adv-x="773" d="M385 -8Q276 -8 198 38T78 165T36 353Q36 461 78 543T200 670T388 716Q496 716 574 671T694 545T737 356Q737 250 695 168T574 39T385 -8ZM387 126Q459 126 504 159T569 244T590 353Q590 395 579 436T543 510T480
562T386 582Q315 582 270 550T204 465T182 354Q182 295 203 243T270 159T387 126ZM311 769L424 941H573L431 769H311Z" />
<glyph unicode="&#xd4;" horiz-adv-x="773" d="M385 -8Q276 -8 198 38T78 165T36 353Q36 461 78 543T200 670T388 716Q496 716 574 671T694 545T737 356Q737 250 695 168T574 39T385 -8ZM387 126Q459 126 504 159T569 244T590 353Q590 395 579 436T543 510T480
562T386 582Q315 582 270 550T204 465T182 354Q182 295 203 243T270 159T387 126ZM186 770L339 950H432L587 770H453L385 858L319 770H186Z" />
<glyph unicode="&#xd5;" horiz-adv-x="773" d="M385 -8Q276 -8 198 38T78 165T36 353Q36 461 78 543T200 670T388 716Q496 716 574 671T694 545T737 356Q737 250 695 168T574 39T385 -8ZM387 126Q459 126 504 159T569 244T590 353Q590 395 579 436T543 510T480
562T386 582Q315 582 270 550T204 465T182 354Q182 295 203 243T270 159T387 126ZM468 765Q440 765 418 776T379 800T348 824T321 835Q307 835 300 823T292 796T293 770H197Q194 812 203 849T240 910T317 934Q343 934 362 924T397 901T426 878T453 868Q468 868
473 878T480 903T480 928H576Q579 889 571 851T539 789T468 765Z" />
<glyph unicode="&#xd6;" horiz-adv-x="773" d="M385 -8Q276 -8 198 38T78 165T36 353Q36 461 78 543T200 670T388 716Q496 716 574 671T694 545T737 356Q737 250 695 168T574 39T385 -8ZM387 126Q459 126 504 159T569 244T590 353Q590 395 579 436T543 510T480
562T386 582Q315 582 270 550T204 465T182 354Q182 295 203 243T270 159T387 126ZM509 764Q476 764 453 784T429 841Q429 879 453 900T509 921Q542 921 565 901T588 842Q588 804 565 784T509 764ZM264 764Q232 764 208 784T184 841Q184 879 208 900T264 921Q296
921 320 901T344 841Q344 804 321 784T264 764Z" />
<glyph unicode="&#xd7;" horiz-adv-x="592" d="M147 124L61 210L211 358L61 506L147 590L297 441L444 590L532 506L381 358L532 210L446 124L297 275L147 124Z" />
<glyph unicode="&#xd8;" horiz-adv-x="773" d="M144 -111L199 38Q147 68 111 115T55 221T36 352Q36 460 78 542T199 670T385 716Q403 716 419 715T449 710L490 819H628L573 671Q626 640 662 594T718 488T737 356Q737 250 695 168T574 39T387 -8Q369 -8 353 -7T323
-3L282 -111H144ZM254 173L407 578Q397 580 386 580T363 580Q303 575 263 544T203 463T182 354Q182 316 190 283T214 221T254 173ZM411 128Q471 133 511 164T570 245T590 354Q590 392 582 425T558 487T518 535L364 129Q387 126 411 128Z" />
<glyph unicode="&#xd9;" horiz-adv-x="737" d="M370 -8Q266 -8 200 31T102 143T70 318V708H213V311Q213 263 227 221T276 152T371 125Q432 125 465 151T511 221T524 311V708H667V318Q667 217 636 144T539 31T370 -8ZM328 770L186 941H335L448 770H328Z" />
<glyph unicode="&#xda;" horiz-adv-x="737" d="M370 -8Q266 -8 200 31T102 143T70 318V708H213V311Q213 263 227 221T276 152T371 125Q432 125 465 151T511 221T524 311V708H667V318Q667 217 636 144T539 31T370 -8ZM293 769L406 941H555L413 769H293Z" />
<glyph unicode="&#xdb;" horiz-adv-x="737" d="M370 -8Q266 -8 200 31T102 143T70 318V708H213V311Q213 263 227 221T276 152T371 125Q432 125 465 151T511 221T524 311V708H667V318Q667 217 636 144T539 31T370 -8ZM168 770L321 950H414L569 770H435L367 858L301
770H168Z" />
<glyph unicode="&#xdc;" horiz-adv-x="737" d="M370 -8Q266 -8 200 31T102 143T70 318V708H213V311Q213 263 227 221T276 152T371 125Q432 125 465 151T511 221T524 311V708H667V318Q667 217 636 144T539 31T370 -8ZM491 764Q458 764 435 784T411 841Q411 879
435 900T491 921Q524 921 547 901T570 842Q570 804 547 784T491 764ZM246 764Q214 764 190 784T166 841Q166 879 190 900T246 921Q278 921 302 901T326 841Q326 804 303 784T246 764Z" />
<glyph unicode="&#xdd;" horiz-adv-x="682" d="M269 0V264L6 708H171L341 397L514 708H676L412 265V0H269ZM265 769L378 941H527L385 769H265Z" />
<glyph unicode="&#xde;" horiz-adv-x="648" d="M75 0V708H218V598H345Q428 598 488 574T580 496T613 355Q613 272 576 217T476 134T334 107H218V0H75ZM218 235H332Q372 235 403 247T453 285T471 353Q471 416 436 441T339 466H218V235Z" />
<glyph unicode="&#xdf;" horiz-adv-x="652" d="M433 -7Q380 -7 335 11T261 68T229 165H361Q364 136 381 123T425 109Q452 109 471 122T490 164Q490 181 482 193T454 215Q432 226 408 235T361 255Q319 272 295 298T271 369Q271 404 288 431T325 483Q340 501 353
520T366 566Q366 582 357 596T328 620T281 630Q252 630 233 619T205 590T195 548V0H55V556Q55 605 72 641T120 702T192 739T284 751Q325 751 365 742T437 713T489 662T509 587Q509 556 499 533T475 492T445 458Q431 441 419 424T406 392Q406 373 417 362T454 341Q476
332 496 323T538 305Q581 285 604 250T627 164Q627 105 601 67T531 11T433 -7Z" />
<glyph unicode="&#xe0;" horiz-adv-x="568" d="M222 -7Q186 -7 153 2T93 32T52 82T37 152Q37 206 59 238T118 288T203 311T304 317H380Q380 346 370 368T338 403T284 416Q263 416 244 411T211 395T194 369H52Q58 413 80 444T135 496T207 525T289 535Q404 535 459
470T514 284V0H388L386 68Q361 33 330 17T269 -3T222 -7ZM254 104Q289 104 318 118T364 156T381 210V223H285Q264 223 245 221T210 214T185 196T176 164Q176 144 186 131T215 111T254 104ZM250 591L108 762H257L370 591H250Z" />
<glyph unicode="&#xe1;" horiz-adv-x="568" d="M222 -7Q186 -7 153 2T93 32T52 82T37 152Q37 206 59 238T118 288T203 311T304 317H380Q380 346 370 368T338 403T284 416Q263 416 244 411T211 395T194 369H52Q58 413 80 444T135 496T207 525T289 535Q404 535 459
470T514 284V0H388L386 68Q361 33 330 17T269 -3T222 -7ZM254 104Q289 104 318 118T364 156T381 210V223H285Q264 223 245 221T210 214T185 196T176 164Q176 144 186 131T215 111T254 104ZM215 591L328 763H477L335 591H215Z" />
<glyph unicode="&#xe2;" horiz-adv-x="568" d="M222 -7Q186 -7 153 2T93 32T52 82T37 152Q37 206 59 238T118 288T203 311T304 317H380Q380 346 370 368T338 403T284 416Q263 416 244 411T211 395T194 369H52Q58 413 80 444T135 496T207 525T289 535Q404 535 459
470T514 284V0H388L386 68Q361 33 330 17T269 -3T222 -7ZM254 104Q289 104 318 118T364 156T381 210V223H285Q264 223 245 221T210 214T185 196T176 164Q176 144 186 131T215 111T254 104ZM90 591L243 771H336L491 591H357L289 679L223 591H90Z" />
<glyph unicode="&#xe3;" horiz-adv-x="568" d="M222 -7Q186 -7 153 2T93 32T52 82T37 152Q37 206 59 238T118 288T203 311T304 317H380Q380 346 370 368T338 403T284 416Q263 416 244 411T211 395T194 369H52Q58 413 80 444T135 496T207 525T289 535Q404 535 459
470T514 284V0H388L386 68Q361 33 330 17T269 -3T222 -7ZM254 104Q289 104 318 118T364 156T381 210V223H285Q264 223 245 221T210 214T185 196T176 164Q176 144 186 131T215 111T254 104ZM372 586Q344 586 322 597T283 621T252 645T225 656Q211 656 204 644T196
617T197 591H101Q98 633 107 670T144 731T221 755Q247 755 266 745T301 722T330 699T357 689Q372 689 377 699T384 724T384 749H480Q483 710 475 672T443 610T372 586Z" />
<glyph unicode="&#xe4;" horiz-adv-x="568" d="M222 -7Q186 -7 153 2T93 32T52 82T37 152Q37 206 59 238T118 288T203 311T304 317H380Q380 346 370 368T338 403T284 416Q263 416 244 411T211 395T194 369H52Q58 413 80 444T135 496T207 525T289 535Q404 535 459
470T514 284V0H388L386 68Q361 33 330 17T269 -3T222 -7ZM254 104Q289 104 318 118T364 156T381 210V223H285Q264 223 245 221T210 214T185 196T176 164Q176 144 186 131T215 111T254 104ZM414 585Q381 585 358 605T334 662Q334 700 358 721T414 742Q447 742 470
722T493 663Q493 625 470 605T414 585ZM169 585Q137 585 113 605T89 662Q89 700 113 721T169 742Q201 742 225 722T249 662Q249 625 226 605T169 585Z" />
<glyph unicode="&#xe5;" horiz-adv-x="568" d="M222 -7Q186 -7 153 2T93 32T52 82T37 152Q37 206 59 238T118 288T203 311T304 317H380Q380 346 370 368T338 403T284 416Q263 416 244 411T211 395T194 369H52Q58 413 80 444T135 496T207 525T289 535Q404 535 459
470T514 284V0H388L386 68Q361 33 330 17T269 -3T222 -7ZM254 104Q289 104 318 118T364 156T381 210V223H285Q264 223 245 221T210 214T185 196T176 164Q176 144 186 131T215 111T254 104ZM291 574Q239 574 206 605T172 686Q172 737 206 769T292 802Q343 802 376
770T410 686Q410 636 377 605T291 574ZM291 647Q310 647 321 658T332 688Q332 705 321 716T291 728Q273 728 262 717T250 688Q250 670 261 659T291 647Z" />
<glyph unicode="&#xe6;" horiz-adv-x="912" d="M240 -7Q187 -7 141 10T66 64T37 154Q37 205 57 237T110 286T184 309T266 316H380Q379 349 368 371T335 404T284 416Q258 416 230 406T194 369H52Q60 426 95 463T180 517T287 535Q334 535 379 520T457 466Q488 498
532 517T635 536Q708 536 762 503T847 412T877 277Q877 263 876 249T872 221H512Q514 185 529 161T571 124T631 112Q652 112 672 116T710 132T734 163H873Q859 105 824 67T740 11T632 -7Q571 -7 520 14T435 77Q412 48 382 29T317 2T240 -7ZM257 104Q293 104 320
117T363 156T382 216V221H259Q244 221 230 219T203 210T184 193T176 164Q176 142 188 129T219 110T257 104ZM514 316H743Q743 349 728 372T689 409T632 422Q599 422 573 409T532 373T514 316Z" />
<glyph unicode="&#xe7;" horiz-adv-x="562" d="M291 -7Q210 -7 153 26T65 119T35 262Q35 345 66 406T155 502T297 536Q361 536 411 513T491 447T527 341H390Q381 376 356 392T295 408Q250 408 224 386T186 330T174 262Q174 225 186 193T224 140T294 119Q330 119
357 135T392 187H532Q527 122 493 79T407 15T291 -7ZM270 -267Q247 -268 231 -267T199 -264V-180Q223 -184 243 -184T278 -180T302 -167T311 -142Q311 -129 303 -122T283 -112T258 -109Q243 -108 227 -111T201 -118L242 33H334L315 -41Q321 -41 327 -41T339 -42Q374
-47 395 -69T417 -138Q417 -182 396 -210T342 -251T270 -267Z" />
<glyph unicode="&#xe8;" horiz-adv-x="575" d="M296 -7Q213 -7 155 26T66 119T35 261Q35 343 67 404T157 501T296 536Q356 536 401 516T478 460T525 377T540 274Q540 260 539 247T535 221H174Q177 191 191 166T230 127T294 112Q319 112 340 117T376 135T397 163H535Q522
104 487 66T401 11T296 -7ZM177 319H406Q405 346 393 369T356 407T293 422Q255 422 230 407T192 369T177 319ZM255 589L113 760H262L375 589H255Z" />
<glyph unicode="&#xe9;" horiz-adv-x="575" d="M296 -7Q213 -7 155 26T66 119T35 261Q35 343 67 404T157 501T296 536Q356 536 401 516T478 460T525 377T540 274Q540 260 539 247T535 221H174Q177 191 191 166T230 127T294 112Q319 112 340 117T376 135T397 163H535Q522
104 487 66T401 11T296 -7ZM177 319H406Q405 346 393 369T356 407T293 422Q255 422 230 407T192 369T177 319ZM221 589L334 761H483L341 589H221Z" />
<glyph unicode="&#xea;" horiz-adv-x="575" d="M296 -7Q213 -7 155 26T66 119T35 261Q35 343 67 404T157 501T296 536Q356 536 401 516T478 460T525 377T540 274Q540 260 539 247T535 221H174Q177 191 191 166T230 127T294 112Q319 112 340 117T376 135T397 163H535Q522
104 487 66T401 11T296 -7ZM177 319H406Q405 346 393 369T356 407T293 422Q255 422 230 407T192 369T177 319ZM96 589L249 769H342L497 589H363L295 677L229 589H96Z" />
<glyph unicode="&#xeb;" horiz-adv-x="575" d="M296 -7Q213 -7 155 26T66 119T35 261Q35 343 67 404T157 501T296 536Q356 536 401 516T478 460T525 377T540 274Q540 260 539 247T535 221H174Q177 191 191 166T230 127T294 112Q319 112 340 117T376 135T397 163H535Q522
104 487 66T401 11T296 -7ZM177 319H406Q405 346 393 369T356 407T293 422Q255 422 230 407T192 369T177 319ZM419 583Q386 583 363 603T339 660Q339 698 363 719T419 740Q452 740 475 720T498 661Q498 623 475 603T419 583ZM174 583Q142 583 118 603T94 660Q94
698 118 719T174 740Q206 740 230 720T254 660Q254 623 231 603T174 583Z" />
<glyph unicode="&#xec;" horiz-adv-x="251" d="M55 0V527H195V0H55ZM84 589L-58 760H91L204 589H84Z" />
<glyph unicode="&#xed;" horiz-adv-x="251" d="M55 0V527H195V0H55ZM50 845L163 1017H312L170 845H50Z" />
<glyph unicode="&#xee;" horiz-adv-x="251" d="M55 0V527H195V0H55ZM-75 589L78 769H171L326 589H192L124 677L58 589H-75Z" />
<glyph unicode="&#xef;" horiz-adv-x="251" d="M55 0V527H195V0H55ZM282 589Q250 589 227 608T204 665Q204 702 227 722T282 743Q313 743 337 723T361 665Q361 628 338 609T282 589ZM483 589Q451 589 427 608T403 665Q403 702 427 722T483 743Q514 743 537 723T560
666Q560 628 538 609T483 589Z" />
<glyph unicode="&#xf0;" horiz-adv-x="602" d="M293 -7Q214 -7 156 25T67 116T35 251Q35 323 63 379T144 467T268 500Q318 500 362 482T435 422Q434 450 421 483T388 544T349 588L239 523L191 607L262 650Q238 665 202 673T132 685L151 790Q212 783 266 766T369
720L479 786L531 701L454 654Q494 610 519 561T555 453T567 316Q567 250 552 192T503 88T417 18T293 -7ZM297 117Q334 117 361 133T404 179T419 243Q419 281 403 309T359 354T293 370Q257 370 230 354T189 310T175 247Q175 210 189 181T232 135T297 117Z" />
<glyph unicode="&#xf1;" horiz-adv-x="605" d="M55 0V527H186L193 466Q215 493 243 508T301 530T355 536Q431 536 473 503T534 415T553 291V0H413V273Q413 297 409 321T395 365T365 397T315 409Q275 409 248 389T208 335T195 260V0H55ZM384 584Q356 584 334 595T295
619T264 643T237 654Q223 654 216 642T208 615T209 589H113Q110 631 119 668T156 729T233 753Q259 753 278 743T313 720T342 697T369 687Q384 687 389 697T396 722T396 747H492Q495 708 487 670T455 608T384 584Z" />
<glyph unicode="&#xf2;" horiz-adv-x="599" d="M301 -7Q221 -7 161 25T68 118T35 262Q35 347 68 408T162 503T300 536Q380 536 439 502T531 407T564 261Q564 178 532 118T441 25T301 -7ZM299 121Q345 121 373 141T413 193T426 262Q426 298 414 331T374 385T299
407Q254 407 226 386T186 331T173 262Q173 225 185 193T226 141T299 121ZM258 589L116 760H265L378 589H258Z" />
<glyph unicode="&#xf3;" horiz-adv-x="599" d="M301 -7Q221 -7 161 25T68 118T35 262Q35 347 68 408T162 503T300 536Q380 536 439 502T531 407T564 261Q564 178 532 118T441 25T301 -7ZM299 121Q345 121 373 141T413 193T426 262Q426 298 414 331T374 385T299
407Q254 407 226 386T186 331T173 262Q173 225 185 193T226 141T299 121ZM224 589L337 761H486L344 589H224Z" />
<glyph unicode="&#xf4;" horiz-adv-x="599" d="M301 -7Q221 -7 161 25T68 118T35 262Q35 347 68 408T162 503T300 536Q380 536 439 502T531 407T564 261Q564 178 532 118T441 25T301 -7ZM299 121Q345 121 373 141T413 193T426 262Q426 298 414 331T374 385T299
407Q254 407 226 386T186 331T173 262Q173 225 185 193T226 141T299 121ZM99 589L252 769H345L500 589H366L298 677L232 589H99Z" />
<glyph unicode="&#xf5;" horiz-adv-x="599" d="M301 -7Q221 -7 161 25T68 118T35 262Q35 347 68 408T162 503T300 536Q380 536 439 502T531 407T564 261Q564 178 532 118T441 25T301 -7ZM299 121Q345 121 373 141T413 193T426 262Q426 298 414 331T374 385T299
407Q254 407 226 386T186 331T173 262Q173 225 185 193T226 141T299 121ZM381 584Q353 584 331 595T292 619T261 643T234 654Q220 654 213 642T205 615T206 589H110Q107 631 116 668T153 729T230 753Q256 753 275 743T310 720T339 697T366 687Q381 687 386 697T393
722T393 747H489Q492 708 484 670T452 608T381 584Z" />
<glyph unicode="&#xf6;" horiz-adv-x="599" d="M301 -7Q221 -7 161 25T68 118T35 262Q35 347 68 408T162 503T300 536Q380 536 439 502T531 407T564 261Q564 178 532 118T441 25T301 -7ZM299 121Q345 121 373 141T413 193T426 262Q426 298 414 331T374 385T299
407Q254 407 226 386T186 331T173 262Q173 225 185 193T226 141T299 121ZM422 583Q389 583 366 603T342 660Q342 698 366 719T422 740Q455 740 478 720T501 661Q501 623 478 603T422 583ZM177 583Q145 583 121 603T97 660Q97 698 121 719T177 740Q209 740 233 720T257
660Q257 623 234 603T177 583Z" />
<glyph unicode="&#xf7;" horiz-adv-x="592" d="M78 299V422H514V299H78ZM294 74Q259 74 233 96T207 160Q207 188 219 208T252 238T296 249Q331 249 356 226T381 160Q381 119 356 97T294 74ZM294 469Q259 469 233 491T207 554Q207 583 219 602T252 633T296 644Q331
644 356 621T381 555Q381 514 356 492T294 469Z" />
<glyph unicode="&#xf8;" horiz-adv-x="599" d="M61 -102L130 45Q83 80 59 136T35 262Q35 344 67 405T158 501T298 536Q314 536 327 535T353 531L398 631H537L468 483Q499 458 520 425T553 350T564 261Q564 183 533 122T444 27T299 -7Q285 -7 272 -6T245 -2L199
-102H61ZM198 169L307 402Q286 403 268 398Q236 393 215 374T183 327T173 263Q173 237 179 212T198 169ZM326 127Q361 131 383 150T415 199T426 263Q426 290 420 312T399 354L293 125Q301 125 309 125T326 127Z" />
<glyph unicode="&#xf9;" horiz-adv-x="585" d="M294 -7Q178 -7 116 52T53 232V527H193V242Q193 206 203 179T236 135T295 119Q334 119 355 136T384 181T392 242V527H531V232Q531 107 469 50T294 -7ZM251 589L109 760H258L371 589H251Z" />
<glyph unicode="&#xfa;" horiz-adv-x="585" d="M294 -7Q178 -7 116 52T53 232V527H193V242Q193 206 203 179T236 135T295 119Q334 119 355 136T384 181T392 242V527H531V232Q531 107 469 50T294 -7ZM217 589L330 761H479L337 589H217Z" />
<glyph unicode="&#xfb;" horiz-adv-x="585" d="M294 -7Q178 -7 116 52T53 232V527H193V242Q193 206 203 179T236 135T295 119Q334 119 355 136T384 181T392 242V527H531V232Q531 107 469 50T294 -7ZM92 589L245 769H338L493 589H359L291 677L225 589H92Z" />
<glyph unicode="&#xfc;" horiz-adv-x="585" d="M294 -7Q178 -7 116 52T53 232V527H193V242Q193 206 203 179T236 135T295 119Q334 119 355 136T384 181T392 242V527H531V232Q531 107 469 50T294 -7ZM415 583Q382 583 359 603T335 660Q335 698 359 719T415 740Q448
740 471 720T494 661Q494 623 471 603T415 583ZM170 583Q138 583 114 603T90 660Q90 698 114 719T170 740Q202 740 226 720T250 660Q250 623 227 603T170 583Z" />
<glyph unicode="&#xfd;" horiz-adv-x="616" d="M288 -243Q227 -243 169 -227T60 -173L107 -61Q139 -85 180 -99T271 -114Q348 -114 385 -78T423 26V54Q406 31 381 18T326 -2T268 -8Q192 -8 146 24T80 111T59 238V527H199V267Q199 241 202 215T216 167T249 132T308
118Q356 118 380 141T412 201T421 276V527H561V76Q561 4 548 -55T503 -156T419 -220T288 -243ZM233 589L346 761H495L353 589H233Z" />
<glyph unicode="&#xfe;" horiz-adv-x="624" d="M55 -197V708H195V463Q224 501 267 518T358 536Q438 536 489 499T564 401T589 266Q589 193 564 131T487 31T355 -7Q312 -7 269 6T195 53V-197H55ZM327 119Q372 119 399 139T438 191T450 262Q450 304 436 337T394
389T323 408Q282 408 254 389T210 337T194 264Q194 224 209 191T253 139T327 119Z" />
<glyph unicode="&#xff;" horiz-adv-x="616" d="M288 -243Q227 -243 169 -227T60 -173L107 -61Q139 -85 180 -99T271 -114Q348 -114 385 -78T423 26V54Q406 31 381 18T326 -2T268 -8Q192 -8 146 24T80 111T59 238V527H199V267Q199 241 202 215T216 167T249 132T308
118Q356 118 380 141T412 201T421 276V527H561V76Q561 4 548 -55T503 -156T419 -220T288 -243ZM431 583Q398 583 375 603T351 660Q351 698 375 719T431 740Q464 740 487 720T510 661Q510 623 487 603T431 583ZM186 583Q154 583 130 603T106 660Q106 698 130 719T186
740Q218 740 242 720T266 660Q266 623 243 603T186 583Z" />
<glyph unicode="&#x2013;" horiz-adv-x="613" d="M62 227V353H551V227H62Z" />
<glyph unicode="&#x2014;" horiz-adv-x="816" d="M62 227V353H754V227H62Z" />
<glyph unicode="&#x2018;" horiz-adv-x="295" d="M144 459Q100 459 78 491T56 568Q56 615 77 655T131 723T201 764L240 705Q225 698 208 683T175 652T155 620Q176 618 192 609T218 582T228 541Q228 500 203 480T144 459Z" />
<glyph unicode="&#x2019;" horiz-adv-x="295" d="M94 437L55 496Q70 504 87 518T120 550T139 581Q110 584 88 604T66 660Q66 701 92 721T152 742Q197 742 218 710T239 633Q239 586 218 546T164 478T94 437Z" />
<glyph unicode="&#x201a;" horiz-adv-x="295" d="M94 -154L55 -94Q70 -87 87 -73T120 -41T139 -10Q110 -7 88 13T66 70Q66 110 92 130T152 151Q196 151 217 119T239 44Q239 -3 218 -43T164 -112T94 -154Z" />
<glyph unicode="&#x201c;" horiz-adv-x="524" d="M374 459Q329 460 308 492T286 567Q286 615 307 655T361 723T430 764L469 705Q456 698 438 683T405 652T385 620Q405 618 421 609T448 582T458 541Q458 500 433 480T374 459ZM144 459Q99 460 78 492T56 567Q56
615 77 655T131 723T201 764L240 705Q225 698 208 683T175 652T155 620Q176 618 192 609T218 582T228 541Q228 500 203 480T144 459Z" />
<glyph unicode="&#x201d;" horiz-adv-x="524" d="M324 437L285 496Q299 504 317 518T350 550T369 581Q340 584 318 604T296 660Q296 701 322 721T382 742Q426 741 447 709T468 633Q468 586 448 546T394 478T324 437ZM94 437L55 496Q70 504 87 518T120 550T139
581Q110 584 88 604T66 660Q66 701 92 721T152 742Q197 741 218 709T239 633Q239 586 218 546T164 478T94 437Z" />
<glyph unicode="&#x201e;" horiz-adv-x="524" d="M324 -154L285 -94Q299 -87 317 -73T350 -41T369 -10Q340 -7 318 13T296 70Q296 110 321 130T382 151Q425 151 446 119T468 41Q468 -5 448 -45T394 -113T324 -154ZM94 -154L55 -94Q70 -87 87 -73T120 -41T139 -10Q110
-7 88 13T66 70Q66 110 92 130T152 151Q195 151 217 119T239 41Q239 -5 218 -45T164 -113T94 -154Z" />
<glyph unicode="&#x2022;" horiz-adv-x="362" d="M182 231Q145 231 115 247T66 293T47 363Q47 425 85 461T181 497Q219 497 249 481T297 434T315 363Q315 304 277 268T182 231Z" />
<glyph unicode="&#x2039;" horiz-adv-x="350" d="M158 82L27 272L158 461H303L170 272L303 82H158Z" />
<glyph unicode="&#x203a;" horiz-adv-x="351" d="M47 82L182 272L47 461H193L324 272L193 82H47Z" />
</font>
</defs>
</svg>
