<?xml version="1.0" encoding="UTF-8" standalone="no"?>
<!-- Created with Inkscape (http://www.inkscape.org/) -->

<svg
   width="16"
   height="16"
   viewBox="0 0 4.2333333 4.2333333"
   version="1.1"
   id="svg1"
   inkscape:version="1.3.2 (091e20ef0f, 2023-11-25)"
   sodipodi:docname="backslash-dark.svg"
   xmlns:inkscape="http://www.inkscape.org/namespaces/inkscape"
   xmlns:sodipodi="http://sodipodi.sourceforge.net/DTD/sodipodi-0.dtd"
   xmlns:xlink="http://www.w3.org/1999/xlink"
   xmlns="http://www.w3.org/2000/svg"
   xmlns:svg="http://www.w3.org/2000/svg">
  <sodipodi:namedview
     id="namedview1"
     pagecolor="#ffffff"
     bordercolor="#000000"
     borderopacity="0.25"
     inkscape:showpageshadow="2"
     inkscape:pageopacity="0.0"
     inkscape:pagecheckerboard="true"
     inkscape:deskcolor="#d1d1d1"
     inkscape:document-units="px"
     showguides="true"
     inkscape:zoom="32"
     inkscape:cx="8.5625"
     inkscape:cy="9.734375"
     inkscape:window-width="1280"
     inkscape:window-height="718"
     inkscape:window-x="0"
     inkscape:window-y="0"
     inkscape:window-maximized="1"
     inkscape:current-layer="layer1">
    <sodipodi:guide
       position="0.52916666,3.7041666"
       orientation="-1,0"
       id="guide5"
       inkscape:locked="false"
       inkscape:label=""
       inkscape:color="rgb(0,134,229)" />
    <sodipodi:guide
       position="0.52916666,3.7041666"
       orientation="0,-1"
       id="guide6"
       inkscape:locked="false" />
    <sodipodi:guide
       position="3.7041666,0.52916666"
       orientation="-1,0"
       id="guide7"
       inkscape:locked="false"
       inkscape:label=""
       inkscape:color="rgb(0,134,229)" />
    <sodipodi:guide
       position="1.3229167,0.52916666"
       orientation="0,1"
       id="guide8"
       inkscape:locked="false"
       inkscape:label=""
       inkscape:color="rgb(0,134,229)" />
  </sodipodi:namedview>
  <defs
     id="defs1">
    <linearGradient
       id="linearGradient18"
       inkscape:collect="always">
      <stop
         style="stop-color:#ffffff;stop-opacity:0;"
         offset="0"
         id="stop20" />
      <stop
         style="stop-color:#ffffff;stop-opacity:1;"
         offset="0.49578059"
         id="stop18" />
      <stop
         style="stop-color:#ffffff;stop-opacity:0;"
         offset="1"
         id="stop19" />
    </linearGradient>
    <linearGradient
       inkscape:collect="always"
       xlink:href="#linearGradient18"
       id="linearGradient19"
       x1="-0.032189599"
       y1="1.1414674"
       x2="4.2511581"
       y2="1.1414674"
       gradientUnits="userSpaceOnUse" />
  </defs>
  <g
     inkscape:label="Layer 1"
     inkscape:groupmode="layer"
     id="layer1">
    <rect
       style="fill:none;fill-opacity:1;stroke:#ffffff;stroke-width:0.03307292;stroke-linecap:butt;stroke-opacity:1;paint-order:markers fill stroke;stroke-dasharray:none"
       id="rect1"
       width="0.81149924"
       height="1.5963743"
       x="1.7109171"
       y="2.116667" />
    <path
       id="path11"
       style="fill:none;fill-opacity:1;stroke:#ffffff;stroke-width:0.0327459;stroke-linecap:butt;stroke-dasharray:none;stroke-opacity:1;paint-order:markers fill stroke"
       d="M 1.710917 1.2292681 L 1.7109171 0.66230477 " />
    <path
       id="path13"
       style="fill:none;fill-opacity:1;stroke:#ffffff;stroke-width:0.0327459;stroke-linecap:butt;stroke-dasharray:none;stroke-opacity:1;paint-order:markers fill stroke"
       d="M 2.5224164 0.56824163 L 2.5224164 2.1166667 L 1.7109171 2.1166667 L 1.710917 1.4732123 " />
    <path
       style="fill:none;fill-opacity:1;stroke:#ffffff;stroke-width:0.03307292;stroke-linecap:butt;stroke-opacity:1;paint-order:markers fill stroke;stroke-dasharray:none"
       d="M 1.7109171,2.9148542 H 2.5224163"
       id="path1" />
    <path
       id="path2"
       style="fill:none;fill-opacity:1;stroke:#ffffff;stroke-width:0.0330729;stroke-linecap:butt;stroke-dasharray:none;stroke-opacity:1;paint-order:markers fill stroke"
       d="M 1.9249047 1.3341849 L 2.5224163 1.3341849 " />
    <path
       id="path18"
       style="display:inline;fill:none;stroke:url(#linearGradient19);stroke-width:0.0661458;stroke-linejoin:miter;stroke-dasharray:0.264583, 0.0661458;stroke-dashoffset:0;stroke-opacity:1"
       d="M -0.00625613,1.7686679 A 3.1773474,3.1773474 0 0 1 2.5135417,0.52681923 3.1773474,3.1773474 0 0 1 4.2337551,1.0327621" />
    <circle
       style="display:inline;fill:none;fill-opacity:1;stroke:none;stroke-width:0.0661458;stroke-opacity:0.200489"
       id="path6"
       cx="-4.1741414"
       cy="1.681511"
       r="2.4391418"
       transform="rotate(-102.18808)" />
    <circle
       style="display:inline;fill:none;fill-opacity:1;stroke:none;stroke-width:0.0661458;stroke-opacity:0.200489"
       id="path6-7"
       cx="-4.5026493"
       cy="-0.21175119"
       r="2.4391418"
       transform="rotate(-127.06124)" />
    <path
       d="m 2.0456835,1.3334277 q -0.0013,2.642e-4 -0.00236,-3.285e-4 -9.627e-4,-7.489e-4 -0.00123,-0.00205 l -0.014798,-0.072591 -0.018136,0.020979 q -8.784e-4,9.892e-4 -0.00207,0.0011 -0.00119,1.082e-4 -0.00218,-7.703e-4 l -0.00424,-0.00359 q -0.00102,-0.00101 -0.00112,-0.0022 2.14e-5,-0.00122 8.999e-4,-0.00221 L 2.02426,1.2442311 q 7.752e-4,-8.331e-4 0.00153,-0.00112 7.514e-4,-2.882e-4 0.00166,-4.731e-4 l 0.00661,-0.00135 q 0.0013,-2.643e-4 0.00226,4.846e-4 9.363e-4,6.192e-4 0.0012,0.00192 l 0.017282,0.084775 q 2.643e-4,0.0013 -3.285e-4,0.00236 -6.192e-4,9.363e-4 -0.00192,0.0012 z m 0.072019,-0.013329 q -0.0013,2.278e-4 -0.00235,-3.946e-4 -9.413e-4,-7.756e-4 -0.00117,-0.00208 l -0.00328,-0.018766 -0.042222,0.00738 q -0.0013,2.278e-4 -0.00235,-3.947e-4 -9.413e-4,-7.755e-4 -0.00117,-0.00208 l -9.111e-4,-0.00521 q -9.11e-5,-5.212e-4 -1.27e-5,-0.00161 1.86e-4,-0.00124 7.629e-4,-0.00255 l 0.02946,-0.061957 q 0.00118,-0.00249 0.00443,-0.00306 l 0.00938,-0.00164 q 0.0013,-2.278e-4 0.00224,5.478e-4 0.00105,6.224e-4 0.00128,0.00193 l 0.00963,0.055124 0.011728,-0.00205 q 0.00143,-2.506e-4 0.00237,5.25e-4 0.00105,6.224e-4 0.00128,0.00193 l 9.339e-4,0.00534 q 2.278e-4,0.0013 -5.25e-4,0.00237 -6.453e-4,9.186e-4 -0.00195,0.00115 l -0.011859,0.00207 0.00328,0.018765 q 2.278e-4,0.0013 -5.25e-4,0.00237 -6.452e-4,9.186e-4 -0.00195,0.00115 z m -0.040013,-0.026849 0.031406,-0.00549 -0.00781,-0.044698 z m 0.07856,0.020672 q -0.00131,1.979e-4 -0.00234,-4.483e-4 -9.233e-4,-7.969e-4 -0.00112,-0.0021 l -0.00143,-0.00942 q -1.979e-4,-0.00131 4.682e-4,-0.00221 7.771e-4,-0.00105 0.00209,-0.00125 l 0.00942,-0.00143 q 0.00131,-1.98e-4 0.00223,5.989e-4 0.00103,6.463e-4 0.00123,0.00195 l 0.00143,0.00942 q 1.979e-4,0.00131 -5.791e-4,0.00236 -6.661e-4,9.036e-4 -0.00197,0.0011 z m 0.060972,-0.0072 q -0.00906,0.00115 -0.015705,-8.031e-4 -0.00654,-0.0021 -0.011106,-0.00659 -0.00457,-0.00449 -0.00723,-0.010683 -0.00252,-0.00621 -0.0037,-0.013398 -5.819e-4,-0.00353 -0.00121,-0.00745 -5.007e-4,-0.00394 -0.001,-0.00787 -3.862e-4,-0.00408 -7.223e-4,-0.00778 -7.867e-4,-0.00723 2.327e-4,-0.013899 0.00113,-0.00681 0.00432,-0.012152 0.0033,-0.00549 0.00925,-0.00904 0.00593,-0.00369 0.014856,-0.00482 0.00906,-0.00115 0.015591,9.51e-4 0.00665,0.00195 0.011221,0.00644 0.00455,0.00435 0.00723,0.010683 0.00279,0.00618 0.00384,0.013381 5.986e-4,0.00366 0.00112,0.00773 6.32e-4,0.00392 0.001,0.00787 5.007e-4,0.00394 8.201e-4,0.0075 7.868e-4,0.00723 -3.639e-4,0.013915 -0.00102,0.00666 -0.00432,0.012152 -0.00317,0.00547 -0.0091,0.00916 -0.00582,0.00354 -0.015004,0.00471 z m -0.00142,-0.011155 q 0.010236,-0.0013 0.014241,-0.00861 0.00412,-0.00746 0.00276,-0.019155 -2.216e-4,-0.00384 -6.723e-4,-0.00738 -4.673e-4,-0.00367 -9.18e-4,-0.00722 -4.673e-4,-0.00367 -0.00118,-0.00718 -0.00158,-0.011401 -0.00744,-0.017591 -0.00574,-0.00634 -0.015977,-0.00504 -0.010105,0.00129 -0.014207,0.00887 -0.00399,0.00744 -0.0028,0.018893 4.507e-4,0.00354 7.868e-4,0.00723 4.507e-4,0.00354 9.18e-4,0.00722 5.819e-4,0.00353 0.00107,0.00733 0.00175,0.011647 0.0076,0.017836 0.00584,0.00606 0.015812,0.00479 z m 0.082475,0.00222 q -0.0083,7.735e-4 -0.014673,-6.253e-4 -0.00639,-0.00153 -0.010922,-0.00456 -0.00453,-0.00303 -0.00715,-0.00691 -0.00249,-0.00389 -0.00303,-0.00822 -1.105e-4,-0.00119 6.184e-4,-0.00192 7.289e-4,-7.322e-4 0.00191,-8.427e-4 l 0.00645,-6.017e-4 q 0.00119,-1.105e-4 0.00216,3.305e-4 9.712e-4,4.409e-4 0.00179,0.00209 0.00176,0.00462 0.00517,0.00696 0.00354,0.00233 0.00785,0.00299 0.00443,5.168e-4 0.00878,1.117e-4 0.00909,-8.472e-4 0.014347,-0.00572 0.00526,-0.00487 0.00447,-0.013305 -7.981e-4,-0.00856 -0.00628,-0.011771 -0.00548,-0.00321 -0.01457,-0.00236 l -0.012514,0.00117 q -0.00132,1.228e-4 -0.00231,-5.816e-4 -8.639e-4,-7.167e-4 -9.99e-4,-0.00217 l -3.315e-4,-0.00356 q -1.105e-4,-0.00119 2.11e-4,-0.00201 4.409e-4,-9.712e-4 9.064e-4,-0.00168 l 0.022951,-0.030307 -0.038858,0.00362 q -0.00132,1.228e-4 -0.00231,-5.816e-4 -8.64e-4,-7.166e-4 -9.99e-4,-0.00217 l -4.666e-4,-0.00501 q -1.35e-4,-0.00145 5.816e-4,-0.00231 8.361e-4,-0.00101 0.00215,-0.00113 l 0.052557,-0.0049 q 0.00145,-1.35e-4 0.00233,7.134e-4 9.957e-4,7.043e-4 0.00113,0.00215 l 4.42e-4,0.00474 q 8.6e-5,9.221e-4 -3.673e-4,0.00176 -3.337e-4,6.954e-4 -7.992e-4,0.0014 l -0.022782,0.03069 0.00212,-6.47e-5 q 0.00872,-5.469e-4 0.015443,0.00175 0.00686,0.00228 0.010953,0.00775 0.00422,0.00532 0.00503,0.014014 8.226e-4,0.00883 -0.00293,0.015553 -0.00377,0.0066 -0.011103,0.010601 -0.00733,0.00401 -0.016949,0.0049 z m 0.080648,-0.00618 q -0.01096,6.611e-4 -0.018882,-0.00323 -0.00793,-0.00403 -0.012454,-0.010912 -0.0044,-0.00702 -0.00491,-0.015475 -2.39e-4,-0.00396 4.703e-4,-0.00758 8.333e-4,-0.00376 0.00209,-0.00702 0.00139,-0.0034 0.00269,-0.00599 0.00143,-0.00274 0.00252,-0.00439 L 2.37343,1.2004896 q 6.204e-4,-7.001e-4 0.00149,-0.00168 8.607e-4,-0.00111 0.00271,-0.00122 l 0.007,-4.222e-4 q 0.00119,-7.17e-5 0.0019,8.128e-4 8.402e-4,7.446e-4 9.118e-4,0.00193 3.19e-5,5.282e-4 -6.83e-5,0.00106 -1.081e-4,4.041e-4 -3.563e-4,6.842e-4 l -0.017654,0.028102 q 0.00155,-6.238e-4 0.00353,-8.754e-4 0.0021,-3.915e-4 0.00395,-5.03e-4 0.00727,-3.061e-4 0.013365,0.00184 0.00609,0.00215 0.010582,0.00625 0.00461,0.00396 0.0072,0.00951 0.00258,0.00541 0.00296,0.011749 5.019e-4,0.00832 -0.00302,0.015821 -0.00352,0.0075 -0.010912,0.012454 -0.00726,0.00494 -0.018084,0.0056 z M 2.3781173,1.280389 q 0.00555,-3.346e-4 0.010157,-0.003 0.00461,-0.00266 0.00724,-0.00733 0.00276,-0.0048 0.00236,-0.011408 -4.063e-4,-0.00673 -0.00358,-0.011049 -0.00318,-0.00445 -0.00821,-0.0064 -0.0049,-0.00209 -0.010443,-0.00176 -0.00555,3.346e-4 -0.010157,0.003 -0.00462,0.00253 -0.00738,0.00734 -0.00263,0.00466 -0.00223,0.0114 3.982e-4,0.0066 0.00358,0.011049 0.00331,0.00431 0.00821,0.0064 0.0049,0.00209 0.010443,0.00176 z m 0.063553,-0.049448 q -0.00529,1.764e-4 -0.00986,-0.00205 -0.00445,-0.00237 -0.00723,-0.00651 -0.00279,-0.00428 -0.00297,-0.00956 -1.808e-4,-0.00542 0.00232,-0.00974 0.0025,-0.00432 0.00679,-0.00684 0.00441,-0.00266 0.0097,-0.00284 0.00542,-1.808e-4 0.00987,0.00219 0.00444,0.00223 0.00723,0.00638 0.00279,0.00414 0.00297,0.00956 1.764e-4,0.00529 -0.00232,0.00974 -0.0025,0.00432 -0.00678,0.00698 -0.00428,0.00253 -0.0097,0.00271 z m -2.911e-4,-0.00873 q 0.0045,-1.499e-4 0.00718,-0.00302 0.00268,-0.00287 0.00253,-0.00736 -1.499e-4,-0.0045 -0.00302,-0.00718 -0.00287,-0.00268 -0.00736,-0.00253 -0.0045,1.499e-4 -0.00718,0.00302 -0.00268,0.00287 -0.00253,0.00736 1.5e-4,0.0045 0.00302,0.00718 0.00287,0.00268 0.00736,0.00253 z"
       id="text7"
       style="font-size:0.132292px;font-family:Rubik;-inkscape-font-specification:Rubik;stroke-width:0.0661458;fill:#ffffff;fill-opacity:1"
       aria-label="14.036°" />
    <path
       d="m 1.1071055,1.7518129 q -0.00673,0.00491 -0.012924,0.00698 -0.00627,0.00196 -0.011717,0.00167 -0.00545,-2.824e-4 -0.00968,-0.00227 -0.00413,-0.00206 -0.00681,-0.00551 -7.019e-4,-9.617e-4 -4.508e-4,-0.00196 2.512e-4,-0.001 0.00121,-0.0017 l 0.00524,-0.00382 q 9.617e-4,-7.019e-4 0.00202,-8.205e-4 0.00106,-1.185e-4 0.00261,8.806e-4 0.00388,0.00307 0.008,0.00333 0.00423,1.872e-4 0.00827,-0.00145 0.00407,-0.00183 0.0076,-0.0044 0.00737,-0.00538 0.00939,-0.012262 0.00202,-0.00688 -0.00297,-0.013719 -0.00507,-0.00695 -0.011421,-0.0069 -0.00635,4.98e-5 -0.013724,0.00543 l -0.010151,0.00741 q -0.00107,7.799e-4 -0.00228,6.848e-4 -0.00111,-1.732e-4 -0.00197,-0.00135 l -0.00211,-0.00289 q -7.019e-4,-9.617e-4 -8.493e-4,-0.00184 -1.186e-4,-0.00106 -8.11e-5,-0.00191 l 0.00419,-0.037784 -0.031522,0.023008 q -0.00107,7.799e-4 -0.00228,6.847e-4 -0.00111,-1.731e-4 -0.00197,-0.00135 l -0.00296,-0.00406 q -8.58e-4,-0.00118 -6.848e-4,-0.00228 2.02e-4,-0.00129 0.00127,-0.00207 l 0.042635,-0.03112 q 0.00118,-8.579e-4 0.00236,-5.779e-4 0.00122,9.52e-5 0.00207,0.00127 l 0.00281,0.00385 q 5.459e-4,7.48e-4 5.865e-4,0.0017 6.94e-5,7.683e-4 3.19e-5,0.00161 l -0.00385,0.038027 0.00179,-0.00114 q 0.00721,-0.00493 0.01416,-0.0064 0.00706,-0.00155 0.013375,0.00105 0.00635,0.00241 0.011493,0.00946 0.00523,0.00716 0.00544,0.014862 1.395e-4,0.0076 -0.00411,0.014791 -0.00425,0.0072 -0.012048,0.012889 z m 0.075537,-0.05462 q -0.00109,7.441e-4 -0.00231,6.086e-4 -0.00118,-3.192e-4 -0.00192,-0.00141 l -0.010715,-0.015751 -0.03544,0.024108 q -0.00109,7.441e-4 -0.00231,6.086e-4 -0.00118,-3.192e-4 -0.00192,-0.00141 l -0.00298,-0.00438 q -2.976e-4,-4.376e-4 -6.741e-4,-0.00146 -3.415e-4,-0.00121 -3.549e-4,-0.00264 l 0.00134,-0.068591 q 4.77e-5,-0.00275 0.00278,-0.00461 l 0.00788,-0.00536 q 0.00109,-7.44e-4 0.00227,-4.248e-4 0.00121,1.355e-4 0.00196,0.00123 l 0.031474,0.046269 0.00984,-0.0067 q 0.0012,-8.185e-4 0.00238,-4.992e-4 0.00121,1.354e-4 0.00196,0.00123 l 0.00305,0.00448 q 7.44e-4,0.00109 4.992e-4,0.00238 -2.099e-4,0.0011 -0.0013,0.00185 l -0.00995,0.00677 0.010715,0.015751 q 7.441e-4,0.00109 4.993e-4,0.00238 -2.099e-4,0.0011 -0.0013,0.00185 z m -0.047519,-0.008 0.026362,-0.017932 -0.025522,-0.037519 z m 0.1050371,-0.027953 q -0.00883,0.00559 -0.016887,0.00647 -0.00802,6.931e-4 -0.014373,-0.00217 -0.00624,-0.00294 -0.00994,-0.00827 -7.488e-4,-9.351e-4 -4.322e-4,-0.00192 3.167e-4,-9.836e-4 0.00132,-0.00162 l 0.00604,-0.00382 q 0.00101,-6.37e-4 0.00207,-6.855e-4 0.00107,-4.84e-5 0.00243,0.00112 0.00374,0.00343 0.00789,0.00455 0.0042,9.424e-4 0.00822,1.19e-4 0.00406,-0.00101 0.00764,-0.00327 0.00481,-0.00304 0.00751,-0.00742 0.00275,-0.00456 0.00269,-0.00985 -1.306e-4,-0.0054 -0.0036,-0.010874 -0.00319,-0.00503 -0.0078,-0.00712 -0.00457,-0.00227 -0.0098,-0.00162 -0.00519,4.658e-4 -0.010103,0.00358 -0.00369,0.00234 -0.00547,0.00472 -0.00178,0.00238 -0.00268,0.00467 -7.86e-4,0.00222 -0.00156,0.00396 -6.631e-4,0.00167 -0.00223,0.00266 l -0.00581,0.00368 q -0.00101,6.371e-4 -0.00221,4.62e-4 -0.00128,-2.868e-4 -0.0018,-0.00136 l -0.020066,-0.039593 q -7.377e-4,-0.00141 -4.918e-4,-0.00251 2.868e-4,-0.00128 0.00152,-0.00206 l 0.039005,-0.024704 q 0.00112,-7.078e-4 0.00228,-3.502e-4 0.00121,1.751e-4 0.00191,0.00129 l 0.00276,0.00436 q 7.786e-4,0.00123 4.21e-4,0.0024 -2.459e-4,0.0011 -0.00136,0.0018 l -0.032187,0.020386 0.011821,0.023362 q 9.276e-4,-0.002 0.00354,-0.00553 0.00254,-0.00365 0.00858,-0.00747 0.00548,-0.00347 0.011344,-0.00484 0.00598,-0.00144 0.011832,-6.038e-4 0.00585,8.344e-4 0.010949,0.00418 0.00503,0.00324 0.00885,0.00927 0.00538,0.00849 0.00533,0.016824 6.35e-5,0.00826 -0.00444,0.015494 -0.00446,0.00705 -0.01273,0.01229 z m 0.042438,-0.027822 q -0.00113,6.836e-4 -0.00234,4.826e-4 -0.00116,-3.826e-4 -0.00184,-0.00152 l -0.00492,-0.00815 q -6.836e-4,-0.00113 -4.143e-4,-0.00222 3.143e-4,-0.00127 0.00145,-0.00196 l 0.00815,-0.00492 q 0.00113,-6.836e-4 0.00229,-3.01e-4 0.0012,2.01e-4 0.00189,0.00133 l 0.00492,0.00815 q 6.836e-4,0.00113 3.694e-4,0.0024 -2.694e-4,0.00109 -0.0014,0.00177 z m 0.035318,-0.02099 q -0.00103,5.933e-4 -0.00212,3.006e-4 -0.00103,-4.733e-4 -0.00163,-0.00151 -3.296e-4,-5.735e-4 -4.126e-4,-9.835e-4 3.16e-5,-4.759e-4 1.45e-5,-7.712e-4 l 0.00351,-0.034517 q -0.00247,0.00234 -0.0058,0.00425 -0.00649,0.00358 -0.012788,0.0043 -0.0063,7.212e-4 -0.011964,-9.056e-4 -0.00573,-0.00174 -0.010269,-0.00539 -0.00454,-0.00365 -0.0075,-0.00881 -0.0029,-0.00505 -0.00395,-0.010853 -9.334e-4,-0.00587 3.81e-4,-0.011815 0.00143,-0.00601 0.0055,-0.011401 0.00401,-0.00551 0.011347,-0.00973 0.00723,-0.00415 0.013935,-0.00496 0.00676,-9.849e-4 0.01267,8.055e-4 0.00596,0.00161 0.01045,0.00544 0.0046,0.00376 0.00757,0.00892 0.0027,0.0047 0.00357,0.00939 8.649e-4,0.00469 6.948e-4,0.00891 -5.53e-5,0.00415 -3.744e-4,0.00784 l -0.00429,0.043511 q -1.292e-4,8.372e-4 -4.047e-4,0.00222 -3.415e-4,0.00126 -0.00195,0.00219 z m -0.010166,-0.043442 q 0.00482,-0.00277 0.00765,-0.00714 0.00288,-0.00455 0.00311,-0.00972 1.674e-4,-0.00528 -0.00293,-0.010675 -0.0031,-0.00539 -0.00768,-0.00779 -0.00465,-0.00252 -0.00997,-0.00221 -0.00527,1.28e-4 -0.010084,0.0029 -0.0047,0.0027 -0.00746,0.00719 -0.00283,0.00437 -0.003,0.00966 -2.334e-4,0.00517 0.00286,0.01056 0.0031,0.00539 0.00775,0.00791 0.00458,0.0024 0.00985,0.00227 0.0052,-2.426e-4 0.0099,-0.00295 z m 0.091595,-3.408e-4 q -0.00969,0.00516 -0.018516,0.00492 -0.00889,-3.628e-4 -0.015865,-0.00474 -0.00692,-0.00456 -0.010904,-0.012029 -0.00187,-0.0035 -0.00273,-0.00709 -8.073e-4,-0.00377 -0.00102,-0.00725 -1.537e-4,-0.00367 -5.09e-5,-0.00657 1.573e-4,-0.00308 4.619e-4,-0.00504 l 0.0057,-0.042758 q 2.729e-4,-8.948e-4 6.549e-4,-0.00215 3.198e-4,-0.00137 0.00195,-0.00224 l 0.00619,-0.0033 q 0.00105,-5.598e-4 0.00207,-5.34e-5 0.00107,3.274e-4 0.00163,0.00138 2.488e-4,4.67e-4 3.808e-4,9.963e-4 6.98e-5,4.125e-4 -3.93e-5,7.704e-4 l -0.00436,0.032899 q 0.00115,-0.00121 0.00284,-0.00226 0.00174,-0.00123 0.00338,-0.0021 0.00648,-0.0033 0.01292,-0.00388 0.00644,-5.801e-4 0.012225,0.00128 0.00584,0.00168 0.010502,0.00565 0.0046,0.00385 0.00758,0.00945 0.00392,0.00736 0.00384,0.015644 -8.23e-5,0.00829 -0.00474,0.015865 -0.00454,0.00751 -0.014115,0.012615 z m -0.0054,-0.00986 q 0.0049,-0.00261 0.00799,-0.00695 0.00308,-0.00434 0.00354,-0.00968 5.088e-4,-0.00552 -0.0026,-0.011355 -0.00317,-0.00595 -0.00786,-0.00856 -0.00475,-0.00272 -0.010123,-0.0024 -0.00532,1.372e-4 -0.010227,0.00275 -0.0049,0.00261 -0.00799,0.00695 -0.00315,0.00422 -0.00365,0.00974 -4.542e-4,0.00534 0.00272,0.011293 0.00311,0.00584 0.00785,0.00856 0.0048,0.00254 0.010123,0.0024 0.00532,-1.371e-4 0.010227,-0.00275 z m 0.08694,-0.033089 q -0.00119,5.828e-4 -0.00237,2.782e-4 -0.00112,-4.817e-4 -0.0017,-0.00167 l -0.00839,-0.017102 -0.03848,0.018882 q -0.00119,5.828e-4 -0.00237,2.781e-4 -0.00112,-4.817e-4 -0.0017,-0.00167 l -0.00233,-0.00475 q -2.332e-4,-4.75e-4 -4.618e-4,-0.00154 -1.682e-4,-0.00124 1.98e-5,-0.00266 l 0.010978,-0.067721 q 4.345e-4,-0.00272 0.0034,-0.00418 l 0.00855,-0.0042 q 0.00119,-5.828e-4 0.00231,-1.011e-4 0.00118,3.046e-4 0.00176,0.00149 l 0.024651,0.050237 0.010689,-0.00524 q 0.00131,-6.41e-4 0.00243,-1.593e-4 0.00118,3.046e-4 0.00176,0.00149 l 0.00239,0.00487 q 5.827e-4,0.00119 1.593e-4,0.00243 -3.629e-4,0.00106 -0.00155,0.00165 l -0.010808,0.0053 0.00839,0.017102 q 5.828e-4,0.00119 1.594e-4,0.00243 -3.63e-4,0.00106 -0.00155,0.00165 z m -0.045921,-0.014602 0.028622,-0.014045 -0.019989,-0.040736 z m 0.07213,-0.059992 q -0.00481,0.0022 -0.00989,0.0019 -0.00502,-4.71e-4 -0.00918,-0.00322 -0.00422,-0.00287 -0.00642,-0.00768 -0.00226,-0.00493 -0.00161,-0.00988 6.463e-4,-0.00495 0.00363,-0.00893 0.00305,-0.00416 0.00786,-0.00636 0.00493,-0.00226 0.00995,-0.00178 0.00496,3.506e-4 0.00913,0.0031 0.00417,0.00275 0.00642,0.00768 0.0022,0.00481 0.00161,0.00988 -6.462e-4,0.00495 -0.00357,0.00905 -0.00298,0.00398 -0.00791,0.00624 z m -0.00363,-0.00794 q 0.00409,-0.00187 0.00546,-0.00555 0.00137,-0.00368 -4.985e-4,-0.00777 -0.00187,-0.00409 -0.00555,-0.00546 -0.00368,-0.00137 -0.00777,4.985e-4 -0.00409,0.00187 -0.00546,0.00555 -0.00137,0.00368 4.985e-4,0.00777 0.00187,0.00409 0.00555,0.00546 0.00368,0.00137 0.00777,-4.985e-4 z"
       id="text8"
       style="font-size:0.132292px;font-family:Rubik;-inkscape-font-specification:Rubik;stroke-width:0.0661458;fill:#ffffff;fill-opacity:1"
       aria-label="345.964°" />
    <path
       id="path14"
       style="display:inline;fill:none;fill-opacity:1;stroke:#ffffff;stroke-width:0.01322917;stroke-opacity:1;stroke-dasharray:none"
       d="M 0.52139351,2.2960868 A 2.4391418,2.4391418 0 0 1 1.0182979,1.7580259" />
    <path
       style="fill:#000000;fill-opacity:1;stroke:#ffffff;stroke-width:0.0132292;stroke-dasharray:none;stroke-opacity:1"
       d="M 0.52139352,2.2960868 0.49712726,2.1373372"
       id="path15" />
    <path
       style="display:inline;fill:#000000;fill-opacity:1;stroke:#ffffff;stroke-width:0.0132292;stroke-dasharray:none;stroke-opacity:1"
       d="M 0.52139352,2.2960868 0.68842783,2.216712"
       id="path16" />
    <path
       id="path17"
       style="display:inline;fill:none;fill-opacity:1;stroke:#ffffff;stroke-width:0.0132292;stroke-dasharray:none;stroke-opacity:1"
       d="M 1.5644139,1.4428669 A 2.4391418,2.4391418 0 0 1 1.8577196,1.3342016" />
    <path
       id="path9"
       style="display:inline;fill:none;stroke:#00dbff;stroke-width:0.0661458;stroke-dasharray:none;stroke-opacity:1"
       d="M 1.750919 0.65367649 L 2.5135417 3.7041666 " />
  </g>
</svg>
